<?xml version="1.0" encoding="UTF-8"?><svg id="Flag_og_spil" xmlns="http://www.w3.org/2000/svg" width="550" height="450" viewBox="0 0 550 450"><defs><style>.cls-1{fill:#d4abf4;}.cls-2{fill:#7878ff;}.cls-3{fill:#ffd78f;}.cls-4{fill:#c6287b;}.cls-5{fill:#fcfce6;}.cls-6{fill:#ff8ae6;}.cls-7{fill:#110e0e;opacity:.38;}.cls-8{fill:#fee;}.cls-9{fill:#88e3ff;}.cls-10{fill:#e5006e;}.cls-11{fill:#d6b785;}.cls-12{fill:#b78741;}.cls-13{fill:#fff;}.cls-14{fill:#d477fc;}.cls-15{fill:#6d0363;}.cls-16{fill:#ffc7c7;}.cls-17{fill:#a4dbdd;}.cls-18{fill:#211c1c;}.cls-19{fill:#f2e7d6;}.cls-20{fill:none;stroke:#6d0363;stroke-miterlimit:10;}.cls-21{fill:#f48cea;}.cls-22{fill:#bcbcf7;}</style></defs><ellipse class="cls-7" cx="298.56" cy="314.5" rx="180.41" ry="28.64"/><path class="cls-10" d="M134.06,86.35s73.25,28.69,176.3,0c103.05-28.69,163.88,0,163.88,0v219.16s-79.46-32.13-170.09,0c-90.63,32.13-170.09,0-170.09,0V86.35Z"/><path class="cls-5" d="M271.95,94.78v90.24s-50.98,21.8-137.89,0v29.83s79.61,24.1,137.89,0v99.64l16.27-3.95,15.93-5.04v-96.39s75.73-43.39,170.09-4.48v-32.24s-70.77-33.28-170.09,3.44v-87.83l-32.2,6.77Z"/><polygon class="cls-10" points="203.23 293.93 111.49 364.29 116.03 371.47 216.94 314.35 203.23 293.93"/><polygon class="cls-10" points="343.84 290.99 464.59 363.27 469.68 354.74 356.84 270.29 343.84 290.99"/><polygon class="cls-10" points="163.38 299.79 208.52 374.64 220.94 365.23 178 296.6 163.38 299.79"/><polygon class="cls-10" points="374.87 269.05 356.14 348.27 370.88 353.33 388.45 278.01 374.87 269.05"/><path class="cls-8" d="M202.4,350.86c4.07-2.65,11.42-7.52,15.46-5.94,3.24,1.26,4.24,5.02,5.5,8.23,1.2,3.06,2.25,5.99,3.45,9.05.6,1.53,1.44,3.05,2.45,4.32,2.06,2.59,5.92,3.6,9.14,4.6l19.08,5.91c2.34.72,3.75,3.11,3.05,5.54-.85,2.96-4.34,3.44-7.07,3.22-4.94-.39-9.72-1.76-13.99-3.98-2.34,3.58,1.25,7.56,4.52,9.87,3.74,2.64,7.47,5.28,11.21,7.92,3.24,2.29,6.71,6.74,3.34,9.79-1.84,1.67-4.57,1.79-6.44.44l-18.21-13.14c-.25,6.29,3.19,11.92,7.52,16.19,1.8,1.78,3.84,3.47,4.26,6.18.25,1.59-.35,3.31-1.75,4.29-3.05,2.13-6.61-1.14-8.47-4.08-3.43-5.44-6.86-10.89-10.29-16.33-2.83,7.3,4.46,14.62,3.78,21.89-.19,2.02-2.36,3.43-4.17,2.65-.87-.38-1.65-.99-2.22-1.73-1.28-1.67-1.74-3.84-2.16-5.93-.87-4.29-2.55-8.29-3.42-12.58-.49-2.43-.5-2.32-2.14-4.7.56,3.25-.52,7.37-.15,10.66.15,1.39.54,5.42-2.29,6.49-1.07.4-2.23.08-2.93-.73-3.03-3.51-2.67-7.14-3.08-11.91-.32-3.64-.1-7.34.54-11.02,1.69-9.77-2.27-19.79-9.86-25.46-3.21-2.4-7.51-5.58-5.75-9.45.54-1.19,1.38-2.82,2.39-3.68,2.84-2.42,5.25-4.3,8.71-6.55"/><path class="cls-16" d="M203.16,352.16c3.01-1.96,6.08-4.05,9.47-5.29,1.33-.49,2.94-1.02,4.37-.65,1.67.43,2.67,2,3.38,3.46,2.04,4.2,3.31,8.79,5.07,13.11.8,1.96,1.84,3.95,3.36,5.45,1.42,1.4,3.24,2.28,5.09,2.98,7.55,2.89,15.56,4.51,23.16,7.24,1.49.54,2.46,1.93,2.1,3.54-.41,1.79-2.4,2.25-4,2.32-5.04.22-10.47-1.54-14.9-3.81-.73-.37-1.62-.19-2.05.54-3.83,6.36,4.36,11.43,8.66,14.47,1.47,1.04,2.94,2.07,4.4,3.11,1.55,1.1,3.22,2.11,4.6,3.42,1.7,1.62,3.95,4.61,1.37,6.49s-5.17-.61-7.23-2.09c-2.97-2.14-5.94-4.29-8.92-6.43-2.14-1.54-4.27-3.08-6.41-4.63-.97-.7-2.23.25-2.26,1.3-.1,3.69.92,7.27,2.72,10.49s4.17,5.63,6.67,8.16c1.11,1.12,2.24,2.43,2.43,4.06.17,1.48-.86,3.18-2.48,3.13-1.51-.05-2.85-1.37-3.79-2.43-1.3-1.47-2.26-3.29-3.3-4.95-2.73-4.33-5.45-8.66-8.18-12.98-.72-1.15-2.3-.84-2.74.36-2.48,6.79,2.41,12.88,3.59,19.34.22,1.19.58,3.22-.6,4.02-1.53,1.04-3.09-1.04-3.68-2.25-.81-1.68-1.02-3.59-1.44-5.38-.48-2.04-1.12-4.03-1.73-6.03-.65-2.13-1.15-4.26-1.65-6.43-.36-1.55-1.18-2.74-2.08-4.03-1-1.45-2.99-.52-2.74,1.16.51,3.39-.5,6.85-.21,10.26.13,1.46.53,4.42-1.28,5.08-1.38.5-2.34-1.59-2.78-2.58-.6-1.36-.82-2.86-.95-4.33-.3-3.49-.58-7.02-.35-10.52s1.11-7,.94-10.58c-.15-3.16-.81-6.3-2-9.24s-2.66-5.37-4.6-7.67-4.57-4.03-6.91-6.08c-1.12-.98-2.45-2.19-2.79-3.7s.71-3.17,1.57-4.3c1.08-1.42,2.8-2.55,4.21-3.63,1.58-1.22,3.23-2.36,4.91-3.45s.11-3.65-1.51-2.59c-3.18,2.08-6.56,4.32-9.26,7.02-2.3,2.3-3.78,5.92-2.33,9s4.62,4.83,7.11,6.95c2.71,2.3,4.85,5.18,6.35,8.41s2.25,6.73,2.29,10.24c.05,4.11-1.04,8.13-1.06,12.26-.01,2.07.2,4.13.32,6.2.11,1.69.22,3.4.61,5.05.71,2.99,2.89,7.27,6.58,6.54,3.33-.66,4.2-4.26,4.01-7.18-.11-1.82-.15-3.56,0-5.38.18-2.21.35-4.37.02-6.57l-2.74,1.16c.88,1.27,1.56,2.27,1.88,3.79.49,2.32,1.13,4.58,1.82,6.84s1.32,4.42,1.79,6.68c.41,1.99.91,4.05,2.12,5.74,1.1,1.54,2.88,2.91,4.86,2.85,1.76-.06,3.37-1.25,4.06-2.84,1.42-3.27-.37-7.66-1.55-10.74-1.5-3.91-3.43-8.09-1.9-12.28l-2.74.36c2.73,4.33,5.45,8.66,8.18,12.98,2.09,3.31,4.32,7.71,8.5,8.7,3.93.93,7.15-2.73,6.6-6.52-.58-4-4.28-6.35-6.71-9.23-3.07-3.64-5.17-8.1-5.05-12.93l-2.26,1.3c5.06,3.65,10.11,7.3,15.17,10.95,2.48,1.79,4.77,3.86,8.11,3.17,2.93-.61,5.32-3.23,4.95-6.31s-2.77-5.53-5.12-7.28c-3.63-2.7-7.4-5.22-11.1-7.84-2.33-1.65-6.32-4.88-4.38-8.1l-2.05.54c4.62,2.37,9.7,3.86,14.89,4.2,3.68.24,7.99-1,8.54-5.22.42-3.25-1.78-5.71-4.72-6.63-1.93-.61-3.87-1.2-5.81-1.8-4.25-1.32-8.5-2.64-12.76-3.95-1.7-.52-3.44-.99-5.06-1.73-2.17-.98-3.59-2.37-4.73-4.45-1.3-2.37-2.1-5.06-3.05-7.59-.86-2.27-1.68-4.58-2.63-6.81-.87-2.02-2.05-4-4.01-5.12-1.77-1.02-3.75-1.02-5.69-.58-4.38,1-8.33,3.74-12.04,6.15-1.61,1.05-.11,3.65,1.51,2.59h0Z"/><path class="cls-8" d="M371.87,329.79c-4.21-2.42-11.82-6.88-15.8-5.1-3.18,1.43-4,5.22-5.1,8.47-1.05,3.1-1.95,6.08-3,9.18-.53,1.55-1.29,3.1-2.24,4.43-1.93,2.68-5.75,3.89-8.94,5.05l-18.83,6.87c-2.31.84-3.61,3.29-2.78,5.67,1,2.9,4.52,3.19,7.25,2.83,4.93-.65,9.65-2.25,13.82-4.69,2.53,3.44-.88,7.59-4.04,10.05-3.61,2.82-7.23,5.64-10.84,8.46-3.13,2.44-6.39,7.05-2.86,9.91,1.93,1.56,4.67,1.54,6.48.1l17.6-14.02c.56,6.24-2.6,12.02-6.73,16.49-1.72,1.86-3.67,3.65-3.96,6.37-.17,1.6.52,3.28,1.97,4.18,3.16,1.96,6.57-1.48,8.28-4.5,3.17-5.6,6.34-11.19,9.5-16.79,3.2,7.12-3.74,14.78-2.69,21.97.29,1.99,2.54,3.29,4.32,2.42.86-.42,1.61-1.07,2.14-1.84,1.2-1.73,1.55-3.91,1.87-6.01.65-4.32,2.14-8.38,2.8-12.69.37-2.45.38-2.34,1.91-4.79-.4,3.26.89,7.31.69,10.6-.08,1.39-.27,5.42,2.62,6.34,1.1.35,2.24-.03,2.9-.87,2.86-3.65,2.32-7.24,2.49-12.01.14-3.64-.27-7.31-1.09-10.93-2.18-9.63,1.28-19.8,8.61-25.84,3.1-2.55,7.25-5.94,5.3-9.71-.6-1.16-1.53-2.73-2.58-3.53-2.96-2.26-5.48-4.01-9.06-6.06"/><path class="cls-16" d="M372.63,328.5c-5.68-3.27-15.92-9.84-20.71-1.91-1.05,1.75-1.61,3.76-2.24,5.68-.85,2.61-1.7,5.22-2.55,7.82-.8,2.43-1.63,5.13-3.63,6.88-1.53,1.34-3.54,2.1-5.43,2.79-4.13,1.52-8.26,3.01-12.39,4.51l-6.76,2.47c-2.19.8-4.22,1.73-5.12,4.1-.78,2.05-.33,4.55,1.26,6.1s3.78,1.91,5.83,1.87c5.56-.12,11.34-2.27,16.1-5.02l-2.05-.54c1.88,2.77-.91,5.75-2.94,7.52-2.98,2.6-6.26,4.92-9.38,7.36-2.58,2.02-5.26,4-6.57,7.12-1.18,2.83-.37,5.81,2.33,7.4,2.46,1.46,5.47,1.13,7.69-.59.67-.52,1.33-1.06,2-1.59,2.97-2.37,5.94-4.73,8.91-7.1,2.22-1.77,4.44-3.54,6.67-5.31l-2.56-1.06c.33,4.31-1.1,8.34-3.48,11.9-1.15,1.72-2.53,3.22-3.93,4.73-1.27,1.38-2.47,2.89-3.01,4.72-1.06,3.62,1.3,7.97,5.42,7.75s6.54-4.38,8.32-7.53c2.84-5.02,5.69-10.04,8.53-15.06h-2.59c1.48,3.47.14,7.32-.98,10.68s-2.45,7.06-1.89,10.73c.26,1.7,1.45,3.14,3.08,3.72,1.82.65,3.56-.02,4.96-1.24,1.63-1.42,2.42-3.55,2.85-5.61.46-2.22.76-4.46,1.3-6.66.63-2.55,1.35-5.09,1.78-7.68.15-.87.2-1.83.52-2.66.31-.79.87-1.52,1.31-2.23l-2.8-.76c-.37,3.65.82,7.25.67,10.91-.1,2.43.25,5.28,2.38,6.8,1.33.95,3.17,1.13,4.61.32s2.33-2.52,2.92-3.98c1.32-3.21,1.03-6.84,1.12-10.24.06-2.22-.07-4.43-.36-6.62-.27-2.08-.8-4.11-1.12-6.18-.54-3.49-.27-7.11.68-10.5s2.51-6.4,4.7-9.02,5.33-4.52,7.5-7.26c1.1-1.39,1.97-3.04,1.9-4.86-.07-1.92-1.23-3.75-2.39-5.22-1.24-1.57-3.11-2.7-4.73-3.83-1.86-1.3-3.79-2.5-5.75-3.64-1.67-.97-3.19,1.62-1.51,2.59,3,1.74,6.03,3.6,8.72,5.8,1.08.88,2.03,2.24,2.51,3.56s-.26,2.71-1.09,3.76c-1.95,2.44-4.71,4.09-6.79,6.42s-3.59,4.78-4.76,7.54c-1.23,2.91-1.96,5.99-2.18,9.15-.24,3.41.41,6.59,1.03,9.92.68,3.69.65,7.33.6,11.06-.04,2.83,0,6.23-2,8.51-1.03,1.18-2.27.28-2.69-.92-.35-1.01-.34-2.1-.3-3.15.15-3.66-1.04-7.26-.67-10.91.16-1.57-2.07-1.92-2.8-.76s-1.49,2.26-1.8,3.59c-.42,1.79-.62,3.63-1.05,5.43-.5,2.1-1.09,4.19-1.55,6.3s-.59,4.1-1.19,6.07c-.39,1.27-1.51,3.63-3.19,3.47s-1.62-2.06-1.56-3.26c.14-3.31,1.58-6.47,2.53-9.61,1.13-3.7,1.61-7.41.05-11.05-.45-1.06-2.09-.89-2.59,0-2.19,3.87-4.39,7.75-6.58,11.62-1.06,1.87-2.07,3.79-3.19,5.62-.83,1.36-1.95,2.74-3.38,3.49-1.34.7-2.86.34-3.54-1.1s0-3.13.88-4.37c.96-1.37,2.25-2.5,3.33-3.77,1.18-1.4,2.28-2.88,3.2-4.46,2.12-3.64,3.35-7.79,3.02-12.02-.11-1.37-1.53-1.88-2.56-1.06-4.63,3.69-9.25,7.37-13.88,11.06-1.64,1.31-3.77,3.74-6.03,3.59-1.28-.09-2.82-.89-3.1-2.26-.24-1.22.49-2.49,1.16-3.45,1.94-2.77,5.16-4.69,7.79-6.74,4.3-3.35,14.69-9.61,10.08-16.4-.46-.67-1.31-.97-2.05-.54-4.08,2.35-8.67,3.99-13.36,4.52-1.48.17-3.36.24-4.64-.66-1.35-.96-1.35-2.95-.29-4.12.87-.96,2.47-1.29,3.63-1.71l6.82-2.49c3.51-1.28,7.02-2.57,10.54-3.84,3.8-1.37,7.42-2.89,9.57-6.51,1.3-2.2,2.01-4.69,2.79-7.11s1.51-4.59,2.25-6.89c.6-1.86,1.16-3.99,2.58-5.42,1.27-1.28,2.87-1.37,4.55-1.01,4.02.85,7.68,3.09,11.19,5.12,1.68.96,3.19-1.63,1.51-2.59h0Z"/><ellipse class="cls-13" cx="238.4" cy="184.94" rx="32.88" ry="39.09"/><ellipse class="cls-1" cx="238.4" cy="186.93" rx="27.53" ry="19.21"/><ellipse class="cls-18" cx="240.49" cy="188.79" rx="15.43" ry="9.84"/><ellipse class="cls-13" cx="241.48" cy="187.96" rx="12.09" ry="8.32"/><path class="cls-4" d="M207.12,197.21s25.23,13.84,62.55,0c0,0-5.8,26.38-31.28,26.87-25.48.5-31.28-26.87-31.28-26.87Z"/><path class="cls-5" d="M287.09,202.67s-18.89,6.72-29.07-3.36-18.89,5.55-18.89,5.55c0,0-5.09,17.28,11.63,18.63,16.71,1.34,30.52,0,30.52,0l5.81-20.82Z"/><ellipse class="cls-13" cx="295.62" cy="189.88" rx="32.88" ry="39.09"/><ellipse class="cls-1" cx="298.56" cy="189.88" rx="27.28" ry="24.16"/><ellipse class="cls-18" cx="298.56" cy="191.57" rx="16.65" ry="11.69"/><ellipse class="cls-13" cx="299.48" cy="190.83" rx="14.18" ry="8.74" transform="translate(-34.84 71.11) rotate(-12.8)"/><path class="cls-4" d="M264.31,202.1s25.23,13.84,62.55,0c0,0-5.8,26.38-31.28,26.87-25.48.5-31.28-26.87-31.28-26.87Z"/><path class="cls-4" d="M262.74,189.88s26.94,14.08,65.74-1.09c0,0-1.63-38.95-33.65-38.25-31.38.69-32.09,39.35-32.09,39.35Z"/><path class="cls-4" d="M205.53,185.47s28.87,14.45,67.68-1.15c0,0-5.11-39.23-34.27-38.39-34.8,1-33.41,39.54-33.41,39.54Z"/><path class="cls-2" d="M227.92,98.97S205.29,3.17,148.76,23.73c-56.53,20.55-100.29,92.82-100.29,92.82,0,0-36.58,51.78-32.28,97.49,4.3,45.71-.35,47.7-.35,47.7,0,0,48.41-37.65,54.15-61.25,5.74-23.61,43.04-40.84,43.04-40.84,0,0,14.84-9.22,17.93,8.08,3.09,17.31,3.09,7.74,3.09,7.74l93.86-76.49Z"/><path class="cls-22" d="M191.48,117.77c-2.15-4.96-1.13-10.98,2.56-15.1s9.9-6.16,15.58-5.13c1.57.29,3.26.78,4.73.19,1.61-.65,2.33-2.36,2.97-3.87,1.78-4.23,4.25-8.36,8.1-11.17,3.85-2.81,9.33-4.05,13.8-2.18,4.47,1.86,7.12,7.31,4.75,11.29,4.88-1.99,10.86,2.32,11.12,7.24s-3.9,9.36-8.87,11.15c-4.97,1.79-10.54,1.41-15.77.47,3.68,5.24.5,13.37-5.95,15.22-4.24,1.22-9.3.1-12.91,2.49-5.9,3.91-3.45,14.11-9.8,17.34-4.54,2.31-10.58-.73-15.25,1.35-6.64,2.95-4.53,12.44-8.54,18.15-3.41,4.84-11.82,5.73-16.33,1.72-.61,8.28-7.41,15.86-16.1,17.95-3.28.79-8.3-.93-7.03-3.83-3.28,3.93-9.73,6.08-14.17,3.29-4.44-2.79-3.02-10.93,2.35-11.02-6.33-2.16-7.58-10.86-3.34-15.7s11.85-6.12,18.49-5.05c-2.9-9.23,7.76-19.51,17.87-17.22-1.5-4.06-.18-8.89,3.22-11.8s8.71-3.76,12.98-2.07c-.41-4.16.47-8.65,3.53-11.72,3.06-3.07,8.66-4.14,12.21-1.56,2.53-8.25,10.01-15.04,18.98-17.24"/><path class="cls-22" d="M22.31,253.65c-4.23-1.18-6.18-7.27-10.55-6.68-1.68.23-2.96,1.45-4.1,2.61-2.01,2.04-4.06,4.12-5.3,6.63s-1.56,5.57-.1,7.98c.92,1.52,2.43,2.63,3.91,3.71,2.44,1.78,4.89,3.56,7.33,5.34,2.14,1.56,4.65,3.21,7.33,2.76,2.83-.47,4.6-3.11,5.43-5.65s1.11-5.29,2.62-7.55c.47-.7,1.06-1.37,1.18-2.18.25-1.79-1.86-3.05-3.73-3.59s-4.08-1.02-4.89-2.66"/><polygon class="cls-3" points="39.15 233.89 34.79 227.72 27.08 229.64 32.09 223.9 27.73 217.72 35.19 220.35 40.2 214.6 39.8 221.97 47.26 224.6 39.55 226.52 39.15 233.89"/><polygon class="cls-3" points="36.28 177.09 30.21 173.31 24.44 177.47 26.46 170.96 20.39 167.17 27.71 166.94 29.73 160.43 32.24 166.8 39.56 166.57 33.78 170.73 36.28 177.09"/><polygon class="cls-3" points="71.43 169.75 70.95 166.82 67.79 166.34 70.65 165.01 70.17 162.08 72.42 164.19 75.29 162.86 73.82 165.49 76.07 167.6 72.91 167.12 71.43 169.75"/><polygon class="cls-3" points="67.13 126.49 66.68 120.55 60.43 119.1 66.41 116.87 65.96 110.93 70.1 115.5 76.08 113.27 72.66 118.32 76.8 122.88 70.55 121.44 67.13 126.49"/><polygon class="cls-3" points="100.13 73.6 98.64 74.04 98.64 75.49 97.72 74.32 96.23 74.76 97.15 73.6 96.23 72.43 97.72 72.87 98.64 71.7 98.64 73.15 100.13 73.6"/><polygon class="cls-3" points="117.34 59.53 118.03 53.75 112.3 51.36 118.46 50.18 119.15 44.4 122.27 49.45 128.43 48.27 124.19 52.57 127.31 57.62 121.58 55.23 117.34 59.53"/><polygon class="cls-3" points="121.88 125.83 122.43 120.09 116.69 117.84 122.76 116.55 123.31 110.81 126.51 115.75 132.58 114.45 128.49 118.8 131.7 123.73 125.97 121.48 121.88 125.83"/><polygon class="cls-3" points="100.13 145.93 97.42 146.68 97.35 149.3 95.74 147.15 93.03 147.9 94.75 145.82 93.14 143.67 95.81 144.53 97.52 142.45 97.46 145.07 100.13 145.93"/><polygon class="cls-3" points="128.1 150.71 124.94 147.95 121.12 149.87 122.98 146.24 119.82 143.48 124.14 143.99 126 140.36 126.8 144.31 131.12 144.83 127.3 146.76 128.1 150.71"/><polygon class="cls-3" points="164.63 88.01 162.59 82.22 156 82.22 161.33 78.63 159.29 72.84 164.63 76.42 169.96 72.84 167.93 78.63 173.26 82.22 166.67 82.22 164.63 88.01"/><polygon class="cls-3" points="164.24 44.28 163.38 40.99 159.73 40.73 162.85 38.96 161.99 35.67 164.78 37.87 167.89 36.09 166.5 39.22 169.28 41.41 165.64 41.15 164.24 44.28"/><polygon class="cls-3" points="201.08 82.07 193.17 79.42 188 85.55 188.28 77.78 180.37 75.12 188.46 72.97 188.74 65.2 193.46 71.64 201.54 69.49 196.37 75.63 201.08 82.07"/><polygon class="cls-3" points="125.23 92.01 121.27 90.15 118.13 93.05 118.82 88.99 114.86 87.12 119.26 86.48 119.95 82.42 121.97 86.09 126.36 85.45 123.22 88.35 125.23 92.01"/><path class="cls-21" d="M232.71,256.39c1.36-.89,2.76-1.72,4.2-2.46.61-.31,1.22-.61,1.84-.89.09-.04,1.33-.58.43-.2.5-.21,1.01-.41,1.53-.6,2.96-1.11,6.04-1.92,9.16-2.43.11-.02,1.47-.22.44-.08.41-.05.82-.1,1.24-.14.83-.09,1.65-.15,2.48-.19,1.66-.09,3.32-.09,4.98,0,.69.04,1.38.09,2.07.15.41.04.82.09,1.24.13-1.03-.12.33.05.44.07,1.58.25,3.15.58,4.7,1,1.38.37,2.74.81,4.08,1.3.36.14.72.28,1.09.42,1.2.46-.81-.38.36.15.82.37,1.64.75,2.45,1.16,1.26.64,2.49,1.34,3.68,2.1.65.41,1.29.84,1.91,1.28.21.15.42.3.62.45.21.15.41.3.61.46-.41-.32-.41-.32,0,0,2.34,1.92,4.52,4,6.45,6.34.16.19.31.39.47.58-.66-.82.11.16.2.28.44.6.86,1.21,1.27,1.84.85,1.31,1.59,2.67,2.37,4.02,1.96,3.43,4.24,6.65,7.59,8.84,3.8,2.49,8.32,3.03,12.72,2.41,2.34-.33,3.82-3.43,3.14-5.54-.83-2.57-3.03-3.5-5.54-3.14,1.05-.15-.28-.02-.42-.01-.41.01-.81-.02-1.22-.02-1.24.01.8.23-.41-.03-.4-.08-.79-.16-1.18-.27s-.76-.25-1.15-.37c.74.23.15.08-.03-.02-.35-.19-.71-.36-1.05-.57-.23-.14-.45-.28-.66-.43.38.31.37.3-.03-.03-.59-.54-1.12-1.1-1.66-1.68-.85-.93.45.71-.26-.33-.15-.22-.3-.43-.45-.65-.95-1.43-1.77-2.94-2.62-4.42-3.23-5.64-7.53-10.4-12.69-14.34-10.51-8.01-24.13-11.46-37.2-9.73-7.72,1.02-15.19,3.54-21.73,7.84-1.96,1.29-2.98,4.04-1.61,6.16,1.26,1.96,4.05,3,6.16,1.61h0Z"/><path class="cls-17" d="M237.76,200.31c-2.48,1.07-5.39-.65-8.1-.26-1.25.18-2.46.81-3.7.58-1.22-.22-2.13-1.23-3.35-1.44-1.36-.24-2.76.56-4.11.29-1.41-.28-2.4-1.67-3.84-1.75-.6-.03-1.19.18-1.79.18-1.06,0-1.98-.63-2.91-1.11s-2.15-.8-3.01-.22c-.99.66-.87,2.09-.32,3.11s1.43,1.9,1.68,3.01c.14.63.15,1.42.77,1.71.74.35,1.53-.38,1.92-1.06s.88-1.51,1.71-1.5c.66,0,1.14.58,1.72.87,1.81.92,3.99-.94,6.02-.57,1.25.23,2.22,1.27,3.49,1.35,1.68.11,3.2-1.52,4.81-1.07.91.25,1.54,1.12,2.48,1.26.72.11,1.42-.24,2.06-.59,1.16-.62,2.31-1.24,3.47-1.87"/><path class="cls-17" d="M286.49,207.3c1.91-2.12,6.04.64,8.55-.87.61-.36,1.08-.97,1.79-1.09,1.09-.18,1.95.86,3.02,1.15,2.08.56,3.91-1.85,6.06-1.7,1.49.1,2.78,1.43,4.25,1.14,1.65-.32,2.63-2.57,4.27-2.19.78.18,1.3.95,2.09,1.1,1.76.33,2.36-2.36,4.04-2.95,1.08-.38,2.44.43,2.51,1.5.45-.59.93-1.21,1.62-1.55s1.66-.33,2.15.24c.34.39.37.92.39,1.42.08,1.91.17,3.81.25,5.72.02.4.03.83-.23,1.16-.68.88-2.4.16-3.26.9.21.77.41,1.58.21,2.36s-.97,1.48-1.83,1.38c-1.25-.14-1.61-1.66-1.47-2.82s.35-2.54-.63-3.28c-1.71-1.29-4.54,1.19-6.33,0-.33-.22-.56-.53-.88-.76-1.03-.72-2.5-.26-3.64.29-3.11,1.52-6.4,3.71-9.8,2.85-1.28-.32-2.75-1.05-3.81-.31-.98.68-1.06,2.34-2.26,2.53-1.47.24-1.77-1.85-2.7-2.93-1.29-1.5-4.55-1.49-4.68-3.4"/><path class="cls-6" d="M490.93,392.84s-32.49-28.84-2.28-55.77c30.21-26.93,49.83-15.04,49.83-15.04l-47.55,70.81Z"/><path class="cls-11" d="M503.72,398.25l44.52-66.3c.86-1.28.52-3.01-.76-3.86l-9.01-6.05-47.55,70.81,9.12,6.12c1.21.81,2.86.49,3.67-.72Z"/><path class="cls-12" d="M494.91,387c.45.79,1.42,1.15,2.17,1.58.99.57,1.98,1.17,2.95,1.79,1.91,1.21,3.77,2.51,5.58,3.87.39.29.76-.36.38-.65-1.7-1.28-3.45-2.51-5.25-3.66-.88-.57-1.78-1.12-2.68-1.65-.45-.27-.91-.53-1.36-.79-.42-.24-.89-.44-1.14-.88s-.89-.04-.65.38h0Z"/><path class="cls-12" d="M500.43,380.39c3.83,1.47,7.45,3.46,10.74,5.91.39.29.76-.36.38-.65-3.35-2.48-7.03-4.49-10.92-5.98-.45-.17-.65.55-.2.72h0Z"/><path class="cls-12" d="M505.08,372.36c1.75,1.35,3.51,2.71,5.41,3.85s3.99,1.94,6.06,2.73c.45.17.65-.55.2-.72-2.02-.77-4.02-1.55-5.89-2.66s-3.56-2.41-5.26-3.73c-.38-.29-.91.24-.53.53h0Z"/><path class="cls-12" d="M510.57,365.04c2.2.76,4.05,2.02,5.8,3.53,1.52,1.31,3.03,2.64,4.95,3.31.46.16.65-.56.2-.72-2.01-.7-3.55-2.22-5.14-3.56-1.68-1.42-3.52-2.55-5.61-3.28-.46-.16-.65.57-.2.72h0Z"/><path class="cls-12" d="M515.31,358c1.92.66,3.65,1.64,5.31,2.81,1.76,1.23,3.5,2.49,5.25,3.73.39.28.77-.37.38-.65-1.81-1.28-3.6-2.58-5.42-3.85-1.66-1.16-3.41-2.1-5.32-2.76-.46-.16-.65.57-.2.72h0Z"/><path class="cls-12" d="M520.3,350.61c3.52,2.13,7.03,4.27,10.55,6.4.41.25.79-.4.38-.65-3.52-2.13-7.03-4.27-10.55-6.4-.41-.25-.79.4-.38.65h0Z"/><path class="cls-12" d="M524.74,343.65c3.89,1.62,6.55,5.22,10.53,6.69.45.17.65-.56.2-.72-3.96-1.46-6.64-5.07-10.53-6.69-.44-.19-.64.54-.2.72h0Z"/><path class="cls-12" d="M529.16,336.95c2.04.96,4,2.1,5.85,3.41,1.53,1.09,3.16,2.92,5.2,2.81.48-.02.48-.77,0-.75-1,.05-1.85-.48-2.62-1.05-.84-.62-1.65-1.28-2.52-1.88-1.75-1.21-3.6-2.27-5.53-3.18-.43-.2-.82.44-.38.65h0Z"/><path class="cls-12" d="M534.6,329.19c1.92.52,3.5,1.79,5.08,2.94,1.72,1.25,3.45,2.5,5.17,3.75.39.28.77-.37.38-.65-1.78-1.29-3.56-2.58-5.34-3.87-1.59-1.15-3.18-2.37-5.1-2.89-.47-.13-.67.6-.2.72h0Z"/><path class="cls-19" d="M503.17,326.4s20.05-12.53,35.3-4.37l-19.38,28.86s-17.15-13.04-15.92-24.49Z"/><path class="cls-9" d="M466.61,366.96s-17.88-9.68-18.82-11.87c0,0-3.65,5.13-7.5.61-1.2-1.41-1.76-2.58-1.99-3.49-.28-1.1.09-2.27.9-3.07,2.28-2.26,8.85-9.18,9.48-14.61.76-6.59,6.28-3,6.28-3,0,0,5.79,3.77,3.12,8.47l10.42,8.71c.2.18.38.36.56.55l5.48,5.88.96,11.23-8.9.59Z"/><path class="cls-6" d="M479.38,376.02s-17.88,1.46-14.91-5.68c2.97-7.14,6.2-2.31,6.08-6.95s-1.37-8.15-1.37-8.15c0,0-2.88-12.71,5.78-12.86,8.66-.15,7.48,5.02,7.48,5.02l-2.33,27.55-.72,1.08Z"/><path class="cls-15" d="M496.15,349.98c-1.44-2.13-2.66-4.4-3.55-6.82-.44-1.18-.8-2.39-1.1-3.61-.32-1.34-.55-2.53-.07-3.86.27-.76-.31-1.64-1.05-1.85-.83-.23-1.57.28-1.85,1.05-1.01,2.83.11,6.11,1.08,8.82s2.31,5.37,3.95,7.79c1.08,1.59,3.68.09,2.59-1.51h0Z"/><path class="cls-15" d="M492.63,354.15c-1.57-2.13-3.14-4.28-4.4-6.61-.59-1.1-1.1-2.24-1.47-3.43-.32-1.02-.78-2.39-.3-3.43.34-.74.21-1.62-.54-2.05-.65-.38-1.71-.2-2.05.54-1.34,2.92-.02,6.28,1.29,8.98s3.09,5.13,4.87,7.54c.48.65,1.3.98,2.05.54.64-.38,1.02-1.4.54-2.05h0Z"/><path class="cls-15" d="M500.85,345.44c-1.44-2.13-2.66-4.4-3.55-6.82-.44-1.18-.8-2.39-1.1-3.61-.32-1.34-.55-2.53-.07-3.86.27-.76-.31-1.64-1.05-1.85-.83-.23-1.57.28-1.85,1.05-1.01,2.83.11,6.11,1.08,8.82s2.31,5.37,3.95,7.79c1.08,1.59,3.68.09,2.59-1.51h0Z"/><path class="cls-20" d="M507.33,356.5s-12.21,23.15-23.12,28.69"/><path class="cls-6" d="M90.26,407.46s31.82-29.57,1.13-55.58c-30.7-26.01-50.03-13.65-50.03-13.65l48.9,69.23Z"/><path class="cls-11" d="M77.61,413.18l-45.79-64.82c-.88-1.25-.58-2.98.68-3.87l8.86-6.26,48.9,69.23-8.97,6.34c-1.19.84-2.84.57-3.68-.62Z"/><path class="cls-12" d="M85.51,401.39c-.24.44-.69.66-1.11.9-.44.26-.88.53-1.32.8-.93.58-1.85,1.18-2.76,1.79-1.76,1.19-3.48,2.46-5.15,3.78-.38.3.16.83.53.53,1.77-1.4,3.6-2.73,5.48-3.98.91-.61,1.84-1.2,2.77-1.77.75-.46,1.77-.86,2.2-1.67.23-.42-.42-.8-.65-.38h0Z"/><path class="cls-12" d="M80.31,394.6c-3.89,1.6-7.53,3.72-10.85,6.3-.38.3.15.82.53.53,3.21-2.5,6.76-4.56,10.52-6.11.44-.18.25-.91-.2-.72h0Z"/><path class="cls-12" d="M75.18,386.93c-1.65,1.34-3.31,2.68-5.11,3.82s-3.85,2.01-5.87,2.84c-.44.18-.25.91.2.72,2.08-.85,4.15-1.71,6.05-2.91s3.56-2.56,5.27-3.94c.38-.3-.16-.83-.53-.53h0Z"/><path class="cls-12" d="M69.88,379.59c-2.07.77-3.88,1.95-5.53,3.41-1.56,1.38-3.06,2.93-5.05,3.69-.45.17-.25.89.2.72,1.9-.72,3.39-2.08,4.87-3.42,1.72-1.55,3.53-2.85,5.71-3.67.45-.17.25-.89-.2-.72h0Z"/><path class="cls-12" d="M65.01,372.7c-1.92.72-3.66,1.72-5.3,2.93-1.77,1.3-3.52,2.62-5.27,3.94-.38.29,0,.94.38.65,1.71-1.27,3.41-2.56,5.12-3.82s3.36-2.25,5.28-2.97c.45-.17.25-.89-.2-.72h0Z"/><path class="cls-12" d="M59.7,365.56c-3.46,2.22-6.93,4.43-10.39,6.65-.41.26-.03.91.38.65,3.46-2.22,6.93-4.43,10.39-6.65.41-.26.03-.91-.38-.65h0Z"/><path class="cls-12" d="M55.21,358.71c-3.82,1.7-6.38,5.35-10.28,6.9-.44.18-.25.9.2.72,3.97-1.58,6.58-5.25,10.46-6.98.44-.2.06-.84-.38-.65h0Z"/><path class="cls-12" d="M50.58,352.2c-1.89.95-3.7,2.04-5.41,3.29-.79.57-1.54,1.19-2.31,1.8-.81.65-1.71,1.31-2.8,1.29-.48-.01-.48.74,0,.75,2.06.05,3.65-1.84,5.17-2.97,1.8-1.34,3.72-2.51,5.72-3.51.43-.22.05-.86-.38-.65h0Z"/><path class="cls-12" d="M45.16,344.54c-1.88.56-3.41,1.78-4.95,2.95-1.78,1.35-3.55,2.7-5.33,4.06-.38.29,0,.94.38.65,1.72-1.31,3.44-2.62,5.16-3.93,1.53-1.16,3.06-2.44,4.93-3,.46-.14.26-.86-.2-.72h0Z"/><path class="cls-19" d="M76.67,341.65s-20.27-11.94-35.31-3.41l19.93,28.22s16.84-13.44,15.38-24.8Z"/><path class="cls-14" d="M113.98,381.05s17.64-10.11,18.53-12.32c0,0,3.75,5.01,7.5.41,1.17-1.43,1.7-2.61,1.92-3.53.26-1.11-.14-2.26-.97-3.03-2.32-2.19-9.02-8.9-9.76-14.29-.89-6.54-6.33-2.82-6.33-2.82,0,0-5.7,3.91-2.94,8.52l-10.22,8.94c-.19.18-.37.37-.55.57l-5.35,6-.73,11.2,8.89.35Z"/><path class="cls-6" d="M101.44,390.41s17.87.98,14.76-6.05c-3.11-7.03-6.23-2.13-6.21-6.76.02-4.63,1.2-8.15,1.2-8.15,0,0,2.61-12.73-6.03-12.65-8.65.08-7.35,5.2-7.35,5.2l2.89,27.36.74,1.05Z"/><path class="cls-15" d="M86.77,366.41c1.59-2.46,2.87-5.12,3.8-7.9s1.96-5.99.9-8.77c-.29-.76-1.01-1.28-1.85-1.05-.72.2-1.34,1.08-1.05,1.85.47,1.23.34,2.33.08,3.59s-.63,2.58-1.06,3.84c-.84,2.44-2,4.75-3.41,6.92-1.05,1.63,1.54,3.13,2.59,1.51h0Z"/><path class="cls-15" d="M90.37,370.46c1.73-2.46,3.47-4.94,4.72-7.68s2.51-6.07,1.12-8.93c-.36-.73-1.39-.93-2.05-.54-.74.43-.89,1.32-.54,2.05.49,1.01.12,2.29-.17,3.31-.35,1.23-.83,2.4-1.4,3.54-1.2,2.37-2.74,4.56-4.26,6.73-.47.66-.12,1.67.54,2.05.75.44,1.58.13,2.05-.54h0Z"/><path class="cls-15" d="M81.99,362.01c1.59-2.46,2.87-5.12,3.8-7.9s1.96-5.99.9-8.77c-.29-.76-1.01-1.28-1.85-1.05-.72.2-1.34,1.08-1.05,1.85.47,1.23.34,2.33.08,3.59s-.63,2.58-1.06,3.84c-.84,2.44-2,4.75-3.41,6.92-1.05,1.63,1.54,3.13,2.59,1.51h0Z"/><path class="cls-20" d="M73.15,371.72s12.66,22.72,23.66,27.95"/></svg>