<?xml version="1.0" encoding="UTF-8"?><svg id="Tabt_la" xmlns="http://www.w3.org/2000/svg" width="1920" height="1080" viewBox="0 0 1920 1080"><defs><style>.cls-1{fill:#fff8f0;}.cls-2{fill:#f1ff36;}.cls-3{fill:#e237a9;}.cls-4{fill:#d4abf4;}.cls-5{fill:#7878ff;}.cls-6{fill:#ff39d5;}.cls-7{fill:#ffd78f;}.cls-8{fill:#ff7bff;}.cls-9{fill:#c6287b;}.cls-10{fill:#fcfce6;}.cls-11{fill:#ff8ae6;}.cls-12{fill:#fcff85;}.cls-13{fill:#fff3fc;}.cls-14{fill:#8839f7;}.cls-15{fill:#fee;}.cls-16{fill:#ea9b9b;}.cls-17{fill:#af0e0e;}.cls-18{fill:#88e3ff;}.cls-19{fill:#e5006e;}.cls-20{fill:#0f2572;}.cls-21{fill:#d6b785;}.cls-22{fill:#b78741;}.cls-23{fill:#fff;}.cls-24{fill:#d477fc;}.cls-25{fill:#6d0363;}.cls-26{fill:#ff61b0;}.cls-27{fill:#350d0d;}.cls-28{fill:#ffc7c7;}.cls-29{opacity:.44;}.cls-30{fill:#211c1c;}.cls-31{fill:#26231c;}.cls-32{fill:#f2e7d6;}.cls-33{fill:#ffbca4;}.cls-34{fill:#cb4dff;}.cls-35{fill:#ff0b6f;}.cls-36{fill:#ffdee3;}.cls-37{fill:#bcbcf7;}.cls-38{fill:#ff00cf;}.cls-39{fill:#4c0d31;}</style></defs><rect class="cls-20" x="-5.11" y="-5.89" width="1932.25" height="1009.08" rx="12" ry="12"/><path class="cls-14" d="M-13.69,908.91c6.87-22.33,33.07-30.86,52.16-44.34,22.88-16.15,37.61-43.3,38.68-71.29,1.07-27.99-11.54-56.18-33.12-74.03,24.44-1.42,48.23,13.01,61.53,33.57,13.3,20.55,16.99,46.3,13.95,70.6-2.05,16.4-5.5,36.67,7.92,46.33,13.33,9.59,33.65-1.96,38.02-17.79,4.37-15.83-2.49-32.56-11.06-46.57s-19.15-27.26-23.36-43.13c-8.07-30.46,9.13-61.47,27.03-87.41,17.89-25.94,38.08-53.7,36.7-85.18,3.87,32.06,7.6,65.5-3.3,95.89-5.86,16.33-15.98,32.67-12.64,49.7,2.73,13.95,13.85,24.41,22.23,35.89,21.09,28.91,25.39,69.23,10.87,101.94,22.56-38.18,13.58-98.02,38.58-139.21,15.55-25.63,47.9-36.11,53.94-73.75,14.84,29.89-13.66,93.15-12.68,109.12,21.97-7.33,38.86-39.37,50.53-59.37,5.52,26.87,9.83,58.45-8.86,78.53-6.82,7.32-16.04,12.15-22.49,19.8-10.92,12.95-11.92,32.06-6.81,48.22s15.42,30.07,25.56,43.64c2.64-20.53,11.75-40.19,25.7-55.47,9.05-9.91,20.04-18.01,28.33-28.56,18.75-23.88,20.92-57.98,10.88-86.64-10.04-28.66-30.8-52.45-54.12-71.89,57.24,9.33,101.39,68.79,93.76,126.29-1.89,14.28-6.52,28.24-6.57,42.64-.08,23.77,12.18,45.61,24.09,66.18-6.83-34.1,32.08-64.02,27.72-98.53-1.41-11.14-7.26-21.13-11.8-31.4-10.26-23.18-13.97-50.36-4.55-73.89,8.58-21.43,23.68-37.48,38.21-55.42s19.63-35.67,21.35-63.39c-.2,26.78-.26,54.36,9.73,79.21,7.59,18.88,21.05,37.24,17.98,57.35-2.7,17.71-17.7,31.17-22.75,48.36-6.28,21.4,3.78,43.71,11.95,64.46s5.99,43.84,1.26,64.06c13.27-24.41,39.26-46.46,38.7-75.4-.3-15.58-12.6-28.54-15.05-43.92-4.94-30.97,30.55-57.57,25.91-88.58,15.12,18.01,22.11,42.6,18.73,65.87-.84,5.76-2.27,11.7-.64,17.29,1.81,6.23,7.03,10.73,11.46,15.47,22.53,24.13,26.97,63.29,10.42,91.85,19.03,11.21,45.94,2.2,57.37-16.7,11.43-18.9,8.48-44.36-4.02-62.56-13.89-20.23-38.64-34.06-43.85-58.04-3.47-15.98,2.91-32.45,2.3-48.78-1.38-36.45-35.38-61.86-66.02-81.65,36.41,4.36,79.5,13.63,92.86,47.78,9.43,24.1.44,54.49,16.34,74.9,13.21,16.96,38.56,19.78,53.27,35.46,25.39,27.06,5.77,73.47,21.79,106.94-5.17-21.87,19.18-39.12,25.23-60.76,9.23-32.98-25.46-62.62-28.11-96.77-3.49-45.07,46.77-74.26,65.27-115.5,12.18-27.14,9.86-58.29,7.31-87.93,42.95,43.12,49.06,117.89,13.68,167.41,15.16-12.05,34.48-17.31,51.57-26.43,17.08-9.12,33.28-24.93,32.81-44.29,12.46,31.99,10.89,69.17-4.24,99.99,16.35-3.21,31.98-10.03,45.46-19.83,6.74,12.99,6.86,29.21.32,42.3-6.12,12.25-17.97,24.94-12.35,37.43,6,13.32,25.2,11.65,39.29,7.77,6.51-1.79,13.47-3.87,17.63-9.18,6.97-8.89,2.62-22.21-4.38-31.07-7-8.86-16.48-16.09-20.83-26.51-12.15-29.11,20.67-67.98-.59-91.28,30.9,14.67,54.55,43.81,62.53,77.07,2.19,9.13,3.34,18.73,8.04,26.86,6.51,11.26,18.8,17.93,26.69,28.27,17.54,22.99,8.91,55.73-.47,83.09-6.57,19.16-13.14,38.33-19.71,57.49"/><path class="cls-14" d="M1066.1,881.89c24.37,2.65,47.71-14.99,57.73-37.36s8.96-48.22,3.88-72.2c-2.97-14.02-7.25-28.42-4.17-42.41,3.98-18.08,19.12-31.1,31.13-45.19,22.82-26.74,31.95-61.19,37.1-96.57,1.31,51.67,26.28,100.49,26.92,153.62.35,29.24-13.82,56.8-16.48,85.92-2.67,29.12,14.4,64.93,43.63,63.97-14.26-26.54,9.31-56.55,28.29-79.95,18.97-23.4,32.17-63.48,6.43-79.14,32.73.23,60.31,35.52,52.63,67.34-2.62,10.86-8.56,20.86-9.86,31.96-3.07,26.28,19.73,47.64,40.4,64.16-13.01-32.01,33.21-61.48,29.62-95.84-1.86-17.84-16.85-31.59-21.75-48.85-13.43-47.38,52.12-89.27,41.47-137.36-5.74,44.04,19.68,85.26,33.03,127.62,15.1,47.92,14.66,100.61-1.24,148.27,9.92-24.22,58.69-5.17,67.51-29.81,4.98-13.92-9.54-28.33-7.24-42.94,1.83-11.61,13.33-18.81,19.84-28.6,12.93-19.42,4.37-46.19-9.64-64.84-14.01-18.65-33.05-33.64-43.87-54.3-23.96-45.77-.47-100.98,22.86-147.07-22.9,52.64,55.23,101.47,49.95,158.64,28.54-10.06,22.14-51.08,25.91-81.1,4.12-32.85,26.48-60.08,47.93-85.31,22.38,33.94,25.86,79.52,8.91,116.46-4.82,10.51-11.31,20.92-11.16,32.48.15,11.56,6.15,39.32,10.3,55.45-5.93-43.43,61.31-92,59.82-157.98,27.63,23.36,6.73,68.28,12.78,103.96,2.34,13.77,9.02,26.59,10.57,40.47,3.5,31.39-19.14,58.71-35.32,85.84-16.18,27.13-24.33,67.22.82,86.32,41.3-23.84,62.3-73.39,64.41-121.04,2.11-47.64-36.86-77.5-25.33-140.09,43.97,149.09,65.38,110.3,73.07,201.31-1.5-41.37,26.18-37.32,33.28-78.1,7.68-44.09,29.51-95.62,74-100.43-19.51,20.22-26.59,51.56-17.68,78.2,2.72,8.13,6.86,16.2,6.18,24.74-1.75,22.01-33.87,40.5-21.64,58.89,21.53-.73,40.16-21.8,38.25-43.27,11.85-9.5,24.01,11.71,24.61,26.89,4.96,123.58,9.91,247.16,14.87,370.74,1.01,25.08.26,54.19-19.49,69.68-11.8,9.25-27.61,11.09-42.54,12.5-241.31,22.74-484.31,21.98-726.5,12.29-209.74-8.4-419.39-23.48-629.28-20.99-167.76,1.99-335.7,15.22-503.11,4.23-18.79-1.23-38.76-3.21-53.62-14.78-21.24-16.54-25.09-46.76-25.62-73.68-1.67-85.44,17.01-155.9,47.61-235.7"/><path class="cls-34" d="M1880.95,884.93c-6.65-18.6-32.01-25.7-50.48-36.93-22.14-13.45-36.4-36.06-37.43-59.37s11.17-46.79,32.05-61.66c-23.66-1.18-46.68,10.84-59.55,27.96-12.88,17.12-16.45,38.56-13.51,58.8,1.99,13.66,5.32,30.54-7.67,38.58-12.9,7.98-32.57-1.63-36.79-14.81-4.23-13.18,2.41-27.12,10.7-38.79,8.29-11.67,18.53-22.7,22.6-35.92,7.81-25.37-8.84-51.2-26.16-72.8-17.32-21.6-36.86-44.72-35.52-70.94-3.75,26.7-7.36,54.55,3.19,79.87,5.67,13.6,15.46,27.21,12.23,41.39-2.65,11.62-13.41,20.33-21.51,29.89-20.41,24.08-24.58,57.66-10.52,84.9-21.83-31.8-13.15-81.63-37.34-115.94-15.05-21.35-46.36-30.07-52.21-61.42-14.36,24.89,13.22,77.58,12.27,90.88-21.26-6.1-37.61-32.79-48.91-49.45-5.34,22.38-9.51,48.68,8.57,65.41,6.6,6.1,15.53,10.12,21.77,16.49,10.57,10.79,11.53,26.7,6.59,40.16-4.94,13.46-14.92,25.04-24.73,36.35-2.55-17.1-11.37-33.47-24.88-46.2-8.76-8.26-19.4-15-27.42-23.79-18.15-19.89-20.25-48.29-10.53-72.16,9.72-23.87,29.81-43.68,52.38-59.88-55.4,7.77-98.12,57.29-90.74,105.18,1.83,11.89,6.31,23.52,6.36,35.51.08,19.8-11.79,37.99-23.31,55.12,6.61-28.4-31.05-53.32-26.83-82.06,1.36-9.28,7.03-17.6,11.42-26.16,9.93-19.31,13.52-41.94,4.4-61.54-8.3-17.85-22.92-31.22-36.98-46.16-14.06-14.94-19-29.71-20.67-52.8.19,22.3.25,45.27-9.41,65.97-7.34,15.72-20.37,31.01-17.4,47.76,2.62,14.75,17.14,25.96,22.01,40.27,6.07,17.82-3.66,36.41-11.56,53.69-7.9,17.28-5.8,36.51-1.22,53.35-12.84-20.33-38-38.7-37.45-62.79.29-12.97,12.19-23.77,14.57-36.58,4.79-25.79-29.57-47.95-25.07-73.78-14.64,15-21.4,35.48-18.12,54.86.81,4.79,2.19,9.75.62,14.4-1.75,5.19-6.81,8.94-11.09,12.89-21.8,20.1-26.1,52.71-10.09,76.5-18.42,9.34-44.46,1.83-55.52-13.91-11.06-15.74-8.21-36.94,3.89-52.11,13.44-16.85,37.4-28.36,42.44-48.33,3.36-13.31-2.82-27.02-2.22-40.63,1.33-30.35,34.25-51.52,63.89-68-35.24,3.64-76.94,11.35-89.87,39.79-9.12,20.07-.42,45.38-15.81,62.38-12.79,14.13-37.32,16.47-51.56,29.53-24.58,22.53-5.59,61.19-21.09,89.07,5-18.21-18.56-32.58-24.42-50.6-8.93-27.47,24.64-52.15,27.2-80.59,3.37-37.54-45.26-61.85-63.17-96.2-11.79-22.61-9.54-48.54-7.07-73.23-41.57,35.92-47.48,98.18-13.24,139.43-14.67-10.03-33.37-14.42-49.91-22.01-16.53-7.59-32.21-20.76-31.76-36.88-12.06,26.64-10.54,57.61,4.1,83.28-15.82-2.67-30.95-8.35-44-16.51-6.52,10.82-6.64,24.33-.31,35.23,5.92,10.2,17.39,20.78,11.95,31.17-5.81,11.1-24.39,9.7-38.03,6.47-6.3-1.49-13.04-3.22-17.06-7.65-6.74-7.41-2.54-18.49,4.24-25.88,6.78-7.38,15.95-13.4,20.16-22.08,11.76-24.25-20.01-56.62.58-76.02-29.91,12.22-52.79,36.49-60.52,64.19-2.12,7.6-3.24,15.6-7.78,22.37-6.3,9.38-18.2,14.93-25.83,23.55-16.98,19.14-8.62,46.42.46,69.2,6.36,15.96,12.72,31.92,19.08,47.88"/><path class="cls-34" d="M835.9,862.43c-23.58,2.21-46.17-12.48-55.88-31.11-9.7-18.63-8.67-40.16-3.75-60.13,2.87-11.67,7.02-23.67,4.04-35.32-3.85-15.06-18.5-25.91-30.13-37.63-22.09-22.27-30.92-50.96-35.91-80.43-1.27,43.03-25.43,83.69-26.05,127.94-.34,24.35,13.37,47.31,15.95,71.56,2.58,24.25-13.94,54.08-42.22,53.28,13.8-22.11-9.01-47.1-27.38-66.59s-31.14-52.87-6.23-65.91c-31.68.19-58.37,29.58-50.94,56.08,2.54,9.04,8.29,17.38,9.54,26.62,2.98,21.89-19.09,39.68-39.1,53.43,12.59-26.66-32.14-51.2-28.67-79.82,1.8-14.86,16.31-26.31,21.05-40.68,13-39.46-50.45-74.35-40.14-114.4,5.55,36.68-19.05,71.01-31.97,106.28-14.61,39.91-14.19,83.79,1.2,123.49-9.6-20.17-56.8-4.3-65.34-24.83-4.82-11.6,9.23-23.59,7.01-35.76-1.77-9.67-12.9-15.67-19.2-23.82-12.51-16.17-4.23-38.47,9.33-54,13.56-15.53,31.99-28.02,42.46-45.23,23.19-38.12.46-84.1-22.13-122.49,22.16,43.85-53.45,84.51-48.34,132.12-27.62-8.38-21.43-42.54-25.08-67.55-3.99-27.36-25.63-50.04-46.38-71.05-21.66,28.26-25.03,66.22-8.62,96.99,4.67,8.75,10.95,17.42,10.8,27.05-.14,9.63-5.95,32.75-9.97,46.18,5.74-36.17-59.34-76.62-57.9-131.58-26.74,19.46-6.51,56.87-12.37,86.58-2.26,11.46-8.73,22.15-10.23,33.7-3.38,26.15,18.53,48.9,34.19,71.49,15.66,22.59,23.55,55.98-.8,71.89-39.98-19.86-60.3-61.13-62.34-100.81-2.04-39.68,35.68-64.55,24.51-116.68-42.56,124.17-63.28,91.86-70.72,167.66,1.45-34.46-25.33-31.08-32.21-65.05-7.43-36.72-28.56-79.64-71.62-83.64,18.88,16.84,25.74,42.94,17.11,65.13-2.63,6.77-6.63,13.49-5.98,20.6,1.69,18.33,32.78,33.73,20.94,49.04-20.84-.61-38.87-18.16-37.02-36.03-11.47-7.91-23.23,9.75-23.82,22.39-4.8,102.92-9.59,205.85-14.39,308.77-.97,20.89-.25,45.13,18.86,58.03,11.42,7.71,26.72,9.24,41.17,10.41,233.55,18.94,468.73,18.31,703.13,10.23,202.99-6.99,405.9-19.56,609.04-17.48,162.36,1.66,324.9,12.67,486.93,3.52,18.19-1.03,37.51-2.68,51.89-12.31,20.56-13.78,24.29-38.94,24.8-61.36,1.62-71.16-16.46-129.84-46.08-196.3"/><path class="cls-8" d="M-17.82,960.52c6.83-18.6,32.87-25.7,51.84-36.93,22.74-13.45,37.38-36.06,38.45-59.37,1.06-23.31-11.47-46.79-32.92-61.66,24.3-1.18,47.94,10.84,61.16,27.96,13.22,17.12,16.89,38.56,13.87,58.8-2.04,13.66-5.46,30.54,7.88,38.58,13.25,7.98,33.45-1.63,37.79-14.81,4.34-13.18-2.48-27.12-10.99-38.79-8.51-11.67-19.03-22.7-23.22-35.92-8.02-25.37,9.08-51.2,26.87-72.8,17.79-21.6,37.85-44.72,36.48-70.94,3.85,26.7,7.55,54.55-3.28,79.87-5.82,13.6-15.88,27.21-12.57,41.39,2.72,11.62,13.77,20.33,22.1,29.89,20.97,24.08,25.24,57.66,10.81,84.9,22.42-31.8,13.5-81.63,38.35-115.94,15.46-21.35,47.61-30.07,53.62-61.42,14.75,24.89-13.58,77.58-12.6,90.88,21.84-6.1,38.63-32.79,50.23-49.45,5.48,22.38,9.77,48.68-8.81,65.41-6.78,6.1-15.95,10.12-22.36,16.49-10.85,10.79-11.84,26.7-6.77,40.16,5.07,13.46,15.33,25.04,25.4,36.35,2.62-17.1,11.67-33.47,25.55-46.2,9-8.26,19.92-15,28.16-23.79,18.64-19.89,20.8-48.29,10.82-72.16-9.98-23.87-30.61-43.68-53.8-59.88,56.9,7.77,100.78,57.29,93.2,105.18-1.88,11.89-6.48,23.52-6.53,35.51-.08,19.8,12.11,37.99,23.95,55.12-6.79-28.4,31.89-53.32,27.55-82.06-1.4-9.28-7.22-17.6-11.73-26.16-10.19-19.31-13.89-41.94-4.52-61.54,8.53-17.85,23.54-31.22,37.98-46.16,14.44-14.94,19.51-29.71,21.22-52.8-.2,22.3-.26,45.27,9.67,65.97,7.54,15.72,20.92,31.01,17.87,47.76-2.69,14.75-17.6,25.96-22.61,40.27-6.24,17.82,3.76,36.41,11.87,53.69,8.11,17.28,5.96,36.51,1.25,53.35,13.19-20.33,39.02-38.7,38.46-62.79-.3-12.97-12.52-23.77-14.96-36.58-4.91-25.79,30.37-47.95,25.75-73.78,15.03,15,21.98,35.48,18.61,54.86-.83,4.79-2.25,9.75-.64,14.4,1.8,5.19,6.99,8.94,11.39,12.89,22.39,20.1,26.81,52.71,10.36,76.5,18.92,9.34,45.66,1.83,57.02-13.91,11.36-15.74,8.43-36.94-4-52.11-13.81-16.85-38.41-28.36-43.58-48.33-3.45-13.31,2.9-27.02,2.28-40.63-1.37-30.35-35.17-51.52-65.62-68,36.19,3.64,79.02,11.35,92.3,39.79,9.37,20.07.43,45.38,16.24,62.38,13.13,14.13,38.33,16.47,52.95,29.53,25.24,22.53,5.74,61.19,21.66,89.07-5.14-18.21,19.07-32.58,25.08-50.6,9.17-27.47-25.31-52.15-27.94-80.59-3.47-37.54,46.49-61.85,64.88-96.2,12.1-22.61,9.8-48.54,7.26-73.23,42.7,35.92,48.77,98.18,13.6,139.43,15.07-10.03,34.28-14.42,51.26-22.01s33.08-20.76,32.62-36.88c12.39,26.64,10.82,57.61-4.21,83.28,16.25-2.67,31.79-8.35,45.18-16.51,6.7,10.82,6.82,24.33.32,35.23-6.08,10.2-17.86,20.78-12.27,31.17,5.97,11.1,25.05,9.7,39.06,6.47,6.47-1.49,13.39-3.22,17.53-7.65,6.92-7.41,2.61-18.49-4.35-25.88-6.96-7.38-16.38-13.4-20.71-22.08-12.08-24.25,20.55-56.62-.59-76.02,30.72,12.22,54.22,36.49,62.16,64.19,2.18,7.6,3.32,15.6,7.99,22.37,6.47,9.38,18.69,14.93,26.53,23.55,17.44,19.14,8.85,46.42-.47,69.2-6.53,15.96-13.06,31.92-19.59,47.88"/><path class="cls-8" d="M1055.5,938.02c24.22,2.21,47.42-12.48,57.39-31.11,9.96-18.63,8.9-40.16,3.85-60.13-2.95-11.67-7.21-23.67-4.15-35.32,3.95-15.06,19-25.91,30.95-37.63,22.68-22.27,31.76-50.96,36.88-80.43,1.3,43.03,26.12,83.69,26.76,127.94.35,24.35-13.73,47.31-16.39,71.56-2.65,24.25,14.32,54.08,43.37,53.28-14.17-22.11,9.26-47.1,28.12-66.59,18.86-19.49,31.98-52.87,6.39-65.91,32.54.19,59.95,29.58,52.31,56.08-2.61,9.04-8.51,17.38-9.8,26.62-3.06,21.89,19.61,39.68,40.15,53.43-12.93-26.66,33.01-51.2,29.44-79.82-1.85-14.86-16.75-26.31-21.61-40.68-13.35-39.46,51.81-74.35,41.22-114.4-5.7,36.68,19.57,71.01,32.83,106.28,15.01,39.91,14.57,83.79-1.23,123.49,9.86-20.17,58.34-4.3,67.1-24.83,4.95-11.6-9.48-23.59-7.19-35.76,1.82-9.67,13.25-15.67,19.72-23.82,12.85-16.17,4.34-38.47-9.58-54-13.93-15.53-32.85-28.02-43.6-45.23-23.81-38.12-.47-84.1,22.73-122.49-22.76,43.85,54.9,84.51,49.65,132.12,28.37-8.38,22.01-42.54,25.75-67.55,4.1-27.36,26.32-50.04,47.64-71.05,22.24,28.26,25.71,66.22,8.85,96.99-4.79,8.75-11.24,17.42-11.09,27.05.15,9.63,6.11,32.75,10.24,46.18-5.9-36.17,60.94-76.62,59.46-131.58,27.47,19.46,6.69,56.87,12.71,86.58,2.32,11.46,8.97,22.15,10.51,33.7,3.48,26.15-19.03,48.9-35.11,71.49-16.08,22.59-24.19,55.98.82,71.89,41.06-19.86,61.93-61.13,64.02-100.81,2.09-39.68-36.64-64.55-25.18-116.68,43.71,124.17,64.99,91.86,72.63,167.66-1.49-34.46,26.02-31.08,33.08-65.05,7.63-36.72,29.33-79.64,73.56-83.64-19.39,16.84-26.43,42.94-17.57,65.13,2.7,6.77,6.81,13.49,6.14,20.6-1.74,18.33-33.66,33.73-21.51,49.04,21.4-.61,39.92-18.16,38.02-36.03,11.78-7.91,23.86,9.75,24.47,22.39,4.93,102.92,9.85,205.85,14.78,308.77,1,20.89.26,45.13-19.37,58.03-11.73,7.71-27.45,9.24-42.28,10.41-239.87,18.94-481.4,18.31-722.14,10.23-208.48-6.99-416.87-19.56-625.51-17.48-166.75,1.66-333.68,12.67-500.09,3.52-18.68-1.03-38.52-2.68-53.3-12.31-21.12-13.78-24.94-38.94-25.47-61.36-1.66-71.16,16.91-129.84,47.33-196.3"/><path class="cls-36" d="M55.58,275.65c-12.54-17.11-22.38-37.6-13.34-56.79,9.04-19.19,30.98-30.69,52.17-29.68,21.19,1.01,40.97,13.36,53.43,30.53-.26-27.34,19.61-54.42,46.46-59.63,26.84-5.21,56.77,14.78,59.7,41.96,12.12-16.49,31.64-29.96,51.85-26.73s35.07,29.98,21.83,45.59c13.34-3.21,27.85-4.03,40.39,1.52,12.55,5.55,22.37,18.76,20.65,32.37-1.91,15.05-16.2,25.21-30.01,31.49-37.21,16.91-79.14,19.51-119.99,20.74-30.72.92-61.46,1.22-92.19.89-33.56-.36-72.43-4.28-90.95-32.26"/><path class="cls-13" d="M1271.11,130.39c-10.35-9.49-28.38-8.75-37.92,1.56-4.36,4.71-6.97,11.33-5.78,17.64s6.75,11.85,13.16,11.96c-13.7,2.76-29.37,13.1-26.3,26.74,2.83,12.58,18.82,16.14,31.69,16.87,72.84,4.12,145.84-1.51,218.58-7.14,6.16-.48,12.57-1.03,17.88-4.18s9.13-9.74,7.07-15.57c-2.21-6.24-9.68-8.72-16.26-9.35-9.57-.92-19.33.3-28.37,3.57,11.95-8.41,9.38-29.16-2.94-36.99-12.33-7.84-29.64-3.88-40.14,6.28,11.09-14.42-1.89-38.01-19.89-40.6s-35.34,11.01-42.46,27.75c-18.44-37.38-50.23-35.22-68.31,1.48"/><path class="cls-1" d="M365.23,137.12c-19.75-18.62-55.76-15.18-71.62,6.84s-7.72,57.27,16.21,70.1c13.8,7.4,30.18,7.59,45.84,7.61,86.72.11,173.45.21,260.17.32,14.34.02,28.97,0,42.58-4.51,27.47-9.09,44.62-23.71,43.39-52.63-.18-4.3.71-10.62-6.39-21.43-4.48-6.82-17.3-11.04-23.4-11.53-23.04-1.84-34.06,9.38-46.81,28.66,6.38-35.65-31.97-66.03-68.17-67.16-10.66-.33-21.85,1.23-30.56,7.39s-14.11,17.86-10.46,27.88c-5.16-19.01-14.89-36.77-28.15-51.34-12.49-13.72-29.74-16.89-39.66-15.21-18.29,3.09-29.08,15.71-28.97,34.42-14.68-11.61-35.35-18.79-52.12-10.48-16.77,8.31-11.73,38.67-1.87,51.07"/><path class="cls-36" d="M1497.6,182.62c-13.8-11.96-14.43-16-28.92-18.53-10.19-1.78-22.31-.09-33,10.02-9.37,8.85-12.98,24.46-14.04,33.34-2.6,21.67,1.82,32.89,17.16,48.42,15,15.19,38.67,16.54,60.01,16.88,87.48,1.39,174.98,1.71,262.47,2.03,16.11.06,33.11-.11,46.98-8.31,25.56-15.11,27.44-57.86,3.17-74.97-21.81-15.37-52.61-8.12-75.2,6.07,9.53-17.14,13.77-37.83,8.44-56.7-5.34-18.87-21.34-35.13-40.77-37.78-19.43-2.65-40.59,10.72-43.91,30.04-1.18-26.1-26.74-48.49-52.76-46.23-26.02,2.26-47.34,28.73-43.99,54.64-.3-25.22-35.15-40.14-56.16-26.18-21.01,13.96-23.89,46.55-9.47,67.25"/><polygon class="cls-2" points="1341.6 220.81 1271.37 360.12 1311.66 366.26 1257.83 492.93 1351.96 350.37 1305.14 343.25 1341.6 220.81"/><polygon class="cls-2" points="1543.27 284.8 1580.46 394.01 1549.19 394.01 1575.39 492.2 1520.46 377.98 1556.79 377.98 1543.27 284.8"/><path class="cls-19" d="M1210.37,378.55s101.65,39.81,244.65,0c143-39.81,227.42,0,227.42,0v304.14s-110.27-44.59-236.04,0c-125.77,44.59-236.04,0-236.04,0v-304.14Z"/><path class="cls-10" d="M1401.72,390.26v125.23s-70.75,30.26-191.35,0v41.4s110.48,33.44,191.35,0v138.28l22.58-5.48,22.11-7v-133.76s105.1-60.21,236.04-6.22v-44.74s-98.21-46.18-236.04,4.78v-121.89l-44.69,9.4Z"/><ellipse class="cls-23" cx="1355.17" cy="515.38" rx="45.62" ry="54.25"/><ellipse class="cls-4" cx="1364.48" cy="517.02" rx="29.21" ry="23.53"/><ellipse class="cls-30" cx="1358.08" cy="514.23" rx="21.42" ry="13.66"/><ellipse class="cls-23" cx="1355.17" cy="514.27" rx="13.88" ry="9.56"/><path class="cls-39" d="M1314.27,540.92s34.01,14.82,84.31,0c0,0-7.82,28.25-42.15,28.78s-42.15-28.78-42.15-28.78Z"/><path class="cls-10" d="M1422.74,539.99s-26.22,9.32-40.34-4.66c-14.12-13.98-26.22,7.7-26.22,7.7,0,0-7.06,23.99,16.13,25.85,23.19,1.86,42.35,0,42.35,0l8.07-28.89Z"/><ellipse class="cls-23" cx="1434.58" cy="522.24" rx="45.62" ry="54.25"/><ellipse class="cls-4" cx="1439.15" cy="522.24" rx="31.95" ry="28.29"/><ellipse class="cls-30" cx="1439.15" cy="519.55" rx="23.1" ry="16.23"/><ellipse class="cls-23" cx="1435.95" cy="522.24" rx="14.56" ry="8.97" transform="translate(-22.3 65.97) rotate(-2.61)"/><path class="cls-39" d="M1394.53,547.82s32.44,14.76,80.44,0c0,0-7.46,28.14-40.22,28.67-32.76.53-40.22-28.67-40.22-28.67Z"/><path class="cls-9" d="M1391.12,502.41s34.37,12.43,85.4-.92c0,0-4.78-31.45-41.99-33.53-37.22-2.08-43.4,34.45-43.4,34.45Z"/><path class="cls-9" d="M1311.77,496.33s34.4,13.48,85.48-.35c0,0-6.26-34.52-42.03-34.74-37.36-.23-43.45,35.09-43.45,35.09Z"/><path class="cls-27" d="M1436.7,638.75c11.56,61.85-26.45,13.94-54.39,13.94s-54.66,41.24-46.79-13.94c13.56-95.05,20.42-29.89,48.36-29.89,27.94,0,35.19-64.49,52.83,29.89Z"/><path class="cls-16" d="M1431.08,674.4c-5.94,0-13.2-3.74-21.25-7.88-8.95-4.6-19.09-9.82-27.52-9.82s-17.64,4.64-25.49,8.74c-8.62,4.5-16.07,8.39-21.66,4.43-5.24-3.71-6.28-12.88-3.6-31.68,6.19-43.43,10.88-52.75,17.34-54.76,5.72-1.78,10.42,3.33,15.4,8.74,5.48,5.95,11.7,12.7,19.57,12.7s13.95-6.46,19.47-12.16c5.4-5.58,10.51-10.85,16.73-8.98,9.23,2.78,14.53,22.01,20.56,54.29,3.69,19.73,2.77,30-3.06,34.34-1.92,1.43-4.1,2.04-6.49,2.04ZM1382.3,648.7c10.37,0,21.43,5.69,31.18,10.71,7.4,3.81,16.62,8.54,19.3,6.54,1.01-.75,4-4.89-.03-26.46h0c-3.31-17.69-6.32-30.18-9.21-38.18-3.16-8.73-5.38-9.79-5.79-9.92-1.56-.47-5.84,3.96-8.68,6.88-6.29,6.5-14.13,14.59-25.22,14.59s-19.52-8.83-25.45-15.28c-2.31-2.51-5.79-6.29-7.18-6.5-.33.2-2.18,1.65-4.63,10.2-2.29,8-4.62,20.44-7.13,38.03-2.93,20.58-.26,23.62.3,24.02,1.6,1.13,8.67-2.55,13.34-4.99,8.23-4.3,18.48-9.64,29.19-9.64Z"/><path class="cls-23" d="M1357.72,605.38c-1.07,1.69-2.14,3.39-3.21,5.08-.68,1.08-1.38,2.36-.83,3.49.41.85,1.42,1.36,2.37,1.79.92.41,1.85.8,2.78,1.2.18.08.4.15.57.06.11-.06.16-.16.21-.26.97-2.05,1.95-4.1,2.92-6.16.07-.15.14-.3.14-.46,0-.28-.23-.52-.44-.73-1.43-1.43-2.86-2.86-4.29-4.3"/><path class="cls-23" d="M1356.42,604.62c-.66,1.04-1.32,2.08-1.97,3.12-.61.96-1.29,1.91-1.8,2.93s-.89,2.31-.5,3.49c.38,1.12,1.28,1.92,2.3,2.46s2.15.98,3.23,1.44c.51.22,1.02.49,1.59.47.83-.02,1.4-.56,1.74-1.26.55-1.13,1.08-2.26,1.61-3.4l.71-1.49c.29-.61.69-1.25.8-1.92.25-1.5-1.21-2.53-2.15-3.47-.99-.99-1.98-1.98-2.97-2.97-1.37-1.37-3.49.75-2.12,2.12.82.83,1.65,1.65,2.47,2.48.38.39.77.77,1.15,1.16.2.2.42.52.66.66.13.14.17.18.11.11.07-.76.04-.97-.09-.63-.33.44-.52,1.09-.76,1.59l-.71,1.49-.71,1.49-.4.85-.2.42c-.12.22-.14.28-.07.17l.66-.39c.19-.06.46.11.22-.06-.14-.1-.38-.16-.54-.23-.24-.1-.48-.2-.71-.3-.59-.25-1.19-.5-1.76-.79-.43-.21-.82-.41-1.1-.73-.15-.17-.17-.43-.07-.76.32-1.08,1.15-2.08,1.74-3.02.74-1.17,1.48-2.34,2.22-3.52,1.03-1.64-1.56-3.14-2.59-1.51h0Z"/><path class="cls-23" d="M1369.5,614.91c-.69,1.91-1.38,3.82-2.07,5.74-.1.27-.19.57-.03.82.1.16.3.27.49.37,1.44.74,2.94,1.38,4.44,2.02,1.3.56,2.63,1.12,4.06,1.3.11.01.24.02.33-.05.06-.05.08-.12.09-.2.44-2.05.8-4.12,1.07-6.19.02-.19.04-.4-.11-.53-.1-.09-.24-.12-.38-.15-2.81-.66-5.47-1.77-7.8-3.28"/><path class="cls-23" d="M1368.05,614.51c-.44,1.21-.87,2.42-1.31,3.63l-.62,1.72c-.27.76-.47,1.53-.05,2.28.34.61.91.91,1.51,1.21s1.16.56,1.75.82c1.2.54,2.41,1.07,3.62,1.56,1.09.44,2.36.94,3.55.94,1.74,0,1.87-1.85,2.11-3.14s.45-2.53.63-3.8c.1-.72.3-1.5-.09-2.18-.43-.73-1.15-.9-1.91-1.09-2.48-.64-4.73-1.61-6.9-2.99-.68-.44-1.66-.14-2.05.54-.42.72-.15,1.61.54,2.05,1.32.85,2.71,1.54,4.16,2.14.69.28,1.39.54,2.1.76.36.11.72.22,1.08.31.18.05.36.1.55.14.09.02.18.04.27.07.18.05.18.05.02,0l-.54-.54s-.06-.42-.07-.42c.02,0-.05.36-.06.4-.04.27-.08.53-.12.8-.09.57-.18,1.13-.28,1.7-.09.53-.19,1.06-.29,1.6-.05.27-.1.53-.16.8-.03.13-.05.27-.08.4-.01.07-.03.13-.04.2-.04.15-.03.13.04-.06l.54-.54-.1.05.76-.2c-.15,0-.15.01-.02.03l-.19-.03c-.22-.04-.43-.08-.64-.13-.36-.09-.72-.2-1.07-.32-.71-.25-1.33-.51-2-.8-.75-.32-1.5-.65-2.24-.98-.37-.17-.74-.34-1.1-.52-.21-.1-.42-.21-.63-.32-.08-.04-.15-.08-.23-.12.03.05.07.08.13.09l.2.76c0-.05.01-.23,0-.1.02-.12.08-.24.12-.36.09-.26.18-.51.28-.76l.59-1.63c.38-1.05.76-2.1,1.14-3.15.27-.76-.31-1.64-1.05-1.85-.83-.23-1.57.28-1.85,1.05h0Z"/><path class="cls-23" d="M1389.78,617.51c.32,2.23.77,4.44,1.33,6.63.07.27.16.56.44.7.16.08.35.09.54.09,1.85,0,3.61-.67,5.3-1.33,1.7-.66,3.39-1.33,5.09-1.99.15-1.34-.43-2.66-1-3.92-.49-1.1-.99-2.19-1.48-3.29-.06-.13-.13-.27-.27-.31-.13-.05-.29,0-.42.05-3.01,1.08-6.01,2.15-9.02,3.23"/><path class="cls-23" d="M1388.33,617.91c.26,1.75.58,3.49.98,5.22.2.84.32,1.87.92,2.54.66.74,1.61.81,2.54.73,1.75-.14,3.38-.72,5-1.35s3.39-1.33,5.09-1.99c.67-.26,1.04-.73,1.1-1.45.14-1.74-.6-3.35-1.3-4.9-.33-.73-.66-1.46-.99-2.19-.38-.85-.72-1.74-1.76-1.91-.87-.14-1.76.34-2.56.63s-1.66.59-2.49.89c-1.66.59-3.32,1.19-4.98,1.78-.76.27-1.27,1.02-1.05,1.85.2.74,1.08,1.32,1.85,1.05,1.54-.55,3.08-1.1,4.63-1.66.75-.27,1.5-.54,2.25-.81.4-.14.79-.28,1.19-.42.28-.1.69-.35.97-.34l-.76-.2c-.28-.31-.34-.31-.16,0,.07.15.13.29.2.44.13.29.26.58.39.88.26.58.53,1.17.79,1.75.45,1.01.88,2.03.79,3.16l1.1-1.45c-1.46.57-2.93,1.15-4.39,1.72-1.36.53-2.73,1.11-4.17,1.41-.28.06-.56.1-.85.12-.07,0-.57,0-.58.02,0,0,.52.47.51.47.06-.05-.26-1.01-.28-1.1-.09-.35-.17-.71-.25-1.06-.34-1.53-.62-3.08-.85-4.63-.12-.8-1.13-1.24-1.85-1.05-.86.24-1.17,1.04-1.05,1.85h0Z"/><path class="cls-23" d="M1407.19,608.05c.26,1.16.52,2.32.79,3.48.32,1.4.65,2.84,1.58,4.01.12.15.26.3.45.38.41.16.87-.08,1.23-.32,1.51-.97,3.03-1.94,4.54-2.91.29-.19.61-.4.69-.71.06-.21,0-.44-.07-.65-.79-2.52-1.9-4.97-3.29-7.3-.16-.26-.4-.57-.74-.55-.18,0-.34.11-.49.21-1.7,1.18-3.16,2.62-4.28,4.23"/><path class="cls-23" d="M1405.75,608.45c.29,1.29.58,2.59.88,3.88.27,1.16.61,2.33,1.22,3.36.33.56.74,1.15,1.32,1.48.74.43,1.58.35,2.33,0,1.19-.54,2.29-1.42,3.4-2.12,1.02-.66,2.63-1.33,3-2.59s-.43-2.75-.88-3.88c-.49-1.22-1.03-2.42-1.64-3.58-.55-1.05-1.18-2.61-2.44-2.94-1.49-.38-2.93,1.12-3.94,2.03s-1.9,1.97-2.69,3.09c-.47.66-.12,1.67.54,2.05.75.44,1.58.13,2.05-.54.92-1.31,2.09-2.51,3.39-3.45.1-.07.46-.24.5-.34-.11.3-1.09-.64-1.01-.17.01.08.12.2.16.27.26.43.5.87.74,1.31.45.84.87,1.71,1.25,2.59.35.82.66,1.67.93,2.52.04.13.05.33.13.43.24.31.11-.59.16-.52,0,0-.24.15-.33.21-.45.29-.89.57-1.34.86-.86.55-1.72,1.1-2.58,1.65-.18.12-.41.22-.57.36,0,0-.17.1-.17.09,0-.02.58.15.59.13,0,.01-.56-.91-.6-1.01-.37-.82-.55-1.74-.75-2.61-.25-1.12-.51-2.25-.76-3.37-.18-.79-1.09-1.26-1.85-1.05-.81.22-1.23,1.05-1.05,1.85h0Z"/><path class="cls-9" d="M1496.62,545.71h.23c.21,0,.4-.04.58-.13.19-.06.35-.16.48-.31.15-.14.25-.3.31-.48.09-.18.14-.37.13-.58l-.05-.4c-.07-.25-.2-.47-.39-.66l-.3-.23c-.23-.14-.49-.2-.76-.2h-.23c-.21,0-.4.04-.58.13-.19.06-.35.16-.48.31-.15.14-.25.3-.31.48-.09.18-.14.37-.13.58l.05.4c.07.25.2.47.39.66l.3.23c.23.14.49.2.76.2h0Z"/><path class="cls-19" d="M1664.67,623.88c8.72-.8,17.43-1.61,26.15-2.41,4.36-.4,8.72-.8,13.08-1.2,4.5-.41,9.76-.26,14-1.91,6.97-2.71,10.55-9.99,9.06-17.19-1.08-5.26-4.03-9.5-7.96-13.11-2.79-2.56-6.09-4.51-9.16-6.72s-6.23-4.77-9.13-7.4c-1.6-1.45-3.16-2.96-4.67-4.51-.75-.78-1.5-1.56-2.23-2.36-.34-.37-.79-.79-1.09-1.21.44.62,1.12,1.32.26.29-2.95-3.54-5.7-7.21-8.2-11.08-3.11-4.79-10.41-6.47-15.12-3.03-4.82,3.52-6.35,10.01-3.03,15.12,7.99,12.32,18.35,23.32,30.43,31.7,2.66,1.84,5.42,3.58,7.78,5.81.3.29,1.35,1.54.4.31-.92-1.19-.1-.12.05.11.2.3.41.68.65.95.77.85-.45-.81-.44-1.03,0,.2.24.74.32.93.44,1.02-.26-1.13-.26-1.14-.22-2.56,1.81-5.38,3.97-6.5.19-.1,1.97-.57,2-.64-.03.06-1.83.18-1.59.15-.9.08-1.8.17-2.71.25l-5.86.54c-3.91.36-7.82.72-11.72,1.08-8.87.82-17.73,1.63-26.6,2.45-5.68.52-10.77,5.77-10.06,11.69.69,5.78,5.61,10.62,11.69,10.06h0Z"/><path class="cls-19" d="M1222.45,489.92c-6.21-6.56-14.07-11.35-21.89-15.74-3.67-2.06-7.37-4.07-10.95-6.28-.86-.54-1.72-1.08-2.57-1.64-.42-.28-.84-.56-1.26-.85s-1.85-.98-.31-.2c1.42.72.3.2-.13-.17-.25-.22-.49-.43-.73-.66.03.03-.84-.94-.92-.94.97,1.28,1.21,1.59.73.92-.19-.25-.36-.52-.52-.79-.4-.6-.65-1.78.37.89-.32-.84.07-1.45.12,1.06,0,.22-.62,2.8-.1,1.11-.19.63-.8,2.58-1.52,2.68.08-.01.94-1.05.92-.96-.07.26-2.16,1.44-.56.48.92-.54,1.81-1.11,2.74-1.63,4.17-2.31,8.36-4.58,12.56-6.82,8.41-4.48,16.9-8.82,25.45-13.02,9.59-4.71,19.27-9.24,29.03-13.6,2.36-1.06,4.35-4.36,4.93-6.74.63-2.6.23-5.98-1.28-8.25s-3.89-4.37-6.74-4.93c-3.03-.6-5.45.03-8.25,1.28-18.85,8.43-37.41,17.5-55.62,27.24-9.72,5.19-23.8,10.55-23.35,23.81.4,11.74,12.01,18.36,21.01,23.5,4.42,2.53,8.93,4.91,13.26,7.59,1.07.66,2.13,1.35,3.18,2.05.52.35,1.03.72,1.55,1.08,1.68,1.16-1.2-.98-.16-.11,2.04,1.71,4.03,3.38,5.86,5.32,3.93,4.15,11.64,4,15.42-.28,4.07-4.59,3.92-10.99-.28-15.42h0Z"/><polygon class="cls-19" points="1304.9 701.71 1311.2 862.03 1322.98 862.62 1339.03 702.51 1304.9 701.71"/><polygon class="cls-19" points="1511.64 665.84 1536.43 859.56 1550.1 857.79 1545.37 662.26 1511.64 665.84"/><path class="cls-15" d="M1221.72,432.33c.72,6.7,1.92,18.89,7.17,21.9,4.2,2.41,9.12.23,13.68-1.19,4.34-1.36,8.41-2.77,12.75-4.12,2.17-.68,4.54-1.09,6.8-1.1,4.59-.02,9.06,3.28,12.96,5.91l23.08,15.53c2.83,1.9,6.64,1.36,8.63-1.5,2.43-3.49-.1-7.68-2.74-10.45-4.75-5-10.41-9-16.55-11.69,1.8-5.64,9.24-5.21,14.58-3.68,6.11,1.75,12.23,3.51,18.34,5.26,5.3,1.52,13.13,1.41,13.46-4.88.18-3.45-2.08-6.5-5.17-7.36l-30.1-8.3c6.54-5.72,15.62-6.89,24-5.91,3.49.41,7.1,1.14,10.38-.75,1.93-1.11,3.25-3.25,3.08-5.62-.38-5.15-7.02-6.17-11.81-5.62-8.87,1.01-17.73,2.02-26.6,3.04,5.37-9.4,19.64-7.87,26.86-14.91,2-1.95,1.62-5.54-.81-6.82-1.17-.62-2.51-.93-3.81-.9-2.92.06-5.65,1.45-8.28,2.81-5.38,2.79-11.15,4.43-16.53,7.22-3.05,1.58-2.94,1.48-6.93,1.76,3.98-2.22,7.48-6.96,11.34-9.42,1.63-1.04,6.31-4.12,4.97-8.11-.51-1.51-1.87-2.49-3.35-2.54-6.43-.23-10.02,3.31-15.51,7-4.19,2.82-7.99,6.27-11.38,10.15-9.03,10.32-23.27,14.72-36.03,11.43-5.39-1.39-12.59-3.29-15.21,1.98-.81,1.62-1.82,3.94-1.86,5.78-.12,5.17-.02,9.42.59,15.11"/><path class="cls-28" d="M1220.22,432.33c.52,4.9,1.03,9.88,2.45,14.61s3.96,9.26,9.38,9.81c3.31.34,6.56-.85,9.66-1.86,3.59-1.18,7.19-2.33,10.79-3.5,3.35-1.09,6.85-2.35,10.42-2.04s6.52,2.39,9.28,4.24c4.8,3.21,9.59,6.46,14.38,9.68l8.47,5.7c2.14,1.44,4.16,2.99,6.92,2.9,3.12-.1,6.02-2.14,6.98-5.15,1.07-3.35-.74-6.76-2.81-9.3-4.62-5.68-11.25-10.16-17.89-13.1l.69,1.69c1.22-3.55,5.44-3.79,8.62-3.47,2.21.23,4.34.9,6.46,1.51,2.82.81,5.64,1.62,8.47,2.43,4.41,1.27,8.95,3.05,13.6,3.02,3.28-.02,7.08-1.03,8.58-4.27,1.81-3.9.01-8.81-3.65-10.92-1.26-.72-2.72-1.03-4.11-1.41-5.16-1.43-10.33-2.85-15.49-4.28-4.14-1.14-8.28-2.28-12.42-3.43l.66,2.51c4.41-3.79,10.15-5.48,15.89-5.74,2.86-.13,5.69.1,8.53.45,3,.37,6.06.57,8.87-.73,4.54-2.1,6.46-8.49,2.32-12-3.71-3.15-9-2.67-13.48-2.16-8.04.92-16.09,1.84-24.13,2.75l1.3,2.26c2.34-3.99,6.58-5.88,10.8-7.3s9.04-2.57,12.99-5.08c1.99-1.27,4.03-2.88,4.46-5.34s-.59-4.87-2.74-6.06c-3-1.67-6.56-1.2-9.62.03s-6,2.95-9.1,4.22c-3.54,1.45-7.14,2.76-10.57,4.46-1.1.55-2.19,1.25-3.39,1.58s-2.42.31-3.62.39l.76,2.8c4.36-2.5,7.29-6.78,11.47-9.51,2.96-1.94,6.32-4.83,5.73-8.77-.86-5.78-7.7-5.05-11.73-3.39-2.2.91-4.17,2.23-6.11,3.6-2.19,1.54-4.43,3.02-6.55,4.66-2.24,1.74-4.36,3.64-6.33,5.69-1.84,1.9-3.51,3.95-5.49,5.71-3.57,3.16-7.82,5.57-12.34,7.04s-9.44,2.05-14.25,1.58c-4.34-.43-8.44-2.14-12.82-2.39-2.18-.12-4.55.16-6.38,1.43-2.01,1.39-3.01,3.71-3.79,5.94-.99,2.82-.78,5.92-.73,8.88.05,3.21.28,6.42.62,9.61.2,1.9,3.2,1.92,3,0-.53-5.02-.95-10.24-.58-15.29.14-1.88,1.06-4.35,2.25-5.83,1.06-1.31,2.75-1.71,4.36-1.76,3.93-.11,7.64,1.43,11.47,2.06,4.43.73,8.93.65,13.34-.22s8.43-2.45,12.17-4.68c4.05-2.42,7.22-5.58,10.4-9.01,3.57-3.84,7.59-6.89,11.85-9.9,3.6-2.54,7.21-5.27,11.81-5.34,1.19-.02,2.26.22,2.74,1.45.35.9.16,1.84-.27,2.67-.81,1.53-2.3,2.63-3.72,3.57-4.22,2.78-7.24,7.09-11.62,9.61-1.24.71-.76,2.9.76,2.8,1.99-.14,3.93-.19,5.77-1.01,2.65-1.18,5.2-2.55,7.89-3.64,2.97-1.2,5.98-2.33,8.88-3.71s5.58-3.19,8.75-3.41c2.28-.16,5.32.83,4.79,3.65-.35,1.89-2.76,3.16-4.31,3.99-3.82,2.05-8.12,2.98-12.17,4.44-4.56,1.64-8.88,3.97-11.41,8.27-.53.9.13,2.39,1.3,2.26,6.57-.75,13.13-1.5,19.7-2.25,2.86-.33,5.77-.83,8.65-.91,1.91-.05,3.94.11,5.71.86,1.61.68,2.85,1.93,2.86,3.76.02,2.72-2.36,4.39-4.82,4.84-2.74.5-5.59-.21-8.32-.46s-5.24-.27-7.85,0c-5.91.59-11.51,2.58-16.05,6.48-.88.75-.36,2.22.66,2.51,8.58,2.37,17.17,4.74,25.75,7.11,1.38.38,2.77.75,4.15,1.14,2.95.84,4.96,3.93,4.1,6.99s-4.81,3.29-7.42,3.12c-1.93-.13-3.76-.66-5.61-1.19-2.82-.81-5.64-1.62-8.47-2.43-6.86-1.97-21.18-7.78-24.65,2.36-.19.57.12,1.44.69,1.69,5.72,2.54,10.92,6.09,15.34,10.53,1.9,1.9,4.35,4.51,4.18,7.41-.15,2.59-2.74,4.35-5.21,3.98-1.76-.26-3.46-1.75-4.9-2.72-2.69-1.81-5.37-3.62-8.06-5.42-4.09-2.75-8.18-5.5-12.27-8.25-2.63-1.77-5.23-3.62-8.17-4.86s-5.96-1.43-9.16-.94c-3.41.53-6.7,1.82-9.97,2.9s-6.48,2.13-9.74,3.15c-2.98.94-6.75,2.01-9.54,0-1.71-1.22-2.64-3.43-3.31-5.35-1.67-4.82-2.19-9.97-2.73-15.02-.2-1.9-3.21-1.92-3,0h0Z"/><path class="cls-11" d="M1515.45,945.56s10.59-78.25,81.84-59.95c71.25,18.29,73.17,59.95,73.17,59.95h-155.02Z"/><path class="cls-21" d="M1520.26,970.34h145.15c2.79,0,5.06-2.27,5.06-5.06v-19.72s-155.02,0-155.02,0v19.97c0,2.66,2.15,4.81,4.81,4.81Z"/><path class="cls-22" d="M1528.59,945.77c-.71,1.48-.27,3.27-.17,4.84.14,2.03.23,4.05.28,6.08.11,4.14.04,8.27-.18,12.4-.03.48.72.48.75,0,.21-3.83.28-7.67.2-11.5-.04-1.88-.11-3.76-.22-5.64-.05-.9-.11-1.8-.18-2.7-.08-1.03-.3-2.15.16-3.12.21-.43-.44-.81-.65-.38h0Z"/><path class="cls-22" d="M1544.16,947.17c1.67,7.3,2.34,14.79,2,22.27-.02.48.73.48.75,0,.35-7.55-.33-15.1-2.02-22.47-.11-.47-.83-.27-.72.2h0Z"/><path class="cls-22" d="M1560.99,946.3c-.27,4.08-.54,8.17-.28,12.26s1.1,7.69,1.98,11.48c.11.47.83.27.72-.2-.9-3.88-1.76-7.75-1.98-11.74s.05-7.87.31-11.8c.03-.48-.72-.48-.75,0h0Z"/><path class="cls-22" d="M1577.6,946.92c1.04,3.94,1.11,7.86.64,11.89-.43,3.75-1.02,7.53-.07,11.25.12.47.84.27.72-.2-1.01-3.95-.22-7.96.19-11.93s.2-7.53-.77-11.22c-.12-.47-.85-.27-.72.2h0Z"/><path class="cls-22" d="M1593.02,946.93c1.94,7.34,1.06,15.13.86,22.63-.01.48.74.48.75,0,.2-7.58,1.08-15.41-.88-22.83-.12-.47-.85-.27-.72.2h0Z"/><path class="cls-22" d="M1609.24,947.05c.34,7.47.69,14.93,1.03,22.4.02.48.77.48.75,0-.34-7.47-.69-14.93-1.03-22.4-.02-.48-.77-.48-.75,0h0Z"/><path class="cls-22" d="M1624.23,946.62c1.47,7.51-1.22,15.18.57,22.67.11.47.84.27.72-.2-1.79-7.48.9-15.16-.57-22.67-.09-.47-.82-.27-.72.2h0Z"/><path class="cls-22" d="M1638.84,946.68c.65,4.28.91,8.62.75,12.95-.12,3.15-1.06,7.02.98,9.77.28.38.94,0,.65-.38-1.09-1.47-1.21-3.25-1.14-5.02.07-1.9.26-3.78.29-5.68.07-3.96-.22-7.92-.81-11.84-.07-.48-.79-.27-.72.2h0Z"/><path class="cls-22" d="M1656.04,946.86c1.17,3.49.87,7.21.74,10.83-.14,3.83-.28,7.66-.42,11.49-.02.48.73.48.75,0,.14-3.98.29-7.96.43-11.94.13-3.55.37-7.17-.78-10.59-.15-.46-.88-.26-.72.2h0Z"/><path class="cls-32" d="M1628.11,896.72s39.22,17.56,42.36,48.84h-63.18s2.3-39.1,20.82-48.84Z"/><path class="cls-18" d="M1529.87,882.66s-3.51-36.79-1.15-40.42c0,0-11.44-.31-8.53-10.7.91-3.24,2.11-5.27,3.25-6.55,1.38-1.54,3.52-2.16,5.55-1.75,5.72,1.16,22.82,4.06,31.65-.51,10.7-5.53,10.88,6.44,10.88,6.44,0,0,.17,12.57-9.62,13.29l-2.57,24.55c-.07.47-.16.94-.27,1.41l-3.32,14.23-15.96,12.83-9.91-12.83Z"/><path class="cls-11" d="M1529.14,911.1s-20.32-25.51-6.54-28.26c13.78-2.75,9.76,7.01,16.65,2.13,6.89-4.88,10.91-10.34,10.91-10.34,0,0,16.26-17.23,25.26-4.31,9,12.92,0,16.36,0,16.36l-43.93,24.4h-2.36Z"/><path class="cls-25" d="M1584.41,909.23c1.77-4.41,4.11-8.6,6.89-12.45,1.37-1.9,2.87-3.71,4.47-5.43,1.73-1.85,3.43-3.46,5.96-4.09,1.87-.46,1.08-3.36-.8-2.89-5.15,1.27-8.76,6.21-11.76,10.26s-5.68,8.89-7.65,13.79c-.72,1.79,2.18,2.57,2.89.8h0Z"/><path class="cls-25" d="M1574.56,908.13c1.66-4.63,3.34-9.28,5.71-13.61,1.16-2.11,2.47-4.15,4.03-5.99s3.2-3.48,5.59-3.85c1.9-.29,1.09-3.18-.8-2.89-2.58.4-4.68,2.11-6.38,4s-3.32,4.19-4.64,6.5c-2.71,4.74-4.58,9.92-6.42,15.04-.65,1.82,2.24,2.6,2.89.8h0Z"/><path class="cls-25" d="M1596.03,911.72c1.77-4.41,4.11-8.6,6.89-12.45,1.37-1.9,2.87-3.71,4.47-5.43,1.73-1.85,3.43-3.46,5.96-4.09,1.87-.46,1.08-3.36-.8-2.89-5.15,1.27-8.76,6.21-11.76,10.26s-5.68,8.89-7.65,13.79c-.72,1.79,2.18,2.57,2.89.8h0Z"/><path class="cls-25" d="M1562.39,935.15c-.52,0-1.04,0-1.57,0-19-.13-32.75-2.5-40.88-7.03l.49-.87c19.06,10.64,65.94,5.8,66.41,5.75l.11.99c-.11.01-11.15,1.17-24.56,1.17Z"/><path class="cls-11" d="M1348.16,947.08s-10.52-78.25-81.33-59.95c-70.8,18.29-72.72,59.95-72.72,59.95h154.04Z"/><path class="cls-21" d="M1343.38,971.86h-144.24c-2.78,0-5.03-2.27-5.03-5.06v-19.72s154.04,0,154.04,0v19.97c0,2.66-2.14,4.81-4.78,4.81Z"/><path class="cls-22" d="M1334.45,947.67c.43.91.25,1.93.18,2.89s-.14,1.95-.2,2.93c-.11,1.88-.18,3.76-.22,5.64-.08,3.84,0,7.67.2,11.5.03.48.78.48.75,0-.22-4.13-.29-8.27-.18-12.4.05-2.03.15-4.06.28-6.08.1-1.58.54-3.36-.17-4.84-.21-.44-.85-.06-.65.38h0Z"/><path class="cls-22" d="M1318.91,948.49c-1.68,7.37-2.35,14.92-2.01,22.47.02.48.77.48.75,0-.34-7.48.32-14.96,1.98-22.27.11-.47-.62-.67-.72-.2h0Z"/><path class="cls-22" d="M1302.15,947.81c.26,3.93.52,7.86.31,11.8s-1.07,7.86-1.97,11.74c-.11.47.61.67.72.2.88-3.79,1.72-7.58,1.97-11.48.26-4.09-.01-8.18-.28-12.26-.03-.48-.78-.48-.75,0h0Z"/><path class="cls-22" d="M1285.68,948.24c-.97,3.69-1.16,7.43-.76,11.22s1.19,7.98.19,11.93c-.12.47.6.67.72.2.94-3.73.36-7.5-.07-11.25-.46-4.03-.39-7.95.64-11.89.12-.47-.6-.67-.72-.2h0Z"/><path class="cls-22" d="M1270.36,948.24c-1.95,7.42-1.08,15.25-.88,22.83.01.48.76.48.75,0-.2-7.5-1.08-15.29.85-22.63.12-.47-.6-.67-.72-.2h0Z"/><path class="cls-22" d="M1254.21,948.57c-.34,7.47-.68,14.93-1.02,22.4-.02.48.73.48.75,0,.34-7.47.68-14.93,1.02-22.4.02-.48-.73-.48-.75,0h0Z"/><path class="cls-22" d="M1239.34,947.94c-1.46,7.52,1.21,15.2-.57,22.67-.11.47.61.67.72.2,1.78-7.49-.89-15.16.57-22.67.09-.47-.63-.67-.72-.2h0Z"/><path class="cls-22" d="M1224.83,948c-.59,3.92-.88,7.87-.81,11.84.03,1.9.22,3.78.29,5.68.07,1.77-.04,3.55-1.13,5.02-.29.39.36.76.65.38,2.03-2.75,1.09-6.62.97-9.77-.16-4.33.1-8.66.74-12.95.07-.47-.65-.68-.72-.2h0Z"/><path class="cls-22" d="M1207.74,948.17c-1.14,3.42-.9,7.04-.77,10.59.14,3.98.29,7.96.43,11.94.02.48.77.48.75,0-.14-3.83-.27-7.66-.41-11.49-.13-3.62-.43-7.34.73-10.83.15-.46-.57-.66-.72-.2h0Z"/><path class="cls-32" d="M1236.21,898.24s-38.98,17.56-42.1,48.84h62.79s-2.29-39.1-20.69-48.84Z"/><path class="cls-24" d="M1333.83,884.17s3.49-36.79,1.15-40.42c0,0,11.36-.31,8.47-10.7-.9-3.24-2.09-5.27-3.23-6.55-1.37-1.54-3.5-2.16-5.52-1.75-5.68,1.16-22.67,4.06-31.45-.51-10.64-5.53-10.82,6.44-10.82,6.44,0,0-.17,12.57,9.56,13.29l2.56,24.55c.07.47.16.94.26,1.41l3.3,14.23,15.86,12.83,9.85-12.83Z"/><path class="cls-11" d="M1334.56,912.61s20.2-25.51,6.5-28.26c-13.69-2.75-9.7,7.01-16.55,2.13-6.85-4.88-10.84-10.34-10.84-10.34,0,0-16.16-17.23-25.11-4.31-8.94,12.92,0,16.36,0,16.36l43.65,24.4h2.34Z"/><path class="cls-25" d="M1282.52,909.95c-1.97-4.92-4.49-9.58-7.64-13.85-2.98-4.03-6.55-8.93-11.66-10.21-1.87-.47-2.67,2.43-.8,2.89,2.45.61,4.12,2.15,5.79,3.95s3.15,3.58,4.54,5.52c2.78,3.87,5.11,8.07,6.88,12.49.71,1.77,3.61,1,2.89-.8h0Z"/><path class="cls-25" d="M1292.31,908.85c-1.83-5.12-3.68-10.3-6.38-15.04-1.31-2.31-2.84-4.51-4.61-6.5s-3.77-3.6-6.34-4c-1.89-.29-2.7,2.6-.8,2.89,2.32.36,3.95,1.98,5.42,3.7,1.61,1.88,2.95,3.97,4.14,6.14,2.36,4.33,4.03,8.98,5.68,13.61.64,1.81,3.54,1.03,2.89-.8h0Z"/><path class="cls-25" d="M1270.97,912.43c-1.97-4.92-4.49-9.58-7.64-13.85-2.98-4.03-6.55-8.93-11.66-10.21-1.87-.47-2.67,2.43-.8,2.89,2.45.61,4.12,2.15,5.79,3.95s3.15,3.58,4.54,5.52c2.78,3.87,5.11,8.07,6.88,12.49.71,1.77,3.61,1,2.89-.8h0Z"/><path class="cls-25" d="M1301.51,936.67c-13.34,0-24.3-1.16-24.41-1.17l.11-.99c.47.05,47.06,4.89,65.99-5.75l.49.87c-8.08,4.54-21.75,6.9-40.62,7.03-.52,0-1.04,0-1.56,0Z"/><g class="cls-29"><path class="cls-17" d="M1405.83,519.79l-3.2.24-1.53.12c-.62.05-1.22.11-1.46-.59-.5-1.43-.13-3.02-.65-4.45-.19-.54-.51-.99-.96-1.34-.59-.46-1.5-.69-1.92-1.33-.51-.79-.15-2.31-.1-3.21.06-1.14.12-2.28.18-3.41.02-.29-.43-.29-.45,0-.07,1.23-.13,2.47-.2,3.7-.05.89-.33,2.07.05,2.91.29.66.96.98,1.55,1.32.91.52,1.41,1.19,1.59,2.23.15.86.11,1.74.22,2.6.07.58.18,1.49.68,1.88.23.19.51.2.8.19.59-.01,1.18-.09,1.77-.13,1.21-.09,2.41-.18,3.62-.28.29-.02.29-.47,0-.45h0Z"/><path class="cls-17" d="M1399.82,517.25c-.14-.98,1.09-1.47,1.75-1.9.58-.38,1.17-.9,1.18-1.65,0-.43-.22-.8-.29-1.21-.09-.57.34-.94.75-1.24.92-.69,1.85-1.35,2.78-2.03.23-.17,0-.56-.23-.39-.98.72-1.99,1.41-2.95,2.15-.31.24-.62.52-.75.9-.17.47.01.91.15,1.36.33,1.15-.76,1.63-1.57,2.14-.71.44-1.38,1.09-1.25,1.99.04.29.47.16.43-.12h0Z"/><path class="cls-17" d="M1398.76,517.87c-.99.62-1.99,1.24-2.98,1.86-.55.34-1.46.7-1.49,1.47-.03.67.6,1.17.93,1.68.55.86.23,1.61-.22,2.43-.67,1.21-1.26,2.23-.38,3.49,1.58,2.27-2.25,3.11-3.31,4.46-.18.23.14.55.32.32,1.03-1.32,3.11-1.5,3.73-3.2.29-.8-.05-1.33-.48-1.99-.54-.83-.21-1.57.23-2.36.6-1.1,1.29-2.19.5-3.38-.2-.31-.54-.58-.68-.91-.4-.93.45-1.22,1.08-1.62l2.98-1.86c.25-.15.02-.54-.23-.39h0Z"/><path class="cls-17" d="M1390.85,516.96c.21.73.43,1.46.64,2.18.09.3.16.63.4.86.14.13.31.21.5.24.41.07.83-.07,1.22-.16.27-.06.71-.19.91.09.17.23.56,0,.39-.23-.53-.74-1.48-.19-2.18-.14-.16.01-.33.01-.46-.08-.23-.15-.28-.5-.35-.74-.21-.72-.42-1.43-.63-2.15-.08-.28-.52-.16-.43.12h0Z"/><path class="cls-17" d="M1407.64,532.93c-1.12,1.34-2.21,2.7-3.36,4.01-.55.63-1.18,1.27-1.98,1.55-.97.34-1.99.07-2.97-.09-1.11-.17-2.34-.2-3.22.62-.21.19-.37.5-.61.65-.76.48-.99-.09-1.31-.59-.47-.75-.9-1.52-1.29-2.31-.13-.26-.52-.03-.39.23.43.87.9,1.72,1.44,2.54.28.43.6.93,1.19.85s.9-.68,1.29-1.04c.83-.76,2.04-.63,3.05-.45.85.14,1.72.32,2.58.14.73-.16,1.35-.58,1.89-1.08,1.48-1.39,2.71-3.14,4.01-4.7.18-.22-.13-.54-.32-.32h0Z"/><path class="cls-17" d="M1399.15,539.45c-.39,1.2.15,2.59,1.21,3.26.25.16.53.25.81.33.09.03.17.05.25.09.21.11.21.25.19.47s-.08.46-.12.68c-.17.99-.34,1.97-.51,2.96-.02.12.03.25.16.28,1.34.33,2.71.39,4.08.19.29-.04.16-.48-.12-.43-1.28.19-2.58.12-3.84-.19l.16.28c.17-.96.33-1.92.5-2.88.11-.65.4-1.44-.35-1.78-.29-.13-.61-.17-.9-.34-.31-.18-.58-.44-.78-.74-.41-.61-.54-1.36-.32-2.07.09-.28-.35-.39-.43-.12h0Z"/><path class="cls-17" d="M1405.29,537.59l2.57,1.53,1.33.8c.43.26,1.11.46,1.06,1.07-.03.43-.27.92-.39,1.34-.13.45-.26.89-.39,1.34-.28.97-.56,1.94-.85,2.91-.04.15.08.27.22.28.86.1,1.84.1,2.68.33.78.21,1.02,1.63,1.28,2.32.1.27.54.15.43-.12-.2-.54-.39-1.09-.61-1.63-.13-.32-.25-.65-.56-.84-.38-.24-.95-.22-1.37-.27-.62-.07-1.23-.15-1.85-.22l.22.28c.33-1.12.65-2.24.98-3.35.17-.6.35-1.19.52-1.79.09-.31.27-.7.17-1.03-.08-.24-.29-.38-.49-.51-.53-.35-1.1-.65-1.64-.98l-3.08-1.84c-.25-.15-.48.24-.23.39h0Z"/><path class="cls-17" d="M1404.02,537.24c-1.58-1.98-.68-4.63.1-6.74.03-.08,0-.16-.06-.22-.29-.31-.66-.34-1.08-.33-.65.01-1.24-.11-1.75-.53-1.03-.85-1.06-2.39-.18-3.36.19-.21-.12-.53-.32-.32-1.61,1.78-.42,4.65,2.01,4.67.31,0,.83-.13.83.27,0,.33-.29.8-.39,1.12-.22.7-.4,1.42-.47,2.15-.12,1.29.17,2.58.98,3.6.18.23.5-.09.32-.32h0Z"/><path class="cls-17" d="M1469.89,512.06c.56-.68,1.22-1.25,1.99-1.68.38-.21.79-.39,1.2-.52.34-.11.76-.14,1.06-.34.68-.47-.09-1.46-.35-1.97-.48-.96-.96-1.92-1.44-2.88l-.08.31c.47-.26.94-.52,1.42-.78.25-.14.03-.53-.23-.39-.47.26-.94.52-1.42.78-.11.06-.13.2-.08.31.41.82.82,1.65,1.24,2.47.21.41.42.82.62,1.23.15.3.25.5-.12.63-.16.06-.34.08-.5.13-1.42.39-2.7,1.24-3.63,2.38-.18.22.13.54.32.32h0Z"/><path class="cls-17" d="M1471.76,511.75c.18,1.06.35,2.12.53,3.18.02.15.22.2.33.13.95-.56,1.89-1.15,2.8-1.77l-.34-.19c.06.75.25,1.48.62,2.14.19.35.43.68.7.97s.6.57.74.97c.24.7.11,1.74-.04,2.45-.16.78-.49,1.53-1.14,2.02-.23.17,0,.56.23.39,1.27-.96,1.52-2.61,1.49-4.11,0-.36-.03-.74-.19-1.07-.17-.36-.46-.62-.72-.9-.73-.78-1.16-1.78-1.24-2.84-.01-.16-.19-.3-.34-.19-.91.63-1.84,1.22-2.8,1.77l.33.13c-.18-1.06-.35-2.12-.53-3.18-.05-.29-.48-.16-.43.12h0Z"/><path class="cls-17" d="M1470.41,531.87c1.55.31,3.46.59,4.61-.79.93-1.13.34-2.36-.38-3.41-.41-.59-.93-1.24-.94-2,0-.45.18-.89.17-1.34-.01-.36-.17-.61-.38-.9-.19-.26-.32-.38-.18-.79.07-.2.25-.38.35-.57.13-.27.2-.56.19-.86-.03-.62-.36-1.15-.88-1.47-.25-.15-.47.23-.23.39.8.51.75,1.36.31,2.08-.26.42-.36.82-.09,1.26.22.36.47.59.45,1.06-.02.39-.17.75-.16,1.15.01.48.19.93.42,1.34.53.94,1.68,1.97,1.35,3.16-.53,1.91-3.05,1.55-4.48,1.26-.28-.06-.4.38-.12.43h0Z"/><path class="cls-17" d="M1473.63,532.64c.9,1.11,1.8,2.22,2.69,3.33l.16-.38c-1.97-.09-3.84.82-5.02,2.39-.05.06-.03.16,0,.23.5.97.7,2.03.59,3.12l.11-.19c-.74.35-1.46.75-2.16,1.19-.24.15-.02.54.23.39.51-.32,1.03-.62,1.56-.9.18-.09.51-.17.64-.33.11-.13.09-.36.09-.51.05-1.04-.2-2.07-.68-2.99v.23c1.08-1.45,2.84-2.25,4.63-2.17.21,0,.27-.24.16-.38-.9-1.11-1.8-2.22-2.69-3.33-.18-.23-.5.09-.32.32h0Z"/><path class="cls-17" d="M1471.74,537.55c-.26-.55-.85-1.37-1.52-1.43-.73-.06-.96,1.07-1.2,1.56-.41.84-.9,1.63-1.46,2.37-.28.37-.58.72-.89,1.05-.29.31-.63.58-.88.92-1.11,1.47.62,3.03,1.84,3.66.5.25.95.13,1.35-.23.34-.31.82-1.19,1.35-.82.33.23.51.58.88.77.35.17.76.23,1.14.2.94-.07,1.73-.64,2.46-1.19.23-.17,0-.56-.23-.39-.57.43-1.18.91-1.89,1.07-.33.08-.68.09-1,0-.4-.11-.61-.34-.89-.63-.73-.77-1.36-.17-1.92.44-.15.16-.31.35-.52.43-.35.14-.67-.13-.95-.31-.67-.44-1.4-.98-1.51-1.84s.73-1.37,1.23-1.93c.47-.52.9-1.07,1.29-1.65.45-.67.85-1.38,1.17-2.12.08-.18.15-.37.23-.55.03-.06.06-.15.11-.2.13-.12.34-.1.52-.03.4.17.71.7.88,1.07.12.26.51.03.39-.23h0Z"/><path class="cls-17" d="M1457.9,546.96c.12.89.25,1.79.37,2.68.03.2.33.21.41.05.52-.95,1.87-.95,2.5-1.8.14-.18.22-.39.25-.62s-.09-.72.07-.9c.17-.19.98.48,1.16.6.43.28.86.56,1.3.85.24.16.47-.23.23-.39-.47-.3-.93-.61-1.4-.91-.34-.22-.81-.68-1.25-.64-.76.07-.44,1.04-.59,1.51-.17.53-.85.78-1.31,1-.52.26-1.07.55-1.35,1.08l.41.05c-.12-.89-.25-1.79-.37-2.68-.04-.29-.47-.16-.43.12h0Z"/><path class="cls-17" d="M1448.4,551.77c-.71-.73-2.19-.3-2.34.73-.02.12.03.24.16.28.11.03.26-.04.28-.16.02-.11.04-.19.07-.25.02-.04.05-.09.08-.12s-.02.02.02-.02c.01-.02.03-.03.04-.05.03-.04.07-.07.11-.1-.03.03.02-.02.03-.02.02-.01.04-.03.06-.04.04-.03.09-.05.13-.07.02,0,.05-.02.1-.04.04-.01.09-.03.14-.04.02,0,.05,0,.07-.01.02,0,.01,0,0,0,.01,0,.03,0,.04,0,.05,0,.1,0,.15,0,.02,0,.04,0,.06,0,.04,0-.02,0,.03,0,.04,0,.09.02.13.03.03,0,.05.02.08.03-.04-.01.01,0,.02.01.1.05.13.07.21.16.2.21.52-.11.32-.32h0Z"/><path class="cls-17" d="M1418.86,546.09c-.39.92-.79,1.84-1.18,2.76l.35-.05c-.55-.54-1.09-1.07-1.64-1.61-.21-.2-.53.11-.32.32.55.54,1.09,1.07,1.64,1.61.09.09.29.09.35-.05.39-.92.79-1.84,1.18-2.76.05-.11.03-.24-.08-.31-.09-.06-.26-.03-.31.08h0Z"/><path class="cls-17" d="M1418.63,548.79c.97.2,1.91.49,2.82.88l-.05-.35c-.78.84-1.43,1.78-1.94,2.81-.09.19.06.36.25.33,1.34-.19,5.81-.24,4.94-2.72l-.38.22c1.6,1.35,3.65,1.99,5.74,1.75l-.23-.23c.01,1.38,1.73,1.85,2.43.64.15-.25-.24-.48-.39-.23-.46.79-1.58.53-1.59-.42,0-.11-.1-.24-.23-.23-1.96.23-3.91-.34-5.42-1.62-.16-.13-.46-.01-.38.22.41,1.19-1.01,1.63-1.89,1.77s-1.83.27-2.74.4l.25.33c.5-1,1.11-1.9,1.87-2.72.09-.09.09-.29-.05-.35-.95-.4-1.92-.72-2.93-.93-.28-.06-.4.37-.12.43h0Z"/><path class="cls-17" d="M1388.78,502.62c.39-.53.83-1.17.75-1.87-.07-.59-.47-1.15-1.1-1.2-.29-.02-.29.43,0,.45.42.03.66.52.66.9,0,.56-.39,1.06-.7,1.49-.07.1-.02.25.08.31.11.07.24.02.31-.08h0Z"/><path class="cls-17" d="M1387.25,533.21c-.41,1.12-.59,2.31-.53,3.5,0,.14.14.26.28.22.42-.13.9-.29,1.34-.16.33.1.61.38.58.73-.02.25.38.3.44.06.22-.91.27-1.83.14-2.75-.04-.29-.47-.16-.43.12.12.84.07,1.69-.14,2.52l.44.06c.04-.49-.31-.92-.74-1.11-.56-.25-1.19-.07-1.75.1l.28.22c-.06-1.15.12-2.29.51-3.38.1-.27-.33-.39-.43-.12h0Z"/><path class="cls-17" d="M1335.29,509.53c-.93-.75-1.9-1.41-2.96-1.96-.99-.51-2.28-1.21-3.41-1.25-.9-.03-1.48.65-2.08,1.22-1.09,1.04-2.19,2.08-3.28,3.12l.38.1c-.71-2.22-1.86-5.13-4.65-5.16-2.62-.03-3.25,2.93-3.05,5,.13,1.4.56,2.77,1.23,4.01.34.62.74,1.2,1.19,1.74s.67.73.69,1.45c.02.77-.28,1.06-.8,1.56-.69.66-1.67,1.64-1.11,2.68.15.28.41.47.68.63.18.11.38.19.58.27.62.27.84.18.8.97-.04.64.03.62-.5.78-.22.07-.45.1-.67.14-.59.09-1.19.13-1.78.12-1.1-.02-2.8-.08-3.63-.93s-.48-2.22-.39-3.24c.11-1.2.22-2.39.34-3.59.03-.29-.42-.29-.45,0-.17,1.79-.56,3.7-.47,5.49.06,1.17.69,1.91,1.79,2.29,1.42.48,3.03.52,4.5.32.77-.11,2.09-.35,2.13-1.38.03-.76-.71-1.05-1.3-1.3-.62-.27-.78-.27-1.07-.93-.33-.74-.04-1.11.51-1.67.47-.48,1.03-.88,1.31-1.51.45-1.01-.23-1.72-.84-2.47-1.27-1.54-2.1-3.44-2.29-5.43s.35-4.78,2.89-4.51c2.4.25,3.3,2.84,3.93,4.8.05.16.25.22.38.1.73-.69,1.46-1.39,2.19-2.08.92-.87,1.94-2.3,3.38-2.02,1.96.37,4,1.74,5.53,2.97.22.18.54-.14.32-.32h0Z"/><path class="cls-17" d="M1319.8,505.71c-.25-1.45-.49-2.9-.74-4.34-.02-.11-.17-.2-.28-.16-1.42.57-2.81,1.21-4.17,1.92l.33.13c-.43-1.09-.7-2.24-.8-3.41-.02-.29-.47-.29-.45,0,.1,1.21.37,2.4.82,3.53.05.14.19.21.33.13,1.32-.69,2.67-1.32,4.06-1.88l-.28-.16c.25,1.45.49,2.9.74,4.34.05.28.48.16.43-.12h0Z"/><path class="cls-17" d="M1315.66,510.04c-1.38,1.09-2.07,2.86-1.83,4.6l.41-.17c-.42-.6-.84-1.2-1.26-1.8-.2-.28-.39-.56-.59-.84s-.52-.58-.38-.94c.12-.32.34-.62.51-.91s.33-.58.5-.87c.36-.62.73-1.23,1.1-1.84.15-.25-.24-.47-.39-.23-.41.67-.81,1.35-1.21,2.03-.2.35-.41.7-.61,1.06-.15.26-.36.55-.4.85-.03.25.07.47.21.68.23.34.47.67.7,1,.47.68.95,1.36,1.42,2.04.15.22.45.08.41-.17-.22-1.58.47-3.18,1.71-4.16.23-.18-.09-.5-.32-.32h0Z"/><path class="cls-17" d="M1319.96,517.29c.93-.61,1.91-1.09,2.97-1.43l-.28-.22c0,1.44.14,2.86.45,4.26.02.11.17.2.28.16,1.02-.42,2.04-.84,3.06-1.26l-.28-.22c-.17,1.7-.42,3.4-.75,5.08-.08.39-.16.78-.24,1.16-.11.52-.23.64-.74.46-.74-.26-1.49-.52-2.23-.77-.13-.05-.29.08-.28.22.13,2.07.26,4.14.39,6.21.02.29.47.29.45,0-.13-2.07-.26-4.14-.39-6.21l-.28.22c.48.17.96.33,1.44.5.41.14.91.42,1.34.45.63.05.67-.63.77-1.1.45-2.05.77-4.13.98-6.22.01-.13-.16-.27-.28-.22-1.02.42-2.04.84-3.06,1.26l.28.16c-.3-1.37-.44-2.74-.43-4.14,0-.14-.15-.26-.28-.22-1.1.35-2.12.84-3.08,1.48-.24.16-.02.55.23.39h0Z"/><path class="cls-17" d="M1333.98,519c-1.02-1.15-1.57-2.61-1.57-4.15,0-.21-.24-.28-.38-.16-.43.35-.92.62-1.44.79-.46.15-1.06.3-1.54.22-.35-.06-.34-.34-.34-.66,0-.29,0-.57,0-.86,0-.49.06-1.03-.02-1.52-.04-.24-.14-.5-.38-.6-.36-.15-.66.18-.92.38-.95.75-1.9,1.5-2.85,2.26-.23.18.09.5.32.32.95-.75,1.87-1.56,2.85-2.26.08-.05.38-.29.46-.24.07.04.07.25.08.33.02.27,0,.55,0,.82,0,.56-.03,1.13,0,1.69.04.89.89.84,1.59.74.93-.12,1.78-.51,2.51-1.1l-.38-.16c0,1.65.61,3.23,1.7,4.46.19.22.51-.1.32-.32h0Z"/><path class="cls-17" d="M1334.47,523.85l-1.85,1.17c-.38.24-.95.49-.98,1.01-.02.26.11.5.22.73.15.33.3.65.44.98.31.68.61,1.36.92,2.04l.13-.33c-1.42.26-2.77.8-3.98,1.58l.31.08c-.6-1.02-1.3-1.97-2.1-2.84l.04.27c1.26-1.7,2.03-3.7,2.26-5.8.03-.29-.42-.29-.45,0-.22,2.02-.99,3.94-2.2,5.58-.06.08-.03.2.04.27.77.84,1.45,1.76,2.03,2.75.06.1.21.15.31.08,1.19-.76,2.49-1.28,3.87-1.54.16-.03.19-.21.13-.33-.47-1.03-.96-2.06-1.4-3.1-.16-.39-.05-.61.29-.82.24-.15.47-.3.71-.45l1.49-.94c.24-.15.02-.54-.23-.39h0Z"/><path class="cls-17" d="M1336.16,530.36c-.18.9-.43,1.8-.55,2.71-.05.39-.03.76.42.87.31.08.74-.02,1.06-.04s1.02-.2,1.3-.09c.63.26-.27,2.07-.45,2.52-.17.41-.41.91-.03,1.28.22.21.53.2.81.27.42.11.8.33,1.12.63.21.2.46.61.17.89-.11.11-.4.13-.56.16-.45.06-.92.06-1.38.09-.97.06-1.93.11-2.9.17-.18.01-.27.18-.19.34.75,1.5,1.27,3.08,1.55,4.73.03.2.32.21.41.05.57-1,1.43-1.73,2.52-2.11.27-.09.16-.53-.12-.43-1.2.42-2.16,1.21-2.79,2.31l.41.05c-.29-1.69-.83-3.3-1.6-4.84l-.19.34c1.06-.06,2.12-.13,3.18-.19.61-.04,1.5.05,2.01-.38,1.06-.87-.76-2.06-1.51-2.26-.33-.09-.63.01-.64-.56,0-.17.16-.4.22-.56.17-.44.33-.88.47-1.32s.54-1.28-.06-1.59-1.6.16-2.26.07c-.18.08-.31.04-.39-.14-.16-.11-.19-.25-.08-.43.01-.25.11-.56.16-.81l.33-1.63c.06-.28-.38-.4-.43-.12h0Z"/><path class="cls-17" d="M1344.41,540.04c.66-.42,1.43-.65,2.21-.65.29,0,.29-.45,0-.45-.86,0-1.71.25-2.44.71-.24.15-.02.54.23.39h0Z"/><path class="cls-17" d="M1350.51,545.42c-.6-.7-1.36-1.22-2.22-1.55l.05.41c.88-.49,1.79-.89,2.75-1.2.13-.04.21-.2.13-.33-.63-1-1.38-1.92-2.25-2.73l-.22.38c.71.1,1.4-.02,2.02-.4.25-.15.02-.54-.23-.39-.5.3-1.08.44-1.67.35-.2-.03-.4.21-.22.38.84.78,1.57,1.66,2.18,2.64l.13-.33c-.99.32-1.95.74-2.86,1.25-.18.1-.12.35.05.41.79.3,1.48.79,2.02,1.43.19.22.51-.1.32-.32h0Z"/><path class="cls-17" d="M1332.05,541.12c.11-1.43.35-2.84.74-4.22.05-.2-.16-.34-.33-.25-1.27.67-2.86.3-3.71-.86-.11-.15-.36-.15-.41.05-.32,1.27-.7,2.52-1.13,3.76l.41-.05c-.93-1.22-1.73-2.51-2.39-3.9-.04-.09-.16-.13-.25-.1-1.31.31-3.52.58-3.61-1.35-.03-.72.13-1.39-.51-1.87-.08-.06-.2-.02-.27.04-.52.45-1.44,1.21-2.19.79-.4-.22-.56-.67-.68-1.08-.17-.59-.22-1.25-.55-1.79-.18-.3-.55-.72-.94-.62-.64.17-.36,1.09-.23,1.5.36,1.15.74,2.3,1.11,3.44.29.9.46,2.09,1,2.88.42.62.86.42,1.48.4.93-.03.46.48.17.91-.17.25-.26.47-.29.77-.01.1.08.19.17.22.7.2,1.4.41,2.1.61.5.15,1.14.46,1.67.33.75-.19.9-1.1.96-1.76l-.34.19c1.23.56,1.77,1.85,2.78,2.68.35.29.74.5,1.19.57.8.13,2.43-.65,2.79.43.09.27.53.16.43-.12-.18-.55-.64-.84-1.2-.9-.93-.1-1.76.41-2.64-.13-1.24-.77-1.74-2.31-3.11-2.93-.16-.07-.32.01-.34.19-.03.33-.06.78-.27,1.05-.38.49-1.19.12-1.64-.01-.75-.22-1.5-.44-2.25-.66l.17.22c.07-.61.88-1.01.75-1.66-.09-.45-.51-.56-.91-.51-.16.02-.32.1-.48.1-.76.03-.82-.26-1.01-.76-.22-.59-.39-1.2-.58-1.8-.35-1.1-.71-2.2-1.06-3.29-.08-.26-.59-1.57-.15-1.46.32.08.47.7.55.96.16.58.22,1.21.52,1.74.81,1.48,2.4.63,3.36-.2l-.27.04c.52.39.22,1.34.32,1.91.08.44.32.81.67,1.1,1,.81,2.33.54,3.47.27l-.25-.1c.66,1.38,1.46,2.68,2.39,3.9.12.15.34.14.41-.05.43-1.24.81-2.49,1.13-3.76l-.41.05c.99,1.37,2.82,1.81,4.33,1.02l-.33-.25c-.4,1.42-.65,2.87-.75,4.34-.02.29.43.29.45,0h0Z"/><path class="cls-17" d="M1312.49,529.16c.02.71.1,1.42.25,2.11.08.36.18.71.3,1.06.09.27.18.59.4.79s.53.16.77.32.32.5.34.77c.05.67-.22,1.3-.03,1.97.08.28.51.16.43-.12-.27-.93.55-2.5-.64-3.07-.12-.06-.24-.07-.37-.11-.23-.08-.3-.21-.39-.43-.13-.34-.23-.7-.32-1.05-.18-.74-.28-1.49-.3-2.24,0-.29-.46-.29-.45,0h0Z"/><path class="cls-17" d="M1313.32,528.82c.68-.8,1.37-1.6,2.05-2.4.08-.09.09-.23,0-.32-.08-.08-.24-.09-.32,0-.68.8-1.37,1.6-2.05,2.4-.08.09-.09.23,0,.32.08.08.24.09.32,0h0Z"/><path class="cls-17" d="M1344.38,540.29l1.03,1.56c.13.2.27.39.36.61.03.07.06.18.07.23,0-.02,0,.03,0,.03.01-.02.01-.06.04-.08.02-.02.07-.02.09-.04.02,0,.02,0,0,0-.01,0-.03,0-.04-.01-.27-.1-.39.34-.12.43.24.08.48-.06.48-.33,0-.25-.14-.51-.27-.72-.18-.31-.39-.61-.59-.91l-.66-1c-.16-.24-.55-.02-.39.23h0Z"/></g><path class="cls-5" d="M1545.8,562.31s67.53-28.45,61.76,35.16c-4.48,49.39-11.76,56.01-11.76,56.01,0,0-48.63,68.5-35.3,127.6,0,0,5.48,28.14,13.05,34.36,7.57,6.23,99.13,33.2,99.13,33.2,0,0,19.17-42.51-4.11-108.09-23.28-65.57-32.88-77.61-29.94-92.34s-18.81-48.14-18.81-48.14c0,0,16.49-25.31,3.18-39.87-9.27-10.14-21.9-15.17-28.72-17.29-3.45-1.07-7.09-1.46-10.68-1.02-8.04.99-23.18,4.98-37.81,20.41Z"/><path class="cls-15" d="M1633.8,594.27c8.44-1.71,16.87-3.42,25.31-5.12,2.49-.51,5.15-1,7.5-.27,4.51,1.41,5.54,6.41,5.7,10.61.35,9.67-.47,19.43-2.45,29.05-.16.79-.36,1.63-.97,2.25-.66.67-1.69.97-2.66,1.2-5.45,1.23-11.14-1.7-16.23-3.44-4.64-1.59-9.3-1.75-14.32-.89-3.49.6-6.31,2.86-9.15,4.79-9.36,6.35-21.17,9.87-32.78,9.78-4.53-.04-9.45-.8-12.21-3.8-2.76-3-1.54-8.7,2.92-9.62-8.9-4.29-9.2-13.23,2.13-16.96-2.79-3.1-8.2-2.53-6.98-11.52.55-4.06,5.95-7.45,10.33-6.28-3.8-2.93-3.88-6.36-1.86-9.78,2.21-3.75,11.18-5.72,15.66-4.47,5.93,1.65,8.71,2.81,14.16,5.67,4.79,2.51,7.97,4.17,15.89,8.82"/><path class="cls-28" d="M1634.2,595.72c6.65-1.35,13.3-2.69,19.96-4.04,3.08-.62,6.28-1.58,9.43-1.67,2.56-.07,4.67.89,5.88,3.18.96,1.81,1.23,3.96,1.33,5.99.15,3.17.12,6.35,0,9.52-.26,6.59-.91,13.36-2.45,19.79-.34,1.41-1.15,1.76-2.51,2.06s-2.86.3-4.28.11c-2.96-.4-5.79-1.56-8.56-2.6s-5.65-1.94-8.68-2.25-6.07-.13-9.03.42-5.29,2.03-7.63,3.64-4.76,3.2-7.32,4.53c-5.16,2.67-10.75,4.5-16.47,5.51-3.2.56-6.44.84-9.68.84-2.92,0-6.01-.2-8.72-1.38-2.08-.91-3.91-2.48-3.89-4.9.02-2.06,1.29-3.72,3.29-4.19,1.21-.28,1.52-2.17.36-2.74-2.77-1.36-6.02-3.81-5.79-7.28.25-3.77,4.44-5.88,7.56-6.94,1.08-.37,1.46-1.65.66-2.51-2.08-2.24-5.75-2.85-6.53-6.14-.54-2.26-.29-5.05,1.34-6.79,1.76-1.89,4.52-2.97,7.08-2.36,1.33.32,2.7-1.51,1.46-2.51-1.6-1.28-2.97-2.92-2.7-5.1.19-1.54.97-3.11,2.19-4.08,2.61-2.06,6.51-2.84,9.75-2.89,1.83-.03,3.43.39,5.18.91,1.95.58,3.89,1.23,5.77,2.02,3.49,1.48,6.83,3.33,10.16,5.12,3.94,2.11,7.82,4.34,11.68,6.59,1.67.98,3.18-1.61,1.51-2.59-3.86-2.26-7.74-4.48-11.68-6.59s-7.52-4.07-11.47-5.66-8.11-3.08-12.38-2.74c-3.8.3-8.18,1.36-11.03,4.05-1.63,1.54-2.61,3.96-2.71,6.18-.12,2.81,1.48,5.2,3.6,6.89l1.46-2.51c-3.3-.79-6.74.26-9.28,2.45s-3.34,5.32-3.09,8.58c.18,2.38,1.06,4.52,2.95,6.03,1.47,1.18,3.33,1.85,4.62,3.24l.66-2.51c-4.43,1.5-9.33,4.45-9.75,9.61-.37,4.63,3.44,8.22,7.26,10.1l.36-2.74c-4.66,1.09-6.81,6.56-4.61,10.71,2.63,4.96,9.78,5.66,14.72,5.66,6.45,0,12.93-1.07,19.05-3.11,3.09-1.03,6.11-2.32,9-3.84s5.45-3.39,8.15-5.15c2.85-1.86,5.61-2.68,9.01-2.91s6.91.17,10.22,1.29c5.8,1.95,12.26,5.41,18.48,3.01,3.31-1.28,3.43-4.88,3.96-7.92.63-3.66,1.11-7.35,1.42-11.05s.44-7.11.43-10.67c-.01-2.89,0-5.86-.7-8.68-.64-2.57-1.99-5.04-4.32-6.43-3.25-1.95-7.15-1.16-10.64-.45-8.28,1.67-16.55,3.35-24.83,5.03-1.89.38-1.09,3.28.8,2.89h0Z"/><path class="cls-37" d="M1634.8,827.72c2.43-3.97,7.17-6.23,11.89-5.67,4.72.56,9.23,3.92,11.32,8.42.58,1.25,1.06,2.68,2.21,3.42,1.26.81,2.81.48,4.2.18,3.86-.84,7.98-1.15,11.86.18,3.88,1.32,7.46,4.56,8.37,8.63.9,4.07-1.62,8.63-5.59,8.93,3.81,2.45,3.74,8.79.41,11.41-3.33,2.62-8.51,1.89-12.23-.72-3.72-2.61-6.2-6.72-8.13-10.86-1.87,5.18-9.15,6.96-13.65,3.35-2.96-2.38-4.67-6.49-8.14-7.85-5.67-2.21-11.63,4.56-17.05,1.68-3.87-2.05-4.72-7.81-8.5-10.06-5.36-3.21-10.99,2.97-16.99,2.97-5.1,0-9.88-5.48-9.29-10.63-6.13,3.66-14.82,2.63-20.59-2.44-2.18-1.92-3.45-6.3-.78-6.84-4.39-.36-9.09-3.84-9.32-8.34-.23-4.51,6.19-7.53,8.91-3.8-1.61-5.52,3.89-10.71,9.39-10.12,5.51.59,10.17,5.3,12.7,10.5,5.06-6.61,17.57-4.19,20.95,4.05,2.11-3.06,6.16-4.53,9.9-3.57,3.74.95,6.96,4.27,7.88,8.11,2.72-2.34,6.31-3.95,9.99-3.32s7.2,4.04,7.14,7.82c7.06-2.3,15.53-.4,21.52,4.81"/><path class="cls-37" d="M1556.08,556.23c-3.79-2.36-3.96-8.85-8.39-9.52-1.7-.26-3.3.58-4.74,1.38-2.55,1.41-5.14,2.86-7.06,4.96-1.92,2.1-3.11,4.99-2.37,7.75.46,1.74,1.62,3.26,2.76,4.73,1.88,2.43,3.76,4.86,5.63,7.29,1.65,2.13,3.62,4.46,6.37,4.78,2.89.35,5.38-1.72,6.91-3.96,1.53-2.24,2.59-4.85,4.71-6.62.65-.55,1.43-1.03,1.77-1.79.76-1.68-.95-3.51-2.62-4.56s-3.7-2.15-4.01-3.99"/><polygon class="cls-7" points="1589.66 782.16 1583.6 773.59 1572.91 776.27 1579.86 768.29 1573.8 759.72 1584.15 763.37 1591.1 755.39 1590.55 765.62 1600.9 769.27 1590.21 771.94 1589.66 782.16"/><polygon class="cls-7" points="1669.78 804.81 1669.11 800.75 1664.72 800.08 1668.7 798.24 1668.03 794.17 1671.16 797.1 1675.13 795.25 1673.09 798.9 1676.22 801.83 1671.83 801.16 1669.78 804.81"/><polygon class="cls-7" points="1615.32 562.16 1613.26 562.78 1613.26 564.78 1611.98 563.16 1609.92 563.78 1611.19 562.16 1609.92 560.53 1611.98 561.15 1613.26 559.53 1613.26 561.54 1615.32 562.16"/><polygon class="cls-7" points="1625.71 802.29 1626.46 794.34 1618.51 791.21 1626.93 789.42 1627.68 781.46 1632.13 788.31 1640.55 786.51 1634.88 792.54 1639.33 799.39 1631.38 796.27 1625.71 802.29"/><polygon class="cls-7" points="1582.85 550.68 1579.09 551.72 1579 555.35 1576.77 552.36 1573.01 553.41 1575.39 550.52 1573.15 547.54 1576.86 548.74 1579.23 545.85 1579.15 549.48 1582.85 550.68"/><polygon class="cls-7" points="1616.6 702.35 1612.21 698.52 1606.91 701.2 1609.5 696.15 1605.11 692.32 1611.1 693.04 1613.68 688 1614.8 693.48 1620.79 694.2 1615.49 696.87 1616.6 702.35"/><polygon class="cls-7" points="1625.16 672.79 1622.34 664.74 1613.18 664.74 1620.59 659.77 1617.76 651.73 1625.16 656.7 1632.57 651.73 1629.74 659.77 1637.14 664.74 1627.99 664.74 1625.16 672.79"/><polygon class="cls-7" points="1572.74 731.62 1571.55 727.05 1566.48 726.69 1570.81 724.23 1569.62 719.67 1573.48 722.71 1577.81 720.26 1575.87 724.59 1579.74 727.64 1574.68 727.28 1572.74 731.62"/><polygon class="cls-7" points="1647.3 749.41 1641.81 746.82 1637.44 750.85 1638.41 745.22 1632.91 742.62 1639.01 741.74 1639.98 736.1 1642.77 741.19 1648.87 740.3 1644.5 744.33 1647.3 749.41"/><polygon class="cls-2" points="142 347.82 66.48 545.09 129.99 545.09 76.78 722.45 188.34 516.13 114.54 516.13 142 347.82"/><polygon class="cls-2" points="465.7 241.2 384.86 451.02 452.84 451.02 395.88 639.67 515.31 420.22 436.3 420.22 465.7 241.2"/><path class="cls-26" d="M434.14,492.15c6.25-11.03,10.18-23.33,11.45-35.91,1.18-11.69-1.45-25.87-12.39-30.53-10.33-4.4-22.69,2.89-27.68,12.84-4.99,9.95-4.58,21.6-4.05,32.69-4.76-9.06-6-19.66-11.09-28.54-5.09-8.89-16.81-15.77-25.67-10.51-7.1,4.22-8.5,13.97-6.73,21.95,1.77,7.98,5.88,15.38,7.02,23.48-7.43-8.03-15.27-16.34-25.62-20.07-10.35-3.73-23.93-1.18-29,8.47-4.97,9.45.18,21.39,8.13,28.59,7.95,7.21,18.23,11.3,27.19,17.24"/><path class="cls-3" d="M340.81,997.47s.08,0,.12,0c1.93-.06,3.45-1.66,3.38-3.56l-2.96-88.81c-.06-1.91-1.68-3.41-3.61-3.34-1.93.06-3.45,1.66-3.38,3.56l2.96,88.81c.06,1.87,1.62,3.34,3.5,3.34Z"/><path class="cls-3" d="M317.52,997.47h51.69c1.93,0,3.5-1.55,3.5-3.45s-1.57-3.45-3.5-3.45h-51.69c-1.93,0-3.5,1.55-3.5,3.45s1.57,3.45,3.5,3.45Z"/><path class="cls-3" d="M304.66,996.81c1.81,0,3.34-1.37,3.49-3.18l7.08-88.58c.15-1.9-1.29-3.56-3.21-3.71-1.9-.15-3.61,1.27-3.76,3.17l-7.08,88.58c-.15,1.9,1.29,3.56,3.21,3.71.09,0,.19.01.28.01Z"/><path class="cls-3" d="M332.89,999.93c1.76,0,3.27-1.3,3.47-3.07.21-1.9-1.17-3.6-3.09-3.82l-51.37-5.67c-1.92-.22-3.65,1.15-3.87,3.05-.21,1.9,1.17,3.6,3.09,3.82l51.37,5.67c.13.01.26.02.39.02Z"/><path class="cls-33" d="M337.03,661.2c8.62-30.64-1.39-57.83-2.21-89.62-.82-31.79,8.19-68.14,36.82-82.76,23.86-12.18,54.73-4.18,74.11,14.17,19.38,18.35,28.73,44.97,31.98,71.27,3.25,26.31,1.07,52.92.94,79.42-.18,36.11,3.45,72.3.21,108.27-3.24,35.97-14.21,72.71-39.35,98.96-25.97,27.12-64.12,39.93-101.68,44.29-37.56,4.36-75.55,1.25-113.36,1.68-26.03.3-52.95,2.14-77.26-7.04-46.73-17.63-69.23-69.37-82.46-116.96-5.76-20.71-10.74-41.86-10.87-63.33-.03-5.8.49-12.11,4.42-16.42,6.63-7.25,19.66-4.39,25.97,3.13,6.31,7.52,7.73,17.8,8.91,27.5-5.25-19.84-7.06-40.56-5.31-60.99.63-7.36,4.23-16.82,11.69-16.12,5.91.56,8.74,7.29,10.32,12.93,2.86,10.17,5.72,20.34,8.58,30.51-3.32-15.68-5.17-31.66-5.52-47.67-.23-10.51,5-25.02,15.35-22.47,5.07,1.25,7.98,6.39,10.14,11.09,8.09,17.58,14.21,36.04,18.23,54.94,56.81-19.08,117.85-25.81,177.53-19.57.94-5.07,1.88-10.15,2.82-15.22"/><path class="cls-35" d="M390.67,781.27c-.15,26.09-25.73,43.71-47.75,52.52-13.25,5.3-27.51,8.2-41.81,8.51-5.8.13-12.95.02-16.28-5.56-2.92-4.89-2.04-11.7-.67-16.94,3.29-12.51,13.05-23.04,25.48-27.17,1.62-.54,3.03,1.77,1.7,2.89-10.65,8.91-23.55,18.88-38.45,15.35-5.7-1.35-11.26-4.69-14.11-9.89-3.4-6.2-2.2-13.64,1.39-19.48,4.62-7.52,12.62-11.95,20.25-15.99.29,1.07.59,2.14.88,3.22-14.68.7-35.41.11-42.74-15.14-3.54-7.36-2.12-15.93,2.19-22.68,4.75-7.43,12.44-12.24,21.22-13.53,11.5-1.68,23.11,1.9,32.98,7.6,1.94,1.12.18,4.11-1.77,2.98-14.58-8.42-36.37-12.42-48.07,2.77-4.33,5.62-6.59,13.22-3.99,20.05,2.51,6.58,8.72,10.56,15.3,12.5,8.02,2.36,16.59,2.39,24.87,1.99,1.73-.08,2.39,2.42.88,3.22-6.12,3.24-12.5,6.62-17.01,11.98-4,4.75-6.46,11.63-3.95,17.61,2.01,4.8,6.78,7.88,11.69,9.23,5.67,1.56,11.44.8,16.83-1.4,7.17-2.92,13.24-7.94,19.1-12.84.57.96,1.14,1.92,1.7,2.89-10.12,3.37-18.34,11.58-21.99,21.44-1.73,4.68-2.97,10.49-1.63,15.42,1.71,6.28,8.78,6.14,14.15,6.02,13.07-.28,26.05-2.83,38.28-7.38,11.34-4.23,22.39-10.18,31.35-18.31,9.14-8.3,16.35-19.27,16.43-31.88.01-2.22,3.51-2.23,3.5,0h0Z"/><path class="cls-23" d="M440.21,563.49s-.11-.77-.33-2.11c-1.71-10.05-9.04-39.29-37.94-34.43s5.36,43.58,5.36,43.58c0,0,8.56-18.54,32.91-7.04Z"/><path class="cls-31" d="M424.53,543.98c-15.62-3.71-14.79,16.98-14.79,16.98v5.96s8.4-13.11,30.47-3.44c0,0-3.76-16.68-15.68-19.51Z"/><path class="cls-12" d="M533.65,519.83s-9.93-24.82-80.03,51.85c0,0,1.51,31.31,26.33,20.56,0,0,22.12-48.01,53.7-72.4Z"/><path class="cls-12" d="M467.18,599.28s37.37,33.11,50.39,39.18,5.06-.68,5.06-.68c0,0-42.77-37.27-44.77-48.13-2-10.86-12.79-7.59-12.79-7.59,0,0-7.61,9.57,2.1,17.23Z"/><path class="cls-14" d="M1946.35,988.16c-6.91-17.29-33.26-23.89-52.45-34.33-23.01-12.51-37.82-33.52-38.9-55.19s11.61-43.49,33.31-57.32c-24.58-1.1-48.5,10.08-61.88,25.99-13.38,15.91-17.09,35.85-14.03,54.66,2.06,12.7,5.53,28.39-7.97,35.87-13.41,7.42-33.84-1.52-38.23-13.77s2.51-25.21,11.12-36.06c8.61-10.85,19.26-21.11,23.49-33.4,8.12-23.58-9.19-47.59-27.18-67.67-18-20.08-38.3-41.57-36.91-65.95-3.89,24.82-7.64,50.71,3.32,74.24,5.89,12.65,16.07,25.29,12.71,38.48-2.75,10.8-13.93,18.9-22.36,27.78-21.21,22.38-25.54,53.6-10.93,78.92-22.69-29.56-13.66-75.89-38.8-107.78-15.64-19.84-48.17-27.96-54.25-57.1-14.92,23.14,13.74,72.12,12.75,84.48-22.09-5.68-39.08-30.48-50.82-45.97-5.55,20.81-9.89,45.25,8.91,60.8,6.86,5.67,16.13,9.41,22.62,15.33,10.98,10.03,11.98,24.82,6.85,37.33-5.13,12.51-15.51,23.28-25.7,33.79-2.65-15.9-11.81-31.11-25.85-42.95-9.1-7.67-20.16-13.94-28.5-22.12-18.86-18.49-21.04-44.89-10.94-67.08,10.1-22.19,30.97-40.61,54.43-55.66-57.57,7.23-101.97,53.26-94.3,97.77,1.9,11.05,6.56,21.86,6.61,33.01.08,18.4-12.25,35.31-24.23,51.24,6.87-26.4-32.27-49.57-27.88-76.28,1.42-8.63,7.3-16.36,11.87-24.31,10.31-17.95,14.05-38.99,4.58-57.21-8.63-16.59-23.82-29.02-38.42-42.91-14.61-13.89-19.74-27.62-21.47-49.08.2,20.73.26,42.08-9.78,61.32-7.63,14.61-21.17,28.83-18.08,44.4,2.72,13.71,17.81,24.13,22.88,37.44,6.31,16.56-3.81,33.84-12.01,49.91-8.21,16.06-6.03,33.94-1.27,49.6-13.35-18.9-39.48-35.97-38.92-58.37.3-12.06,12.67-22.09,15.14-34.01,4.97-23.98-30.72-44.57-26.06-68.58-15.21,13.94-22.24,32.98-18.83,51,.84,4.46,2.28,9.06.64,13.38-1.82,4.82-7.07,8.31-11.52,11.98-22.65,18.68-27.12,49-10.48,71.11-19.14,8.68-46.2,1.7-57.69-12.93-11.49-14.63-8.53-34.34,4.05-48.44,13.97-15.66,38.86-26.37,44.1-44.93,3.49-12.37-2.93-25.12-2.31-37.77,1.39-28.22,35.59-47.89,66.4-63.22-36.62,3.38-79.95,10.55-93.39,36.99-9.48,18.66-.44,42.18-16.43,57.99-13.29,13.13-38.78,15.31-53.58,27.45-25.54,20.95-5.8,56.88-21.92,82.8,5.2-16.93-19.29-30.29-25.38-47.04-9.28-25.54,25.61-48.48,28.27-74.92,3.51-34.89-47.04-57.49-65.65-89.43-12.25-21.01-9.92-45.13-7.35-68.07-43.2,33.39-49.34,91.27-13.76,129.61-15.25-9.33-34.68-13.4-51.86-20.46-17.18-7.06-33.47-19.3-33-34.29-12.54,24.77-10.95,53.55,4.26,77.42-16.44-2.48-32.17-7.76-45.72-15.35-6.78,10.06-6.9,22.61-.32,32.75,6.15,9.49,18.07,19.31,12.42,28.98-6.04,10.31-25.35,9.02-39.52,6.02-6.54-1.38-13.55-3-17.73-7.11-7-6.88-2.64-17.19,4.4-24.05,7.04-6.86,16.58-12.46,20.95-20.53,12.22-22.54-20.79-52.63.6-70.67-31.08,11.36-54.86,33.92-62.89,59.67-2.2,7.07-3.36,14.5-8.09,20.79-6.55,8.72-18.91,13.88-26.84,21.89-17.64,17.8-8.96,43.15.47,64.33,6.61,14.84,13.22,29.67,19.83,44.51"/><path class="cls-14" d="M849.62,965.12c-24.51,2.05-47.98-11.61-58.06-28.92-10.08-17.32-9.01-37.33-3.9-55.9,2.98-10.85,7.29-22,4.19-32.84-4-14-19.23-24.08-31.31-34.98-22.95-20.71-32.13-47.37-37.31-74.77-1.32,40-26.43,77.8-27.07,118.94-.36,22.64,13.9,43.98,16.58,66.52,2.68,22.54-14.48,50.27-43.88,49.53,14.34-20.55-9.36-43.78-28.45-61.9-19.08-18.12-32.36-49.15-6.47-61.27-32.92.18-60.66,27.5-52.93,52.14,2.64,8.41,8.61,16.15,9.92,24.74,3.09,20.35-19.84,36.88-40.63,49.67,13.09-24.78-33.4-47.6-29.79-74.2,1.87-13.81,16.95-24.46,21.87-37.82,13.51-36.68-52.42-69.12-41.71-106.34,5.77,34.09-19.8,66.01-33.22,98.8-15.19,37.1-14.75,77.89,1.24,114.79-9.98-18.75-59.02-4-67.9-23.08-5.01-10.78,9.59-21.93,7.28-33.24-1.84-8.99-13.4-14.57-19.96-22.14-13-15.03-4.39-35.76,9.7-50.2,14.09-14.44,33.24-26.04,44.12-42.04,24.1-35.43.48-78.18-23-113.86,23.03,40.76-55.55,78.56-50.24,122.82-28.71-7.79-22.27-39.54-26.06-62.79-4.15-25.43-26.63-46.52-48.2-66.05-22.5,26.28-26.01,61.56-8.96,90.17,4.85,8.13,11.37,16.2,11.23,25.15-.15,8.95-6.19,30.44-10.36,42.93,5.97-33.63-61.66-71.23-60.16-122.31-27.79,18.09-6.76,52.86-12.86,80.48-2.35,10.66-9.08,20.59-10.63,31.33-3.52,24.31,19.25,45.46,35.52,66.46,16.27,21,24.47,52.04-.83,66.83-41.54-18.46-62.66-56.82-64.78-93.71-2.12-36.89,37.08-60,25.47-108.46-44.22,115.43-65.75,85.4-73.49,155.86,1.51-32.03-26.33-28.89-33.47-60.47-7.72-34.13-29.68-74.03-74.42-77.76,19.62,15.65,26.75,39.92,17.78,60.54-2.74,6.29-6.89,12.54-6.21,19.15,1.76,17.04,34.06,31.36,21.76,45.59-21.66-.56-40.39-16.88-38.47-33.5-11.92-7.36-24.14,9.07-24.75,20.82-4.98,95.68-9.97,191.35-14.95,287.03-1.01,19.42-.26,41.95,19.6,53.94,11.87,7.16,27.77,8.59,42.78,9.68,242.7,17.6,487.08,17.02,730.65,9.51,210.94-6.5,421.79-18.18,632.88-16.25,168.72,1.54,337.62,11.78,505.99,3.28,18.9-.95,38.98-2.49,53.92-11.45,21.36-12.81,25.24-36.2,25.77-57.04,1.68-66.15-17.11-120.7-47.88-182.48"/><polygon class="cls-2" points="1672.33 293.09 1797.2 425.05 1753.13 445.49 1855.2 568.86 1702 441.33 1753.21 417.58 1672.33 293.09"/><polygon class="cls-2" points="244.09 334.18 293.41 467.83 251.93 467.83 286.68 587.99 213.82 448.21 262.02 448.21 244.09 334.18"/><path class="cls-38" d="M521.75,349.02c0-10.4,10-23.3,29.4-23.3,6.4,0,13.6,2.8,15.1,2.8,1.4,0,2.8-1.4,4.9-1.4,3.4,0,11,7.7,11,16.1,0,3.4-2.2,6.8-5.9,6.8-6.7,0-10.6-11.4-21-11.4-3.1,0-6.4,1.4-6.4,5,0,7.9,13.7,5.8,25.3,13.5,6.2,4.1,9.3,9.1,9.3,16.6,0,11.7-9.6,24.9-32.9,24.9-6.6,0-17.9-1.7-23.6-4.8-4.8-2.7-7.1-13.3-7.1-18.4,0-2.7,1.2-5.4,4.2-5.4,7.1,0,5.9,15.9,24.3,15.9,2.2,0,7.7-1.1,7.7-4.9,0-7.2-13.7-5.4-24.8-14.3-5.5-4.4-9.5-10.5-9.5-17.7Z"/><path class="cls-38" d="M596.65,342.32c0-7.5-9.3-4.2-9.3-10.5,0-4,4.4-4.9,7.5-4.9,2.5,0,4.9.2,7.4.2,14.5,0,23.3-1.4,27.5-1.4,13.6,0,26.7,7.9,26.7,22.9s-12.6,22.9-26.5,22.9c-3,0-6-.5-8.7-.5-1.2,0-1.6.5-1.6,1.6v5.8c.3,12.5,7.6,7.3,7.6,13.1,0,6.5-14.4,6.8-18.9,6.8-4.2,0-19-.1-19-6.6,0-5.5,7.3-2.1,7.3-10.3v-39.1ZM623.45,337.52c-3.9,0-3.8,1.2-3.8,3.2v15c0,2.1-.9,4.4,4.5,4.4,6.6,0,9.2-5,9.2-11.1s-3.2-11.5-9.9-11.5Z"/><path class="cls-38" d="M667.95,357.23c0-12.7-1-15.6-2.1-17-2.3-2.9-6.2-3.2-6.2-7,0-7.2,20.4-7.2,22.4-7.2,6,0,18.3.2,18.3,7,0,3.6-3.8,3.4-6.1,6-1.9,2.2-2,11.2-2,18.2v9.9c0,17.8,1.2,17.4,3.2,18.6,2.5,1.5,4.9,2,4.9,5.1s-.9,7.5-22.8,7.5c-4.2,0-16.8-.1-16.8-6.5,0-3.2,3.4-3.7,5-5.6,1.2-1.4,2.2-5.1,2.2-19.1v-9.9Z"/><path class="cls-38" d="M713.25,397.23c-3.2,0-8.3.2-8.3-4.4,0-6.2,7.8-1,8.1-12.6.2-7.3.2-13.7.2-19.6s-.5-11.6-.7-17.2c-.2-8.4-9-4-9-9.7,0-7.3,15.7-7.7,20.6-7.7,20,0,21,3.4,21,6.8,0,5.8-7.9,1.4-7.9,10.8v31.8c0,7.2,1.2,10.7,8.3,10.7,17,0,11.2-13.9,17.6-13.9,4.5,0,6.2,4.8,6.2,8.6,0,7.8-5.6,17.8-10.2,17.8-1.8,0-3.2-.4-5-.7-1.9-.4-4.1-.7-7.5-.7h-33.4Z"/><path class="cls-38" d="M804.95,349.02c0-10.4,10-23.3,29.4-23.3,6.4,0,13.6,2.8,15.1,2.8,1.4,0,2.8-1.4,4.9-1.4,3.4,0,11,7.7,11,16.1,0,3.4-2.2,6.8-5.9,6.8-6.7,0-10.6-11.4-21-11.4-3.1,0-6.4,1.4-6.4,5,0,7.9,13.7,5.8,25.3,13.5,6.2,4.1,9.3,9.1,9.3,16.6,0,11.7-9.6,24.9-32.9,24.9-6.6,0-17.9-1.7-23.6-4.8-4.8-2.7-7.1-13.3-7.1-18.4,0-2.7,1.2-5.4,4.2-5.4,7.1,0,5.9,15.9,24.3,15.9,2.2,0,7.7-1.1,7.7-4.9,0-7.2-13.7-5.4-24.8-14.3-5.5-4.4-9.5-10.5-9.5-17.7Z"/><path class="cls-38" d="M880.25,397.23c-3.2,0-8.3.2-8.3-4.4,0-6.2,7.8-1,8.1-12.6.2-7.3.2-13.7.2-19.6s-.5-11.6-.7-17.2c-.2-8.4-9-4-9-9.7,0-7.3,15.7-7.7,20.6-7.7,20,0,21,3.4,21,6.8,0,5.8-7.9,1.4-7.9,10.8v31.8c0,7.2,1.2,10.7,8.3,10.7,17,0,11.2-13.9,17.6-13.9,4.5,0,6.2,4.8,6.2,8.6,0,7.8-5.6,17.8-10.2,17.8-1.8,0-3.2-.4-5-.7-1.9-.4-4.1-.7-7.5-.7h-33.4Z"/><path class="cls-38" d="M998.95,344.42c0-10.7-8.6-6.6-8.6-12.4,0-6.2,11.6-6,15.7-6,3.8,0,14.8,0,14.8,5.8s-7.5,2.2-7.5,11.3v27c0,4.5.1,28.5-34.5,28.5-39.4,0-35-30.4-35-31.6v-23.1c.4-6.3-6.4-6.3-6.4-10.9,0-1.4-1.1-7,19.5-7,16.3,0,19.6,3,19.6,6.9,0,7.2-7.3.5-7.8,12.7v18.4c0,11.9,4.5,19.5,15.1,19.5,15.8,0,15.1-13.1,15.1-14.2v-24.9Z"/><path class="cls-38" d="M1072.45,327.12c4.3,0,6.3-.4,7.8-.7,1.4-.4,2.2-.7,4.1-.7,3.9,0,12,7.7,12,18.5,0,5-2.6,8.3-7.7,8.3-8.7,0-8.6-11.8-13.7-11.8-3.9,0-3.5,5.4-3.5,6.2v30.7c0,11.9,9.2,6.2,9.2,13.2,0,3.1-1.9,7.5-20.6,7.5-5.1,0-23.8.2-23.8-7.5,0-5.3,6.2-3.2,8.2-7,1-2.1,1.4-8.1,1.5-10.6l.8-22.1c.4-10.5-1.7-10.4-3.1-10.4-4.5,0-6.7,11.8-14.8,11.8-3.9,0-6.2-3.6-6.2-7.2,0-8.5,7.2-19.6,12.9-19.6.7,0,1.8.3,3.7.7,1.9.3,4.6.7,8.6.7h24.6Z"/><path class="cls-2" d="M745.63,873.37c-6.39-22.94-17.19-47.2-1.88-63.81,5.49-5.95,13.17-9.39,19.27-14.71,13.69-11.92,17.59-31.25,26.23-47.22,12.75-23.57,35.73-39.54,57.88-54.62-10.04,9.21-14.56,24.02-11.38,37.27,2.75,11.46,10.8,22.29,8.53,33.86-2.69,13.74-18.66,21.31-22.84,34.67-3.37,10.75,2.96,23.59,13.53,27.47,10.57,3.89,23.7-1.8,28.1-12.18,8.23-19.42-12.57-43.84-1.2-61.6,8.47,12.88,25.28,19.67,40.32,16.26-9.01-24.92-7.8-53.37,3.31-77.43-1.34,18.75,15.45,34,32.7,41.44,17.26,7.44,36.6,10.46,52.13,21.04-13.17-25.27-26.72-53.86-18.54-81.15,7.81-26.06,34.36-45.73,34.35-72.93-6.27,36.96,2.83,76.28,24.7,106.73,17.35,24.16,43.86,48,38.61,77.27-3.43,19.13-20.58,35.92-16.63,54.95,1.23,5.93,4.45,11.21,7.16,16.62,22.32,44.56,9.05,101.87-25.17,138.11-34.22,36.23-85.7,52.85-135.54,52.41-16.61-.15-33.45-2.09-48.79-8.45-46.23-19.16-88.47-116.73-104.85-164.02"/><polygon class="cls-6" points="895.39 838.73 960.16 875.17 896.22 913.05 895.39 838.73"/><path class="cls-6" d="M895.61,859.11s-58.15,17.73-40.49,85.76c0,0,22.76,64.63,91.08,38.76,0,0,50.25-21.48,37.14-78.99l-20.01,5.7s10.1,43.84-33.18,55.21c-51.15,13.43-58.03-40.17-58.03-40.17,0,0-3-27.68,23.73-43.65"/><path class="cls-23" d="M819.23,726.25c-8.44,6.62-15.28,15.29-19.7,25.07-2.44,5.4-4,11.09-5.82,16.72s-4.07,10.92-7.39,15.81c-6.07,8.95-14.36,16.45-22.33,23.69-7.2,6.55-15.03,13.74-16.84,23.78-1.05,5.83-.1,11.58,1.81,17.13s4.41,10.81,5.82,16.49c.47,1.87,3.36,1.08,2.89-.8-2.4-9.66-8.44-18.67-7.97-28.92s7.9-17.78,15.13-24.39c7.78-7.11,15.73-14.29,22.11-22.72,3.37-4.45,6.03-9.29,8.01-14.51,2.08-5.51,3.5-11.25,5.54-16.78,4.14-11.22,11.45-21.08,20.85-28.44,1.52-1.19-.62-3.3-2.12-2.12h0Z"/><path class="cls-23" d="M905.78,726.82c-3.11,17.38.1,35.6,9.06,50.82.98,1.66,3.57.15,2.59-1.51-8.53-14.5-11.72-31.94-8.76-48.51.34-1.89-2.55-2.7-2.89-.8h0Z"/><path class="cls-23" d="M1055.61,778.08c-4.01,14.34-15.19,25.21-20.3,39.08-2.49,6.77-3.55,14.31-1.32,21.3s7.22,12.7,10.16,19.41c3.38,7.73,4.47,16.49,3.14,24.81-.3,1.89,2.59,2.7,2.89.8,1.18-7.36.71-14.92-1.52-22.05-1.11-3.53-2.65-6.9-4.5-10.1s-3.9-6.21-5.54-9.49c-3.39-6.76-3.48-14.01-1.32-21.17s6.16-13.58,10.15-19.87c4.4-6.92,8.83-13.95,11.06-21.93.52-1.86-2.37-2.66-2.89-.8h0Z"/><path class="cls-23" d="M511.37,574.58c26.11-15.61,52.89-30.08,80.25-43.35,7.74-3.75,15.52-7.4,23.35-10.96,1.75-.8.23-3.38-1.51-2.59-27.68,12.59-54.82,26.38-81.3,41.35-7.49,4.23-14.92,8.55-22.3,12.97-1.66.99-.15,3.58,1.51,2.59h0Z"/><path class="cls-23" d="M533.65,586.06c22.66-1.54,45.31-3.09,67.97-4.63,6.45-.44,12.9-.88,19.35-1.32,1.92-.13,1.93-3.13,0-3-22.66,1.54-45.31,3.09-67.97,4.63-6.45.44-12.9.88-19.35,1.32-1.92.13-1.93,3.13,0,3h0Z"/><path class="cls-23" d="M519.1,604.73c26.18,14.63,52.98,28.17,80.3,40.55,7.72,3.5,15.49,6.91,23.3,10.23.75.32,1.6.22,2.05-.54.38-.63.21-1.74-.54-2.05-27.64-11.75-54.79-24.65-81.35-38.68-7.46-3.94-14.88-7.98-22.25-12.09-1.69-.94-3.2,1.65-1.51,2.59h0Z"/></svg>