<?xml version="1.0" encoding="UTF-8"?><svg id="Vundet" xmlns="http://www.w3.org/2000/svg" width="1920" height="1080" viewBox="0 0 1920 1080"><defs><style>.cls-1{fill:#fff8f0;}.cls-2{fill:#ff8ab7;}.cls-3{fill:#d4abf4;}.cls-4{fill:#7878ff;}.cls-5{fill:#4390ff;}.cls-6{fill:#a4eeff;}.cls-7{fill:#ffd78f;}.cls-8{fill:#efabff;stroke:#9c51af;stroke-miterlimit:10;}.cls-9{fill:#cae5ff;}.cls-10{fill:#ff1796;}.cls-11{fill:#c6287b;}.cls-12{fill:#fcfce6;}.cls-13{fill:#fff3fc;}.cls-14{fill:#aaa;}.cls-15{fill:#fee;}.cls-16{fill:#f6a713;}.cls-17{fill:#ff15de;}.cls-18{fill:#f78be8;}.cls-19{fill:#ea9b9b;}.cls-20{fill:#aa3c3c;}.cls-21{fill:#e5006e;}.cls-22{fill:#ffb6f1;}.cls-23{fill:#fff;}.cls-24{fill:#ff0;}.cls-25{fill:#fffef8;}.cls-26{fill:#350d0d;}.cls-27{fill:#ffc7c7;}.cls-28{fill:#211c1c;}.cls-29{fill:#f74d4d;}.cls-30{fill:#ffef9f;}.cls-31{fill:#26231c;}.cls-32{fill:#fff98f;}.cls-33{fill:#ffdee3;}.cls-34{fill:#71bfff;}.cls-35{fill:#bcbcf7;}.cls-36{fill:#d311af;}.cls-37{fill:#ff48ff;}.cls-38{fill:#a148ff;}</style></defs><rect class="cls-38" x="-31.72" y="-28.83" width="1991.31" height="835.47" rx="12" ry="12"/><path class="cls-37" d="M-1.2,782.94c-10.15-55.91-12.85-97.55,32.17-132.22,25.21-19.41,60.87-21.51,90.89-10.97s55.01,32.16,75.58,56.42c7.22-46.26,48.03-85.14,94.59-90.12,46.56-4.98,94.66,24.4,111.5,68.09,3.4-25.64,30.74-45.44,56.17-40.67,10.83,2.03,20.58,7.71,30.98,11.33,17.69,6.14,36.82,6.21,55.54,6.2,331.88-.1,663.76-.21,995.65-.31,15.25,0,30.83-.06,45.22-5.1,9.86-3.45,18.79-9.11,28.29-13.46,52.11-23.82,120.87-.38,147.58,50.31,34.04-24.95,82.56-40.19,117.49-16.5,32.54,22.07,38.4,66.78,41.25,105.99,7.87,108.42,15.73,216.84,23.6,325.26-147.66,46.61-305.17,48.58-460,50.15-420.42,4.25-840.85,8.5-1261.3,8.19-66.42-.05-133.15-.23-198.8-10.29-21.39-3.28-44.22-8.47-58.59-24.65-10.49-11.8-14.84-27.74-17.97-43.21-20.22-99.82-1.97-206.94,50.17-294.43"/><path class="cls-33" d="M80.79,216.87c-12.54-17.11-22.38-37.6-13.34-56.79,9.04-19.19,30.98-30.69,52.17-29.68,21.19,1.01,40.97,13.36,53.43,30.53-.26-27.34,19.61-54.42,46.46-59.63,26.84-5.21,56.77,14.78,59.7,41.96,12.12-16.49,31.64-29.96,51.85-26.73s35.07,29.98,21.83,45.59c13.34-3.21,27.85-4.03,40.39,1.52,12.55,5.55,22.37,18.76,20.65,32.37-1.91,15.05-16.2,25.21-30.01,31.49-37.21,16.91-79.14,19.51-119.99,20.74-30.72.92-61.46,1.22-92.19.89-33.56-.36-72.43-4.28-90.95-32.26"/><path class="cls-13" d="M1248.47,130.39c-10.35-9.49-28.38-8.75-37.92,1.56-4.36,4.71-6.97,11.33-5.78,17.64s6.75,11.85,13.16,11.96c-13.7,2.76-29.37,13.1-26.3,26.74,2.83,12.58,18.82,16.14,31.69,16.87,72.84,4.12,145.84-1.51,218.58-7.14,6.16-.48,12.57-1.03,17.88-4.18s9.13-9.74,7.07-15.57c-2.21-6.24-9.68-8.72-16.26-9.35-9.57-.92-19.33.3-28.37,3.57,11.95-8.41,9.38-29.16-2.94-36.99-12.33-7.84-29.64-3.88-40.14,6.28,11.09-14.42-1.89-38.01-19.89-40.6s-35.34,11.01-42.46,27.75c-18.44-37.38-50.23-35.22-68.31,1.48"/><path class="cls-1" d="M453.22,135.1c-19.75-18.62-55.76-15.18-71.62,6.84s-7.72,57.27,16.21,70.1c13.8,7.4,30.18,7.59,45.84,7.61,86.72.11,173.45.21,260.17.32,14.34.02,28.97,0,42.58-4.51,27.47-9.09,44.62-23.71,43.39-52.63-.18-4.3.71-10.62-6.39-21.43-4.48-6.82-17.3-11.04-23.4-11.53-23.04-1.84-34.06,9.38-46.81,28.66,6.38-35.65-31.97-66.03-68.17-67.16-10.66-.33-21.85,1.23-30.56,7.39s-14.11,17.86-10.46,27.88c-5.16-19.01-14.89-36.77-28.15-51.34-12.49-13.72-29.74-16.89-39.66-15.21-18.29,3.09-29.08,15.71-28.97,34.42-14.68-11.61-35.35-18.79-52.12-10.48-16.77,8.31-11.73,38.67-1.87,51.07"/><path class="cls-13" d="M1542.29,360.7c-10.01-11.6-22.84-15.78-36.11-11.42-20.92,6.86-30.12,26.76-24.36,47.68,5.01,18.15,21.84,31.36,40,37.4s37.72,6.1,56.88,6.09c81.86-.03,163.72-.05,245.57-.08,7.27,0,15.07-.16,20.99-4.28,7.12-4.95,9.53-14.38,9.14-22.95-.9-19.71-14.86-38.28-33.8-44.97-18.94-6.69-41.71-1.09-55.12,13.57,15.21-25.52,12.78-62-10.36-81.08-23.13-19.08-65.46-11.07-74.66,17.09-5.26-22.99-27.8-42.1-51.74-40.51-23.94,1.58-44.23,26.78-37.34,49.36-6.93-9.98-17.15-18.32-29.23-20.59s-23.39,3.52-28.58,14.44c-5.59,11.75,1.52,31.32,8.72,40.27"/><path class="cls-33" d="M1471.09,155.56c-13.8-11.96-14.43-16-28.92-18.53-10.19-1.78-22.31-.09-33,10.02-9.37,8.85-12.98,24.46-14.04,33.34-2.6,21.67,1.82,32.89,17.16,48.42,15,15.19,38.67,16.54,60.01,16.88,87.48,1.39,174.98,1.71,262.47,2.03,16.11.06,33.11-.11,46.98-8.31,25.56-15.11,27.44-57.86,3.17-74.97-21.81-15.37-52.61-8.12-75.2,6.07,9.53-17.14,13.77-37.83,8.44-56.7-5.34-18.87-21.34-35.13-40.77-37.78-19.43-2.65-40.59,10.72-43.91,30.04-1.18-26.1-26.74-48.49-52.76-46.23-26.02,2.26-47.34,28.73-43.99,54.64-.3-25.22-35.15-40.14-56.16-26.18-21.01,13.96-23.89,46.55-9.47,67.25"/><path class="cls-13" d="M132.39,523.92c-11.51-6.63-19.98-6.23-25.89-3.64-10.25,4.48-15.12,17.47-11.42,28.02,3.71,10.55,13.77,17.86,24.46,21.15s22.09,3.16,33.27,3.01c16.4-.22,32.8-.44,49.2-.66,19.73-.27,39.47-.53,59.2-.8,31.15-.42,62.3-.84,93.45-1.26,11.39-.15,25.62-2.31,28.95-13.2,2.48-8.09-3.08-16.6-9.86-21.66-11.27-8.39-26.72-10.84-40.03-6.34,11.88-16.35,5.45-42.74-12.62-51.79-18.07-9.05-43.06,1.6-49.03,20.91-1.31-22.26-18.49-44.01-40.7-45.88-22.22-1.87-44.14,21.43-37.18,42.61-9.45-8.32-20.69-15.2-33.16-16.9-12.47-1.7-26.26,2.62-33.5,12.92-7.24,10.3-5.66,26.58,4.85,33.5"/><polygon class="cls-37" points="136.2 151.73 118.74 103.39 67.37 105.06 107.95 73.51 90.49 25.17 133.03 54.01 173.61 22.46 159.32 71.84 201.87 100.69 150.49 102.36 136.2 151.73"/><polygon class="cls-37" points="760.01 153.71 738.85 120.2 700.44 129.96 725.77 99.49 704.62 65.97 741.43 80.65 766.76 50.17 764.18 89.72 801 104.39 762.59 114.16 760.01 153.71"/><polygon class="cls-37" points="1118.91 174.87 1083.17 144.45 1043.19 169.05 1061.08 125.65 1025.33 95.24 1072.13 98.83 1090.01 55.44 1101.05 101.06 1147.85 104.66 1107.87 129.25 1118.91 174.87"/><polygon class="cls-37" points="1637.07 264.35 1589.67 235.61 1547.69 271.82 1560.38 217.85 1512.97 189.12 1568.21 184.5 1580.9 130.54 1602.35 181.65 1657.59 177.04 1615.62 213.24 1637.07 264.35"/><polygon class="cls-37" points="1760.64 119.85 1793.8 94.27 1779.72 54.82 1814.3 78.46 1847.47 52.87 1835.67 93.07 1870.26 116.7 1828.38 117.91 1816.59 158.1 1802.51 118.65 1760.64 119.85"/><polygon class="cls-37" points="1781.59 354.92 1800.46 323.25 1776.16 295.51 1812.12 303.67 1830.99 271.99 1834.34 308.71 1870.3 316.86 1836.42 331.4 1839.77 368.12 1815.48 340.38 1781.59 354.92"/><polygon class="cls-37" points="416.66 506.32 390.97 491.86 369.29 511.82 375.1 482.93 349.42 468.47 378.69 465.07 384.51 436.17 396.79 462.97 426.07 459.56 404.38 479.53 416.66 506.32"/><polygon class="cls-37" points="140.56 377.48 103.22 372.38 86.83 406.32 80.14 369.23 42.79 364.13 76 346.3 69.31 309.21 96.53 335.29 129.74 317.46 113.35 351.4 140.56 377.48"/><path class="cls-18" d="M910.7,559.79c-50.34-40.3-124.89-47.45-181.97-17.47-16.92,8.89-34.07,24.63-31.4,43.55-33.55-8.8-69.95-17.45-102.05-4.31-32.1,13.15-52.33,58.43-28.59,83.71-37.65-8.53-79.99-12.15-112.26,9.05-32.27,21.2-42.58,75.95-10.37,97.24-40.44,1.12-89.64,16.68-96.21,56.6-5.26,31.92,22.74,61.53,53.84,70.46,31.1,8.93,71.28,16.09,103.6,17.59,98.62,4.58,155.11,1.33,238.06,6.21,98.36,5.78,180.34.67,284.86.66,187.76-.03,372.5-8.05,500.72-14.68,133.44-6.9,137.29-17.14,176.68-31.85,39.39-14.71,71.82-58.75,56.94-98.08-10.35-27.36-38.89-42.82-65.88-54.07,32.61-29.34,49.02-79.18,30.66-119.02-18.36-39.84-76.22-58.53-109.67-30.15,17.65-41.42-3.12-95.07-44.06-113.82-40.94-18.75-95.12.58-114.96,41,7.78-48.57-36.36-95.64-85.33-100.18-48.97-4.54-96.58,26.29-122.27,68.23-21.01-44.94-72.9-73.27-122.07-66.63-49.17,6.63-91.69,47.7-100.04,96.6-5.41-20.75-16.41-40.63-33.68-53.34s-41.31-17.14-60.77-8.12c-20.83,9.66-32.92,32.64-35.75,55.43-2.83,22.79,2.09,45.75,6.97,68.19"/><path class="cls-22" d="M926.6,581.84c-47.09-37.69-116.81-44.38-170.21-16.34-15.83,8.31-31.87,23.04-29.37,40.74-31.38-8.23-65.43-16.33-95.45-4.03-30.02,12.3-48.94,54.65-26.74,78.3-35.22-7.98-74.82-11.36-105,8.46-30.18,19.83-39.82,71.04-9.7,90.96-37.83,1.05-83.84,15.6-89.99,52.94-4.92,29.86,21.27,57.55,50.35,65.9,29.09,8.35,66.67,15.05,96.9,16.46,92.24,4.29,145.08,1.25,222.66,5.81,92,5.41,168.67.63,266.44.62,175.62-.03,348.41-7.53,468.34-13.73,124.81-6.46,128.41-16.04,165.25-29.79,36.85-13.76,67.18-54.95,53.26-91.74-9.68-25.59-36.37-40.05-61.62-50.58,30.5-27.44,45.85-74.06,28.68-111.32-17.18-37.26-71.29-54.74-102.58-28.2,16.5-38.74-2.92-88.93-41.21-106.46-38.29-17.53-88.97.54-107.53,38.35,7.27-45.43-34.01-89.46-79.81-93.7-45.81-4.24-90.34,24.59-114.37,63.81-19.65-42.04-68.19-68.53-114.17-62.32-45.99,6.21-85.76,44.61-93.57,90.36-5.06-19.41-15.35-38-31.5-49.89-16.16-11.88-38.64-16.03-56.84-7.6-19.49,9.03-30.79,30.53-33.44,51.85-2.64,21.31,1.95,42.79,6.52,63.78"/><path class="cls-1" d="M1293.44,875.52c-25.58-24.12-72.21-19.67-92.76,8.86-20.55,28.53-9.99,74.17,20.99,90.78,17.87,9.58,39.09,9.83,59.36,9.86,112.32.14,224.64.27,336.95.41,18.57.02,37.51-.01,55.14-5.84,35.58-11.77,57.79-30.71,56.19-68.16-.24-5.56.92-13.76-8.28-27.75-5.8-8.83-22.4-14.3-30.31-14.93-29.84-2.38-44.11,12.15-60.62,37.12,8.27-46.17-41.41-85.52-88.29-86.98-13.81-.43-28.3,1.59-39.58,9.58-11.28,7.98-18.28,23.13-13.54,36.11-6.68-24.63-19.29-47.62-36.46-66.49-16.17-17.77-38.52-21.87-51.36-19.7-23.69,4-37.66,20.35-37.52,44.58-19.01-15.03-45.78-24.34-67.5-13.58-21.72,10.76-15.19,50.09-2.42,66.14"/><path class="cls-21" d="M1041.12,708.48s78.76-64.63,111.52-199.23c32.77-134.6,103.67-185.2,103.67-185.2l247.68,138.64s-86.57,69.47-107.6,192.22c-21.02,122.75-107.6,192.22-107.6,192.22l-247.68-138.64Z"/><path class="cls-12" d="M1137.88,557.99l101.99,57.09s-7.61,71.4-87.23,155.83l33.72,18.87s77.59-74.73,87.23-155.83l112.61,63.03,5.83-20.88,4.38-21.2-108.93-60.97s-1.12-113.03,102.53-195.05l-36.43-20.39s-82.37,58.92-103.71,194.4l-99.26-55.56-12.72,40.68Z"/><polygon class="cls-21" points="1321.31 806.64 1470.94 800.76 1471.49 789.77 1322.07 774.79 1321.31 806.64"/><polygon class="cls-21" points="1413.12 521.05 1468.26 694.77 1480.51 690.87 1443.49 512.13 1413.12 521.05"/><polygon class="cls-21" points="1229.87 806.5 1288.33 903.44 1304.41 891.25 1248.8 802.37 1229.87 806.5"/><polygon class="cls-21" points="1430.17 391.92 1405.92 494.52 1425 501.08 1447.77 403.52 1430.17 391.92"/><path class="cls-15" d="M1282.04,880.25c5.27-3.43,14.79-9.74,20.03-7.69,4.19,1.64,5.49,6.5,7.12,10.66,1.55,3.96,2.91,7.76,4.46,11.72.78,1.98,1.86,3.94,3.18,5.6,2.67,3.35,7.67,4.66,11.84,5.96l24.71,7.65c3.03.94,4.86,4.03,3.95,7.17-1.11,3.83-5.61,4.45-9.16,4.17-6.39-.51-12.58-2.27-18.12-5.16-3.03,4.64,1.62,9.8,5.85,12.78,4.84,3.42,9.68,6.83,14.52,10.25,4.19,2.96,8.69,8.73,4.33,12.67-2.39,2.16-5.92,2.32-8.34.57l-23.58-17.02c-.32,8.14,4.13,15.44,9.74,20.96,2.34,2.3,4.97,4.5,5.52,8,.32,2.06-.45,4.29-2.27,5.56-3.95,2.76-8.56-1.47-10.96-5.29-4.44-7.05-8.89-14.1-13.33-21.16-3.66,9.45,5.77,18.94,4.89,28.35-.24,2.61-3.06,4.45-5.41,3.43-1.13-.49-2.14-1.28-2.87-2.24-1.66-2.16-2.25-4.97-2.8-7.68-1.12-5.56-3.3-10.73-4.43-16.29-.64-3.15-.65-3.01-2.77-6.08.72,4.21-.67,9.55-.2,13.81.2,1.8.71,7.02-2.97,8.4-1.39.52-2.89.11-3.79-.94-3.92-4.55-3.45-9.24-3.99-15.42-.41-4.71-.13-9.51.7-14.27,2.19-12.66-2.94-25.63-12.77-32.98-4.15-3.1-9.73-7.23-7.45-12.24.7-1.54,1.79-3.65,3.1-4.76,3.67-3.14,6.8-5.57,11.28-8.48"/><path class="cls-27" d="M1282.8,881.55c3.98-2.59,8.04-5.34,12.54-6.95,1.78-.64,3.86-1.27,5.75-.78,2.2.57,3.57,2.57,4.53,4.49,1.2,2.42,2.05,5.06,3.01,7.58,1.2,3.15,2.33,6.32,3.59,9.45,1.05,2.61,2.42,5.33,4.51,7.28,1.88,1.76,4.25,2.86,6.64,3.74,5.03,1.85,10.27,3.24,15.39,4.82,4.74,1.47,9.55,2.8,14.24,4.41,2.31.79,3.75,3.27,2.82,5.64-.84,2.15-3.4,2.71-5.47,2.8-3.21.13-6.53-.51-9.63-1.28-3.43-.86-6.73-2.1-9.87-3.72-.73-.38-1.61-.18-2.05.54-5.06,8.25,6.62,15,12.04,18.82,2.02,1.42,4.03,2.85,6.05,4.27,1.79,1.26,3.64,2.45,5.19,4.02,2.37,2.41,4.74,6.53.9,8.84-3.61,2.17-6.72-.91-9.48-2.9-3.88-2.8-7.77-5.61-11.65-8.41-2.73-1.97-5.47-3.95-8.2-5.92-.97-.7-2.23.25-2.26,1.3-.14,4.8,1.23,9.46,3.6,13.61s5.67,7.3,8.92,10.73c1.45,1.52,2.87,3.45,2.8,5.66-.06,1.94-1.49,3.88-3.55,3.9s-3.97-1.73-5.27-3.19c-1.76-1.96-3.03-4.37-4.42-6.59-3.53-5.6-7.06-11.2-10.59-16.8-.72-1.15-2.3-.84-2.74.36-3.29,8.87,3.45,16.81,4.74,25.31.26,1.71.57,4.1-1.07,5.22-1.87,1.27-3.94-.64-4.88-2.19-1.32-2.17-1.69-4.74-2.22-7.18-.6-2.75-1.45-5.44-2.27-8.12-.88-2.88-1.6-5.77-2.26-8.7-.46-2.02-1.5-3.53-2.67-5.21-1-1.44-3-.52-2.74,1.16.68,4.38-.67,8.82-.27,13.22.19,2.12.66,5.54-1.43,6.91-3.56,2.34-5.51-5.53-5.78-7.75-.56-4.52-.86-9.26-.65-13.81s1.41-9.27,1.31-13.97c-.09-4.06-.85-8.14-2.29-11.94s-3.49-7.37-6.13-10.5-5.97-5.27-9.02-7.95c-1.48-1.3-3.12-2.86-3.66-4.82s.72-4.09,1.81-5.71c1.36-2.01,3.7-3.53,5.59-5,2.13-1.65,4.34-3.19,6.6-4.66,1.61-1.05.11-3.65-1.51-2.59-2.2,1.43-4.35,2.93-6.43,4.53-1.9,1.46-4.02,2.93-5.66,4.68-2.89,3.1-4.65,7.61-2.46,11.52s6.18,5.95,9.36,8.77c3.37,3,6.03,6.69,7.89,10.8s2.83,8.59,2.9,13.07c.08,5.19-1.29,10.25-1.37,15.45-.04,2.7.21,5.37.38,8.05.14,2.19.25,4.41.71,6.56.79,3.76,3.47,9.57,8.2,8.56,4.11-.88,5-5.5,4.73-9.06-.17-2.3-.17-4.51.02-6.81.23-2.79.47-5.55.04-8.34l-2.74,1.16c1.15,1.66,2.05,2.99,2.47,4.97.62,2.94,1.42,5.8,2.3,8.67s1.75,5.8,2.36,8.78c.55,2.66,1.2,5.42,2.87,7.63,1.41,1.88,3.71,3.52,6.17,3.22,2.12-.26,3.97-1.8,4.65-3.83.72-2.15.27-4.82-.22-6.97-.53-2.34-1.39-4.59-2.26-6.82-1.91-4.93-4.16-10.23-2.21-15.49l-2.74.36c3.49,5.53,6.97,11.06,10.46,16.59,2.64,4.19,5.54,10.09,10.89,11.3s8.87-3.78,7.89-8.54-6.02-8.06-9.03-11.8c-3.75-4.66-6.28-10.32-6.1-16.38l-2.26,1.3c6.46,4.67,12.93,9.33,19.39,14,3.06,2.21,5.95,4.95,10.06,4.3,3.86-.61,7.02-4.02,6.41-8.03s-3.76-6.93-6.75-9.08c-4.81-3.46-9.7-6.8-14.52-10.25-3.11-2.23-7.87-6.56-5.31-10.73l-2.05.54c5.93,3.06,12.5,4.97,19.17,5.39,4.77.3,10.36-1.47,10.59-7.08.16-3.87-2.69-6.43-6.1-7.48l-7.79-2.41c-5.36-1.66-10.72-3.32-16.08-4.98-2.24-.69-4.53-1.31-6.67-2.29-2.82-1.29-4.71-3.14-6.2-5.85-1.73-3.13-2.78-6.69-4.03-10.02-1.05-2.77-2.06-5.58-3.2-8.31s-2.56-5.29-5.11-6.79c-2.27-1.34-4.85-1.3-7.34-.69-5.55,1.36-10.54,4.79-15.26,7.87-1.61,1.05-.11,3.65,1.51,2.59h0Z"/><path class="cls-15" d="M1397.4,501.09c-5.45-3.14-15.31-8.92-20.46-6.61-4.12,1.85-5.18,6.76-6.61,10.98-1.36,4.02-2.53,7.87-3.89,11.89-.68,2.01-1.67,4.02-2.91,5.74-2.5,3.47-7.45,5.04-11.58,6.54l-24.39,8.9c-2.99,1.09-4.67,4.26-3.6,7.34,1.3,3.75,5.85,4.13,9.39,3.67,6.38-.84,12.5-2.92,17.9-6.08,3.27,4.46-1.14,9.83-5.23,13.02-4.68,3.65-9.36,7.3-14.04,10.95-4.06,3.16-8.28,9.13-3.7,12.83,2.5,2.03,6.05,2,8.39.13l22.79-18.16c.73,8.08-3.37,15.57-8.71,21.36-2.23,2.41-4.76,4.73-5.13,8.25-.22,2.07.67,4.24,2.55,5.41,4.09,2.54,8.51-1.91,10.73-5.83,4.1-7.25,8.2-14.49,12.31-21.74,4.14,9.22-4.84,19.14-3.49,28.46.38,2.58,3.29,4.27,5.59,3.13,1.11-.55,2.08-1.39,2.77-2.38,1.56-2.23,2.01-5.06,2.42-7.79.85-5.59,2.77-10.85,3.62-16.44.48-3.17.5-3.03,2.48-6.2-.51,4.22,1.15,9.47.89,13.73-.11,1.8-.36,7.02,3.4,8.2,1.42.45,2.9-.04,3.76-1.13,3.71-4.73,3-9.38,3.23-15.55.18-4.71-.35-9.47-1.41-14.16-2.83-12.48,1.66-25.65,11.15-33.47,4.01-3.31,9.39-7.7,6.86-12.57-.78-1.5-1.98-3.53-3.34-4.58-3.84-2.93-7.1-5.19-11.73-7.85"/><path class="cls-27" d="M1398.16,499.79c-7.14-4.11-20.31-12.65-26.28-2.51-1.32,2.25-2.02,4.82-2.83,7.28-1.11,3.36-2.18,6.72-3.29,10.08-1,3.05-2.05,6.4-4.43,8.68-1.93,1.86-4.54,2.92-7.02,3.85-5.36,2.01-10.75,3.92-16.12,5.88-2.98,1.09-5.97,2.18-8.95,3.26-2.56.93-5.07,1.85-6.37,4.52s-.86,5.94,1.22,8.02c1.92,1.91,4.82,2.41,7.42,2.33,7.08-.21,14.42-2.92,20.5-6.43l-2.05-.54c2.54,3.67-.96,7.69-3.68,10.11-3.79,3.38-8.04,6.34-12.04,9.47-3.32,2.59-6.89,5.11-8.64,9.11-1.55,3.55-.63,7.35,2.86,9.31,3.02,1.7,6.64,1.32,9.33-.8.9-.71,1.79-1.43,2.69-2.14,3.81-3.04,7.63-6.08,11.44-9.12,2.86-2.28,5.73-4.56,8.59-6.84l-2.56-1.06c.43,5.33-1.24,10.39-4.07,14.86-1.44,2.27-3.15,4.31-4.99,6.27-1.69,1.8-3.35,3.65-4.23,5.99-1.7,4.48.93,10.32,6.26,10.13s8.44-5.87,10.73-9.92c3.61-6.38,7.22-12.75,10.83-19.13h-2.59c1.9,4.41.39,9.26-1.02,13.57s-3.28,9.16-2.69,13.96c.27,2.22,1.62,4.06,3.75,4.84,2.31.85,4.58-.16,6.27-1.78,1.93-1.85,2.82-4.51,3.32-7.07.59-2.97,1.03-5.93,1.76-8.87.81-3.25,1.71-6.48,2.23-9.8.16-1.03.25-2.15.64-3.13.41-1.04,1.14-2,1.73-2.94l-2.8-.76c-.5,4.7,1.09,9.33.87,14.03-.14,2.97.19,6.51,2.75,8.44,1.6,1.21,3.85,1.51,5.64.5s3.03-3.4,3.76-5.33c1.56-4.09,1.17-8.8,1.27-13.1.06-2.77-.12-5.53-.49-8.27s-1.03-5.24-1.44-7.88c-.69-4.51-.37-9.19.84-13.58s3.15-8.21,5.89-11.61,6.79-5.9,9.69-9.36c1.47-1.75,2.72-3.83,2.74-6.18s-1.46-4.76-2.9-6.62c-1.58-2.04-3.96-3.49-6.06-4.95-2.43-1.7-4.94-3.27-7.51-4.75-1.67-.97-3.19,1.62-1.51,2.59,3.98,2.3,7.99,4.78,11.54,7.71,1.43,1.18,2.92,3.31,3.34,5.14.4,1.7-.51,3.37-1.53,4.67-2.51,3.21-6.11,5.35-8.83,8.37s-4.87,6.52-6.41,10.3-2.42,7.88-2.6,11.98c-.2,4.54.87,8.74,1.59,13.18.79,4.84.64,9.67.54,14.55-.04,1.87-.11,3.74-.59,5.56-.41,1.57-1.31,4.21-2.86,5.02s-3.03-.69-3.48-2.08c-.44-1.32-.46-2.73-.4-4.1.2-4.76-1.37-9.45-.86-14.2.17-1.57-2.07-1.92-2.8-.76-.92,1.47-1.92,2.91-2.3,4.63-.54,2.47-.85,4.97-1.45,7.43-.66,2.72-1.42,5.42-1.99,8.16-.53,2.54-.71,5.17-1.52,7.64-.59,1.8-2.21,4.8-4.52,4.55-2.12-.23-2.45-2.33-2.44-4.06.02-4.38,1.87-8.56,3.16-12.68,1.5-4.8,2.32-9.7.26-14.46-.46-1.06-2.08-.9-2.59,0-2.91,5.15-5.83,10.29-8.74,15.44-1.36,2.41-2.63,4.91-4.13,7.24-1.14,1.77-2.68,3.59-4.63,4.49s-3.91.21-4.86-1.64c-1.03-2.03-.18-4.32,1.01-6.07,1.26-1.85,2.99-3.36,4.44-5.07,1.52-1.79,2.92-3.7,4.11-5.73,2.71-4.64,4.28-9.94,3.85-15.34-.11-1.37-1.53-1.88-2.56-1.06-6.04,4.81-12.07,9.62-18.11,14.43-2.27,1.81-5,4.91-8.11,4.67-1.69-.13-3.58-1.14-4.19-2.8-.55-1.49.14-3.15.9-4.43,2.15-3.61,5.99-5.98,9.23-8.5,2.28-1.78,4.55-3.55,6.83-5.33,1.95-1.52,3.92-2.99,5.54-4.87,2.8-3.24,4.77-7.72,2.06-11.64-.46-.67-1.31-.97-2.05-.54-5.35,3.09-11.43,5.26-17.59,5.92-1.97.21-4.36.27-6.08-.87-1.83-1.21-2.17-3.8-.96-5.58,1.13-1.64,3.3-2.11,5.07-2.75,2.92-1.06,5.84-2.13,8.76-3.19,4.68-1.71,9.35-3.42,14.03-5.11,2.45-.89,4.95-1.79,7.17-3.17s4.01-3.36,5.3-5.75c1.52-2.81,2.38-5.93,3.35-8.95s1.93-5.89,2.88-8.84c.8-2.47,1.62-5.28,3.63-7.06,1.69-1.49,3.81-1.55,5.93-1.11,5.26,1.09,10.06,4.04,14.66,6.69,1.68.96,3.19-1.63,1.51-2.59h0Z"/><path class="cls-4" d="M1098.27,615.94s-59.58-37-145.06-22.26c-60.32,10.4-97.01,39.7-109.96,51.78-4.2,3.92-8.77,7.4-13.61,10.49-17.72,11.3-60.24,39.78-92.68,72.25-65.51,65.58-111.21,72.72-111.21,72.72,0,0,236.7-6.08,268.03-9,47.64-4.44,140.53-8.82,140.53-8.82,0,0,25.61.57,48.71-.97,22.72-1.52,22.75-9.56,22.75-9.56l-7.51-156.63Z"/><path class="cls-35" d="M1100.48,674.66c-6.83-1.58-12.31-7.27-13.76-14.29-1.45-7.01,1.2-15.06,6.64-20.18,1.51-1.42,3.32-2.79,3.83-4.78.56-2.18-.66-4.24-1.75-6.08-3.03-5.11-5.44-10.86-5.4-17.03.04-6.18,2.96-12.83,8.34-16.06,5.38-3.23,13.1-1.79,15.42,3.73,1.68-6.61,10.77-9.53,16.1-6.02s6.76,11.26,4.8,17.81c-1.96,6.55-6.64,12.06-11.64,16.8,8.28.2,14.31,9.76,11.28,17.91-1.99,5.36-7.05,9.76-7.33,15.37-.46,9.15,12.05,14.44,10.53,23.55-1.09,6.51-8.9,10.47-10.33,16.93-2.03,9.19,9.48,14.29,12.34,22.86,2.42,7.28-3.12,16.72-10.76,18.34,8.15,7.01,10.82,19.92,6.32,30.58-1.7,4.02-7.35,7.93-9.4,4.38,1.57,6.44-1.15,14.82-7.48,17.3-6.33,2.48-13.71-5.26-9.68-10.92-7.11,4.93-17.15-.46-18.93-8.6s2.73-17.05,8.95-23.15c-11.85-4.08-14.36-23.1-4.2-31.86-5.39-1.56-9.4-6.65-9.82-12.44-.42-5.79,2.78-11.97,7.83-15.12-4.65-2.78-8.65-7.14-9.5-12.69-.85-5.55,2.35-12.21,7.77-13.92-6.65-8.99-7.97-22-3.37-33.04"/><path class="cls-35" d="M652.78,792.67c-3.95-4.5-1.56-12.91-7.02-15.49-2.1-.99-4.5-.54-6.69-.07-3.86.83-7.8,1.69-11.13,3.63-3.33,1.95-6.03,5.2-6.19,9.04-.1,2.42.79,4.82,1.66,7.15,1.45,3.85,2.9,7.71,4.34,11.56,1.27,3.38,2.89,7.13,6.31,8.62,3.6,1.57,7.65-.12,10.54-2.41,2.89-2.29,5.3-5.23,8.76-6.68,1.07-.45,2.26-.77,3.01-1.62,1.66-1.86.19-4.88-1.55-6.88-1.74-2-3.91-4.2-3.58-6.69"/><polygon class="cls-7" points="801.02 744.67 791.23 744.46 787.31 753.97 785.18 744.34 775.38 744.13 783.86 738.38 781.72 728.74 789.1 734.83 797.57 729.07 793.65 738.58 801.02 744.67"/><polygon class="cls-7" points="872.09 766 863.47 769.41 863.37 778.64 858.14 771.52 849.52 774.93 854.91 767.13 849.69 760.01 858.24 762.3 863.63 754.49 863.53 763.71 872.09 766"/><polygon class="cls-7" points="734.42 780.43 730.99 778.67 728.06 781.6 728.88 777.59 725.46 775.84 729.39 775.11 730.2 771.11 731.81 774.67 735.74 773.94 732.81 776.87 734.42 780.43"/><polygon class="cls-7" points="862.17 671.85 855.63 667.74 849.31 673.15 851.59 665.2 845.05 661.1 853 660.29 855.27 652.35 857.91 659.8 865.85 659 859.53 664.4 862.17 671.85"/><polygon class="cls-7" points="990.58 725.43 989.9 727.32 991.41 728.43 989.48 728.49 988.8 730.38 988.29 728.53 986.37 728.58 987.97 727.38 987.46 725.52 988.97 726.63 990.58 725.43"/><polygon class="cls-7" points="938.64 697.45 933.15 692.28 926.25 696.42 929.76 689.09 924.27 683.92 931.93 684.56 935.44 677.24 936.66 684.96 944.32 685.6 937.42 689.73 938.64 697.45"/><polygon class="cls-7" points="1061.74 742.93 1056.18 737.95 1049.43 742.2 1052.74 734.88 1047.19 729.9 1054.8 730.35 1058.11 723.04 1059.5 730.63 1067.11 731.09 1060.35 735.33 1061.74 742.93"/><polygon class="cls-7" points="966.92 772.36 965.62 775.76 968.29 777.84 964.82 777.86 963.51 781.27 962.67 777.88 959.19 777.9 962.14 775.79 961.29 772.4 963.97 774.48 966.92 772.36"/><polygon class="cls-7" points="922.82 747.78 917.51 748.95 916.59 754.41 914.23 749.68 908.92 750.85 912.78 746.75 910.43 742.01 915.16 744.22 919.02 740.12 918.09 745.58 922.82 747.78"/><polygon class="cls-7" points="1027.2 669.2 1019.59 666.87 1014.52 673.74 1014.89 665.42 1007.28 663.09 1015.12 660.28 1015.49 651.97 1019.96 658.55 1027.8 655.75 1022.73 662.62 1027.2 669.2"/><polygon class="cls-7" points="963.72 625.35 959.64 623.71 956.56 627.32 957.11 622.71 953.03 621.07 957.45 619.86 958 615.25 960.19 619.1 964.62 617.89 961.54 621.49 963.72 625.35"/><polygon class="cls-7" points="1077.06 626.75 1068.21 632.95 1070.62 643.06 1062.74 636.79 1053.89 642.99 1057.87 632.91 1049.99 626.63 1060.33 626.68 1064.31 616.59 1066.72 626.7 1077.06 626.75"/><polygon class="cls-7" points="1026 715.1 1021 717.79 1021.61 723.3 1017.92 719.45 1012.92 722.14 1015.63 717.07 1011.94 713.22 1017.31 713.94 1020.02 708.87 1020.63 714.38 1026 715.1"/><ellipse class="cls-25" cx="1214.76" cy="643.76" rx="42.58" ry="50.63" transform="translate(166.32 1533.06) rotate(-68.23)"/><ellipse class="cls-3" cx="1217.15" cy="644.72" rx="35.66" ry="24.88" transform="translate(166.94 1535.88) rotate(-68.23)"/><ellipse class="cls-28" cx="1224.7" cy="653.23" rx="19.99" ry="12.75" transform="translate(163.79 1548.25) rotate(-68.23)"/><ellipse class="cls-23" cx="1224.18" cy="651.64" rx="15.65" ry="10.78" transform="translate(164.94 1546.76) rotate(-68.23)"/><path class="cls-11" d="M1214.49,687.27s28.76-23.7,30.05-75.23c0,0,28.94,19.65,17.3,50.53-11.64,30.88-47.35,24.7-47.35,24.7Z"/><ellipse class="cls-25" cx="1250.24" cy="578.28" rx="42.45" ry="48.37" transform="translate(249.46 1524.82) rotate(-68.23)"/><path class="cls-11" d="M1211.58,687.04s34.18-25.32,29.73-81.21c0,0-58.87-21.44-73.29,18.52-18.43,51.08,43.56,62.7,43.56,62.7Z"/><path class="cls-12" d="M1259.48,593.72s-1,25.95-18,33.35c-17,7.4-2.4,25.39-2.4,25.39,0,0,18.34,14.42,27.99-5.03,9.64-19.46,14.66-36.71,14.66-36.71l-22.25-16.99Z"/><ellipse class="cls-3" cx="1249.6" cy="573.78" rx="35.34" ry="31.29" transform="translate(253.23 1521.39) rotate(-68.23)"/><ellipse class="cls-28" cx="1260.57" cy="576.88" rx="21.56" ry="15.15" transform="translate(257.25 1533.52) rotate(-68.23)"/><path class="cls-23" d="M1262.55,557.22c6.23.57,10.2,9.19,8.87,19.24-1.33,10.05-7.47,17.73-13.7,17.16s-10.2-9.19-8.87-19.24c1.33-10.05,7.47-17.73,13.7-17.16Z"/><path class="cls-11" d="M1247.84,620.84s28.76-23.7,30.05-75.23c0,0,28.94,19.65,17.3,50.53-11.64,30.88-47.35,24.7-47.35,24.7Z"/><path class="cls-11" d="M1244.07,620.61s33.78-22.14,29.7-77.88c0,0-53.26-29.13-73.52,16.9-18.99,43.14,43.82,60.98,43.82,60.98Z"/><polygon class="cls-21" points="1442.25 399.83 1358.68 464.34 1342.84 447.97 1422.45 386.92 1442.25 399.83"/><ellipse class="cls-26" cx="1312.36" cy="672.47" rx="26.95" ry="41.23"/><path class="cls-19" d="M1312.36,717.71c-17.36,0-30.95-19.87-30.95-45.23s13.6-45.23,30.95-45.23,30.95,19.87,30.95,45.23-13.6,45.23-30.95,45.23ZM1312.36,635.24c-12.44,0-22.95,17.05-22.95,37.23s10.51,37.23,22.95,37.23,22.95-17.05,22.95-37.23-10.51-37.23-22.95-37.23Z"/><path class="cls-29" d="M1317.87,707.1s11.41-3.39,15.22-23.74c3.8-20.35-4.14-33.41-4.14-33.41,0,0-14.23,15.22-8.77,30.77,0,0-9.59,6.12-2.32,26.38Z"/><path class="cls-29" d="M1317.79,707.25l-.04-.11c-2.08-5.8-4.05-14.12-1.57-20.88,1.35-3.68,3.41-5.29,3.86-5.6-5.33-15.41,8.68-30.65,8.83-30.8l.11-.12.08.14s2.01,3.35,3.51,9.11c1.38,5.31,2.61,13.86.64,24.39-3.78,20.19-15.19,23.8-15.31,23.83l-.11.03ZM1328.93,650.16c-1.33,1.49-13.74,15.96-8.63,30.51l.03.09-.08.05s-2.39,1.57-3.84,5.55c-2.42,6.63-.51,14.82,1.54,20.57,1.19-.43,11.48-4.65,15.02-23.6,1.96-10.48.74-18.98-.64-24.27-1.31-5.05-3-8.21-3.4-8.91Z"/><path class="cls-20" d="M1325.32,686.68c-.21-1.24-.94-2.3-1.75-3.23-.92-1.04-1.95-1.98-3.01-2.86-.2-.17-.49-.2-.69,0-.17.17-.2.52,0,.69,1.02.84,2,1.74,2.88,2.72.77.85,1.43,1.8,1.63,2.94.04.26.36.4.6.34.27-.08.38-.34.34-.6h0Z"/><path class="cls-23" d="M1293.98,685.05c2.29.15,4.34.03,6.63-.04.26,0,.56-.05.67-.28.06-.13.04-.29.02-.43-.28-1.75-.55-3.5-.83-5.25,0-.06-.02-.12-.06-.16-.06-.07-.17-.06-.26-.05-2.24.3-4.51.37-6.77.18,0,.16-.04.32-.13.45-.21-.12-.36-.34-.38-.58.16,1.14.31,2.28.47,3.42.06.46.53,2.1.61,2.57"/><path class="cls-23" d="M1293.98,686.55c1.48.09,2.95.08,4.43.04.75-.02,1.51-.03,2.26-.08,1.1-.08,2.14-.71,2.16-1.93,0-.75-.21-1.57-.33-2.31s-.24-1.53-.36-2.3c-.14-.88-.14-1.94-1.03-2.42-.75-.4-1.7-.1-2.51-.03-1.73.15-3.47.15-5.21.01-.83-.06-1.48.74-1.5,1.5,0-.11.03-.21.07-.3l2.05-.54c.16.09.26.21.31.36.04.11.04.09,0-.05-.14-.77-1.12-1.28-1.85-1.05-.86.28-1.16,1.01-1.05,1.85.17,1.23.26,2.51.53,3.73.17.76.41,1.5.56,2.27s1.12,1.28,1.85,1.05c.83-.27,1.2-1.02,1.05-1.85-.14-.77-.39-1.51-.56-2.27-.27-1.22-.36-2.49-.53-3.73l-2.89.8c.12.63.55,1.13,1.07,1.48.67.45,1.66.13,2.05-.54.22-.38.32-.77.34-1.21l-1.5,1.5c1.18.09,2.37.12,3.55.09.58-.02,1.16-.05,1.73-.1.53-.05,1.14-.22,1.67-.16l-.76-.2.08.04-.54-.54c-.19-.35-.08-.1-.05.05.02.14.04.27.06.41.04.27.09.55.13.82.08.52.16,1.04.25,1.56s.16,1.04.25,1.56c.02.14.04.27.06.41.01.08.03.16.04.25l-.03-.18.72-1c.19-.02.23-.02.12-.02-.13,0-.26.01-.39.01-2.1.07-4.2.17-6.3.03-.78-.05-1.53.73-1.5,1.5.04.86.66,1.45,1.5,1.5h0Z"/><path class="cls-23" d="M1292.69,669.96c2.39.01,4.78.03,7.17.04.12,0,.26,0,.36-.07.14-.1.18-.29.2-.46.3-2.53.48-5.07.54-7.61,0-.06,0-.13-.02-.19-.07-.15-.27-.17-.44-.17-2.13.01-4.26.02-6.39.03-.15,0-.3,0-.43.07-.24.13-.31.42-.37.69-.39,1.97-.66,3.96-.82,5.96-.04.49-.07,1.31.21,1.72"/><path class="cls-23" d="M1292.69,671.46l3.67.02c1.2,0,2.43.09,3.63.02.86-.05,1.62-.55,1.84-1.42.17-.66.18-1.41.25-2.09.12-1.18.21-2.37.27-3.56.03-.58.06-1.16.08-1.74.03-.79.08-1.53-.5-2.16-.54-.59-1.39-.54-2.12-.53-.62,0-1.23,0-1.85,0-1.23,0-2.47,0-3.7.02-.83,0-1.58.23-2.06.96-.36.54-.42,1.26-.53,1.88-.25,1.39-.44,2.8-.58,4.21-.12,1.18-.34,2.57.31,3.64.41.67,1.36.98,2.05.54s.97-1.33.54-2.05c-.15-.24.04.28,0-.01-.06-.37,0,.34-.02-.06-.01-.23-.01-.46,0-.69.03-.59.1-1.19.16-1.78.13-1.2.3-2.33.55-3.65.03-.14.08-.3.09-.44l.03-.11c-.12.34-.41.53-.85.58.25.07.65,0,.91,0,.64,0,1.29,0,1.93,0s1.35,0,2.02,0c.34,0,.67,0,1.01,0,.14,0,.28,0,.42,0,.08,0,.17,0,.25,0,.27.01.14-.02-.37-.11l-.54-.54c-.09-.52-.13-.66-.13-.41,0,.08,0,.17,0,.25,0,.17,0,.33-.01.5,0,.3-.02.61-.04.91-.03.64-.06,1.27-.11,1.91-.09,1.26-.17,2.54-.35,3.8l.02-.13c-.13.49.18.26.91-.67-.12-.03-.29,0-.42,0h-.92c-.67,0-1.33-.01-2-.02l-3.84-.02c-.78,0-1.54.69-1.5,1.5s.66,1.49,1.5,1.5h0Z"/><path class="cls-23" d="M1295.72,653.93c2.47.34,4.97.52,7.46.53.35-1.68.71-3.37,1.06-5.05.05-.22.09-.46,0-.67-.16-.34-.6-.41-.98-.44-1.13-.08-2.25-.15-3.38-.23-.33-.02-.67-.04-.97.09-.4.17-.64.57-.86.95-.42.73-.84,1.45-1.25,2.18-.35.61-.88,2.02-1.09,2.63"/><path class="cls-23" d="M1295.32,655.37c2.61.36,5.23.57,7.86.59.62,0,1.31-.47,1.45-1.1.3-1.44.6-2.88.91-4.32.18-.87.47-1.84-.06-2.65s-1.4-1.03-2.3-1.09c-.73-.05-1.46-.1-2.2-.15s-1.59-.19-2.33.02c-.85.24-1.42.9-1.85,1.63-.36.62-.72,1.25-1.08,1.87-.61,1.06-1.05,2.2-1.45,3.35-.26.74.29,1.67,1.05,1.85.84.19,1.57-.25,1.85-1.05.16-.46.33-.92.51-1.37.03-.07.06-.15.09-.22-.07.18-.08.19-.01.03.05-.1.09-.2.14-.3.11-.24.24-.47.38-.7.38-.67.76-1.34,1.15-2,.04-.08.09-.15.14-.23.1-.14.1-.15,0,0,.12-.12.12-.12,0,0l-.11.04c-.17,0-.17,0,.02,0,.09,0,.19,0,.28,0,.19,0,.38.02.56.04.79.05,1.58.11,2.36.16.2.01.39.04.59.04.31,0-.28-.03.12.03.19.06.08,0-.33-.21-.24-.24-.31-.49-.23-.75-.08.14-.08.39-.11.54-.33,1.55-.65,3.1-.98,4.64l1.45-1.1c-1.22,0-2.44-.05-3.66-.14-.61-.04-1.22-.1-1.82-.16-.28-.03-.55-.06-.83-.09-.17-.02-.33-.04-.5-.06l-.17-.02c.12.02.09.01-.1-.01-.77-.11-1.65.19-1.85,1.05-.16.71.22,1.73,1.05,1.85h0Z"/><path class="cls-23" d="M1296.61,692.74c2.31,0,4.62.07,6.92.2.16,0,.33.02.47.11.16.1.25.27.33.44.47.99.79,2.04.95,3.12.17,1.16.31,2.01.45,3.23.01.08.06.42.06.51-.03.25-.22.28-.47.26-1.1-.09-2.19-.17-3.29-.26-.36-.03-.72-.06-1.05-.21-.34-.16-.6-.45-.85-.73-1.75-2.01-2.71-4.15-3.67-6.64"/><path class="cls-23" d="M1296.61,694.24c1.28,0,2.55.02,3.83.06.67.02,1.34.05,2,.08.3.01.61.03.91.05.08,0,.16,0,.24.01.28.03.1-.06-.54-.25l-.08-.08c.03.07.07.13.1.2.11.24.13.29.24.6s.2.6.28.9c.15.58.24,1.17.33,1.76.08.54.16,1.08.24,1.63-.03-.2.01.11.02.18.02.15.04.29.05.44.02.18.05.37.07.55l-.03-.19c.01.26.06.12.14-.42l.54-.54c.37-.24.67-.11.27-.14-.15-.01-.3-.02-.46-.04-.3-.02-.61-.05-.91-.07-.61-.05-1.22-.09-1.83-.14-.1,0-.21-.01-.31-.03.24.04-.08-.04-.13-.05-.1-.03-.1-.03.02,0l-.12-.08.08.06c-.05-.05-.1-.1-.15-.15-.18-.18-.34-.38-.5-.57-.08-.1-.17-.21-.25-.31.11.15-.06-.09-.1-.14-.59-.8-1.09-1.67-1.53-2.56-.23-.46-.44-.93-.64-1.4.06.15,0-.02-.03-.08-.05-.12-.1-.24-.15-.37-.11-.27-.22-.55-.32-.82-.28-.73-1.02-1.31-1.85-1.05-.71.23-1.35,1.06-1.05,1.85.75,1.92,1.54,3.85,2.71,5.56.62.9,1.3,1.88,2.21,2.52.98.69,2.32.62,3.47.71s2.89.55,3.63-.7c.35-.59.24-1.12.16-1.75.05.38-.03-.23-.04-.36-.05-.4-.11-.79-.16-1.19-.15-1.03-.26-2.08-.55-3.09-.16-.57-.37-1.12-.6-1.66-.26-.6-.56-1.2-1.19-1.5s-1.41-.28-2.12-.31c-.64-.03-1.27-.06-1.91-.08-1.34-.05-2.67-.07-4.01-.07-.78,0-1.54.69-1.5,1.5s.66,1.5,1.5,1.5h0Z"/><path class="cls-6" d="M1308.42,705.97c.54-1.78,2.45-2.77,4.26-3.22s3.75-.59,5.35-1.55c1.92-1.16,3-3.29,4.48-4.97s3.99-2.99,5.91-1.84c.66.39,1.13,1.02,1.67,1.56,1.73,1.77,4.18,2.82,5.6,4.85,1.88,2.68,1.48,6.38.2,9.39-1.28,3.01-3.32,5.64-4.68,8.61-1.71,3.73-2.29,7.96-1.66,12.02,1.04,6.65,5.23,12.66,5.32,19.39.06,4.92-2.33,9.89-6.42,12.61-4.1,2.73-9.82,2.94-13.93.24-4.17-2.75-6.2-7.99-6.14-12.98s1.9-9.79,4.11-14.27c2.15-4.37,4.74-9.17,3.33-13.83-.83-2.76-2.95-4.91-4.68-7.21s-3.18-5.22-2.38-7.99"/><path class="cls-6" d="M1310.29,706.49c.81-2.16,4.59-2.11,6.4-2.64,2.6-.76,4.28-2.42,5.86-4.54,1.22-1.62,3.42-4.74,5.54-2.66.88.87,1.73,1.68,2.73,2.42,1.1.82,2.36,1.59,3.2,2.71,3.5,4.7-1.9,10.97-3.97,15-2.66,5.17-3.33,11.04-1.92,16.69,1.38,5.51,4.64,10.69,4.8,16.47.14,5.12-2.69,10.45-7.61,12.34-4.79,1.84-10.21.23-12.9-4.2-2.9-4.79-2.37-10.54-.64-15.64,2.04-6.03,6.92-11.93,6.35-18.58-.27-3.14-1.8-5.63-3.7-8.06s-4.56-5.24-3.78-8.51c.58-2.43-3.17-3.47-3.75-1.03-.78,3.26.37,6.38,2.25,9.05,1.73,2.45,4.26,4.69,4.95,7.73.76,3.35-.84,6.81-2.27,9.75-1.5,3.09-3.04,6.16-4.07,9.45-1.81,5.83-1.97,12.44,1.3,17.81,3.16,5.18,8.97,7.67,14.91,6.62s10.57-5.82,12.19-11.56c1.83-6.46-.8-12.5-2.97-18.49-1.14-3.14-2.04-6.32-1.93-9.7.11-3.49,1.25-6.69,2.97-9.69,2.91-5.07,7.07-11.67,3.14-17.41-.95-1.38-2.25-2.39-3.58-3.36s-2.37-2.14-3.62-3.18c-2.74-2.28-6.39-1.08-8.7,1.22-1.15,1.14-1.95,2.58-3.02,3.78-1.26,1.41-2.72,1.86-4.53,2.22-3.16.64-6.16,1.7-7.37,4.95-.88,2.35,2.88,3.36,3.75,1.03h0Z"/><path class="cls-8" d="M1478.37,661.72s-14.66,10.92-26.83,4.88c0,0-10.87,3.54-1.67,15.16,0,0,2.97,5.01,10.5,4.6,0,0-.11,14.39,3.66,20.1,3.77,5.71,1.45,7.95,1.45,7.95,0,0-7.97,14.19-.43,21.55,7.54,7.36,3.77,13.39,23.82,11.68,20.06-1.71,56.58-10.3,56.58-10.3,0,0,19.89-2.65,22.04-17.6,2.15-14.95-5.82-14.96-5.82-14.96,0,0-2.83-.94-11.32,10.8,0,0-7.71,1.4-21.25-7.29-13.54-8.7-25.54.77-25.54.77l-16.55.1s1.04-22.51-4.7-25.84c0,0,15.01-26.03-3.93-21.61Z"/><path class="cls-8" d="M1422.14,806.29s9.6-16.82,1.72-28.86c0,0,2.33-11.89,15.69-3.69,0,0,5.63,2.49,6.16,10.47,0,0,15.09-1.96,21.56,1.28,6.47,3.24,8.53.51,8.53.51,0,0,13.88-10.2,22.56-3.2,8.68,7,14.53,2.25,15.28,23.58.75,21.33-3.63,60.86-3.63,60.86,0,0-.26,21.27-15.67,25.44-15.42,4.17-16.43-4.22-16.43-4.22,0,0-1.35-2.86,9.89-13.29,0,0,.49-8.3-10.35-21.44-10.85-13.14-2.44-26.98-2.44-26.98l-2-17.43s-23.49,3.97-27.71-1.65c0,0-25.41,19.12-23.17-1.38Z"/><path class="cls-13" d="M421.02,854.91c-14.91-8.59-25.88-8.07-33.54-4.72-13.27,5.81-19.59,22.62-14.78,36.29,4.8,13.67,17.84,23.13,31.68,27.39,13.85,4.25,28.61,4.1,43.09,3.9,21.24-.29,42.48-.57,63.72-.86,25.56-.34,51.11-.69,76.67-1.03,40.34-.54,80.68-1.09,121.02-1.63,14.75-.2,33.18-2.99,37.5-17.09,3.21-10.48-3.98-21.5-12.77-28.05-14.59-10.87-34.6-14.04-51.84-8.21,15.39-21.17,7.06-55.35-16.35-67.07-23.4-11.72-55.76,2.08-63.5,27.08-1.69-28.83-23.94-57-52.71-59.43-28.77-2.43-57.16,27.76-48.15,55.19-12.24-10.77-26.8-19.68-42.95-21.88-16.15-2.2-34.01,3.4-43.38,16.74-9.37,13.34-7.33,34.42,6.28,43.39"/><path class="cls-9" d="M1274.04,383.36c-.25.42-1.23,2.07-1.23,2.55,0,.67,1.51.64,1.93.64,4.9,0,3.3-3.7,5.43-3.7,1.4,0,2.02.84,2.02,2.16,0,3.02-1.85,5.29-2.83,5.29-.14,0-.67-.06-1.26-.14-.59-.06-1.23-.11-1.62-.11h-11.82c-.95,0-1.99.25-1.99-1.06,0-.53.34-.98.59-1.4l7.06-11.98c.14-.22.5-.76.5-1.06,0-.73-1.15-.81-1.85-.81-3.53,0-2.66,3.78-4.65,3.78-1.15,0-1.93-1.32-1.93-2.38,0-2.13,1.93-5.04,2.6-5.04.14,0,.34.08.9.2.59.08,1.6.14,3.33.14,1.2,0,3.36-.03,5.43-.17,2.04-.11,3.98-.22,4.65-.22.81,0,1.43.5,1.43,1.37,0,.5-.45,1.18-.67,1.6l-6.02,10.36Z"/><path class="cls-9" d="M1408.17,70.62c-.5.82-2.42,4.07-2.42,5,0,1.32,2.97,1.27,3.79,1.27,9.62,0,6.49-7.26,10.67-7.26,2.75,0,3.96,1.65,3.96,4.23,0,5.94-3.63,10.39-5.55,10.39-.28,0-1.32-.11-2.47-.27-1.16-.11-2.42-.22-3.19-.22h-23.21c-1.87,0-3.91.5-3.91-2.09,0-1.04.66-1.92,1.16-2.75l13.86-23.54c.27-.44.99-1.48.99-2.09,0-1.43-2.25-1.59-3.63-1.59-6.93,0-5.22,7.42-9.13,7.42-2.25,0-3.79-2.58-3.79-4.67,0-4.18,3.79-9.9,5.11-9.9.28,0,.66.17,1.76.39,1.16.17,3.13.27,6.54.27,2.37,0,6.6-.06,10.67-.33,4.01-.22,7.81-.44,9.13-.44,1.59,0,2.8.99,2.8,2.69,0,.99-.88,2.31-1.32,3.13l-11.82,20.35Z"/><path class="cls-34" d="M1332.59,133.88c-.44.73-2.16,3.63-2.16,4.46,0,1.18,2.65,1.13,3.38,1.13,8.57,0,5.78-6.47,9.5-6.47,2.45,0,3.53,1.47,3.53,3.77,0,5.29-3.23,9.26-4.95,9.26-.24,0-1.18-.1-2.2-.25-1.03-.1-2.16-.2-2.84-.2h-20.68c-1.67,0-3.48.44-3.48-1.86,0-.93.59-1.71,1.03-2.45l12.35-20.97c.25-.39.88-1.32.88-1.86,0-1.27-2.01-1.42-3.23-1.42-6.17,0-4.66,6.61-8.13,6.61-2.01,0-3.38-2.3-3.38-4.16,0-3.72,3.38-8.82,4.56-8.82.25,0,.59.15,1.57.34,1.03.15,2.79.25,5.83.25,2.11,0,5.88-.05,9.5-.29,3.58-.2,6.96-.39,8.13-.39,1.42,0,2.5.88,2.5,2.4,0,.88-.78,2.06-1.18,2.79l-10.53,18.13Z"/><path class="cls-34" d="M1354.81,214.02c-.44.73-2.16,3.63-2.16,4.46,0,1.18,2.65,1.13,3.38,1.13,8.57,0,5.78-6.47,9.5-6.47,2.45,0,3.53,1.47,3.53,3.77,0,5.29-3.23,9.26-4.95,9.26-.24,0-1.18-.1-2.2-.25-1.03-.1-2.16-.2-2.84-.2h-20.68c-1.67,0-3.48.44-3.48-1.86,0-.93.59-1.71,1.03-2.45l12.35-20.97c.25-.39.88-1.32.88-1.86,0-1.27-2.01-1.42-3.23-1.42-6.17,0-4.66,6.61-8.13,6.61-2.01,0-3.38-2.3-3.38-4.16,0-3.72,3.38-8.82,4.56-8.82.25,0,.59.15,1.57.34,1.03.15,2.79.25,5.83.25,2.11,0,5.88-.05,9.5-.29,3.58-.2,6.96-.39,8.13-.39,1.42,0,2.5.88,2.5,2.4,0,.88-.78,2.06-1.18,2.79l-10.53,18.13Z"/><path class="cls-9" d="M1295.2,265.36c-.36.6-1.76,2.96-1.76,3.64,0,.96,2.16.92,2.76.92,7,0,4.72-5.28,7.76-5.28,2,0,2.88,1.2,2.88,3.08,0,4.32-2.64,7.56-4.04,7.56-.2,0-.96-.08-1.8-.2-.84-.08-1.76-.16-2.32-.16h-16.88c-1.36,0-2.84.36-2.84-1.52,0-.76.48-1.4.84-2l10.08-17.12c.2-.32.72-1.08.72-1.52,0-1.04-1.64-1.16-2.64-1.16-5.04,0-3.8,5.4-6.64,5.4-1.64,0-2.76-1.88-2.76-3.4,0-3.04,2.76-7.2,3.72-7.2.2,0,.48.12,1.28.28.84.12,2.28.2,4.76.2,1.72,0,4.8-.04,7.76-.24,2.92-.16,5.68-.32,6.64-.32,1.16,0,2.04.72,2.04,1.96,0,.72-.64,1.68-.96,2.28l-8.6,14.8Z"/><path class="cls-9" d="M1328.28,336.9c-.44.73-2.16,3.63-2.16,4.46,0,1.18,2.65,1.13,3.38,1.13,8.57,0,5.78-6.47,9.5-6.47,2.45,0,3.53,1.47,3.53,3.77,0,5.29-3.23,9.26-4.95,9.26-.24,0-1.18-.1-2.2-.25-1.03-.1-2.16-.2-2.84-.2h-20.68c-1.67,0-3.48.44-3.48-1.86,0-.93.59-1.71,1.03-2.45l12.35-20.97c.25-.39.88-1.32.88-1.86,0-1.27-2.01-1.42-3.23-1.42-6.17,0-4.66,6.61-8.13,6.61-2.01,0-3.38-2.3-3.38-4.16,0-3.72,3.38-8.82,4.56-8.82.25,0,.59.15,1.57.34,1.03.15,2.79.25,5.83.25,2.11,0,5.88-.05,9.5-.29,3.58-.2,6.96-.39,8.13-.39,1.42,0,2.5.88,2.5,2.4,0,.88-.78,2.06-1.18,2.79l-10.53,18.13Z"/><path class="cls-24" d="M193.04,312.87c.2-10.3-7.3-5.3-7.3-11.8,0-4.6,5.8-5.3,9.3-5.3h32.6c27.8,0,36.9,17.2,36.9,35.2s-10.9,36.1-36.2,36.1c-4.3,0-7.9-.1-11-.3-3.1-.1-5.8-.2-8.6-.2s-5.7.1-8.5.2c-2.8.2-5.6.3-8.5.3-3.4,0-7.7-1.7-7.7-5.7,0-7.2,7.9.8,8.2-13.8l.8-34.7ZM217.04,349.47c0,5.1.8,7.2,6.2,7.2,12.6,0,14.8-12.9,14.8-22.9,0-23.4-8.8-27.1-16.5-27.1-4.2,0-4.5,1.7-4.5,5.5v37.3Z"/><path class="cls-24" d="M330.24,313.77c0-10.7-8.6-6.6-8.6-12.4,0-6.2,11.6-6,15.7-6,3.8,0,14.8,0,14.8,5.8s-7.5,2.2-7.5,11.3v27c0,4.5.1,28.5-34.5,28.5-39.4,0-35-30.4-35-31.6v-23.1c.4-6.3-6.4-6.3-6.4-10.9,0-1.4-1.1-7,19.5-7,16.3,0,19.6,3,19.6,6.9,0,7.2-7.3.5-7.8,12.7v18.4c0,11.9,4.5,19.5,15.1,19.5,15.8,0,15.1-13.1,15.1-14.2v-24.9Z"/><path class="cls-24" d="M461.44,350.07c0,3,.4,4.5,3.1,6,2,1.1,3.4,1.7,3.4,4.2s-.2,7.4-19.9,7.4c-4.4,0-17.2-.1-17.2-6.8-.4-7.7,7,.8,7-19.5,0-5.4-1.2-5.2-6.2-5.2-14,0-12.7.4-12.7,9.4,0,13.7,6.2,8.2,6.2,14.7,0,7-14.6,7.4-19.4,7.4s-18.5-.4-18.5-7.2c0-2.1,1.5-3.4,3.2-4.2,3.6-1.7,4.9-1.4,4.9-22.3,0-26.6-.4-24.4-4.1-26.4-1.5-.8-3.3-1.7-3.3-3.7,0-7.7,16.7-8.5,22.3-8.5,4.2,0,15.8.5,15.8,6.5,0,3.1-1.7,4.2-4,5.6-2.5,1.4-3.1,2.6-3.1,11.5,0,5.6,2.6,4.9,7.4,4.9h5.1c6.6,0,6.4-1,6.4-4.1,0-10.9-1.7-11.6-3-12.3-1.9-1.1-3.7-2-3.7-4.6,0-1.9-.4-7.5,19.5-7.5,4.7,0,18,.1,18,7.1,0,2.2-1.1,3.7-3.1,4.7-3,1.3-4.1,1-4.1,16.9v26Z"/><path class="cls-24" d="M490.84,330.47c3.1-6.9,7.2-15.7,7.2-23.6,0-6.9,3.2-12.1,12.1-12.1s14.2,8.9,18.1,15.5c1.7,2.9,16.8,33.5,20.4,41.7,3.3,7.6,8.7,3,8.7,8.7,0,7.3-14.2,7-19.2,7-14.3,0-22.9-.1-22.9-6.3,0-4.8,6.1-3,6.1-6.5,0-4.5-2.5-4.9-18.6-4.9-5.2,0-8.3.2-8.3,5.1,0,3.9,6.4,1.3,6.4,6.5,0,6-10.8,6.1-14.8,6.1-14.3,0-15.6-2.7-15.6-5.9,0-4.7,5.4-3.3,8.3-6.9,2.2-2.7,4.3-7.5,5.8-10.7l6.3-13.7ZM511.84,337.67c1,0,4,.2,4-1.3s-2.9-6.7-3.7-8.1c-.9-1.6-2.6-5.3-4.8-5.3-2.4,0-4.1,6-4.5,7.1-.4,1.1-2.1,5-2.1,6.2,0,1.7,2.5,1.4,3.6,1.4h7.5Z"/><path class="cls-24" d="M566.73,317.27c0-15.5-7.6-9.1-7.6-15.3,0-5.5,7.8-6.2,11.8-6.2,2.1,0,4.1.2,6.2.3,2,.2,4.1.4,6.1.4,3.2,0,6.4-.2,9.7-.4,3.2-.1,6.5-.3,9.7-.3,11.3,0,24.4,5,24.4,18.3,0,6-2.9,11.8-8.5,14.5-.9.5-1.6.8-1.6,2,0,1.5,1.3,1.9,2.5,2.4,7,2.6,10.1,7.2,11.5,18,1.2,9.3,7.7,3.7,7.7,9.8,0,3.8-4.6,7.8-15.9,7.8-16,0-18-9.2-21.1-22.4-1.1-4.6-2.8-9.1-8.3-9.1-2.2,0-3,.3-3,6.6,0,2.9.2,6.9.7,9.7.8,4.6,5.9,3.2,5.9,8,0,3.6-2.5,6.3-18.7,6.3-4.8,0-19,0-19-7.3,0-5.2,7.5-1.6,7.5-14.6v-28.5ZM589.93,321.67c-.2,2.6-.7,4.8,2.6,4.8,6.5,0,8.6-3.6,8.6-9.8,0-4.9-1.2-9.9-7-9.9-3.7,0-3.6,2.3-3.8,5.4l-.4,9.5Z"/><path class="cls-24" d="M721.33,358.97c-2.1,4.1-4.1,8.7-9.5,8.7-5.8,0-7.3-3.3-9.5-8l-19.9-44c-3-6.5-3.9-7.7-7.8-8.3-2-.3-3-1.8-3-3.9,0-7.7,15.9-8.1,21-8.1,21,0,20.2,5,20.2,6.5,0,3.8-4.8,4-4.8,6.7,0,2.1,3.9,9.9,6.3,15.1.9,1.7,2,5.6,4.2,5.7,3.3.2,5-5.4,6.2-7.5,1.2-2.4,5.8-11.4,5.8-13.8,0-3.6-5.1-2.6-5.1-6.6,0-6.2,12.6-6.1,16.6-6.1,12.6,0,14.7,2.3,14.7,5.8,0,2.7-2,4-4.4,4.3-4.3.5-4.7.2-8.5,7.9l-22.5,45.6Z"/><path class="cls-24" d="M819.34,313.77c0-10.7-8.6-6.6-8.6-12.4,0-6.2,11.6-6,15.7-6,3.8,0,14.8,0,14.8,5.8s-7.5,2.2-7.5,11.3v27c0,4.5.1,28.5-34.5,28.5-39.4,0-35-30.4-35-31.6v-23.1c.4-6.3-6.4-6.3-6.4-10.9,0-1.4-1.1-7,19.5-7,16.3,0,19.6,3,19.6,6.9,0,7.2-7.3.5-7.8,12.7v18.4c0,11.9,4.5,19.5,15.1,19.5,15.8,0,15.1-13.1,15.1-14.2v-24.9Z"/><path class="cls-24" d="M897.93,320.57c1.2,1,4.4,3.9,6.2,3.9,2.5,0,2.6-4.1,2.6-5.8,0-2.5-.1-6.8-.9-9.1-1.4-4.2-6.7-2.7-6.7-8.1,0-6.4,10.2-6.1,14.4-6.1s15.3-.5,15.3,6.4c0,5.7-5.3,3.6-7,8.2-1.3,3.6-1.3,9.8-1.3,13.6v25.9c0,4.5.6,18.2-6.1,18.2-2,0-3.7-1.2-5.2-2.5l-30.9-27.7c-1.4-1.3-4-3.7-6.1-3.7-3.1,0-3.2,6.5-3.2,8.6,0,2.8.1,6.5.7,9.1,1.5,6.4,6.8,4,6.8,8.9,0,6.7-10.3,7.3-15,7.3s-14.9-.6-14.9-7.1c0-5.3,5.8-3.2,6.8-9.6.7-4.3.9-10.6.9-15.1,0-7.2,0-14.5-1.1-21.7-1.6-10-8.8-6.1-8.8-12.1,0-7.1,13.5-6.7,18-6.7,6.2,0,7.3.4,11.8,4.4l23.7,20.8Z"/><path class="cls-24" d="M941.13,312.87c.2-10.3-7.3-5.3-7.3-11.8,0-4.6,5.8-5.3,9.3-5.3h32.6c27.8,0,36.9,17.2,36.9,35.2s-10.9,36.1-36.2,36.1c-4.3,0-7.9-.1-11-.3-3.1-.1-5.8-.2-8.6-.2s-5.7.1-8.5.2c-2.8.2-5.6.3-8.5.3-3.4,0-7.7-1.7-7.7-5.7,0-7.2,7.9.8,8.2-13.8l.8-34.7ZM965.13,349.47c0,5.1.8,7.2,6.2,7.2,12.6,0,14.8-12.9,14.8-22.9,0-23.4-8.8-27.1-16.5-27.1-4.2,0-4.5,1.7-4.5,5.5v37.3Z"/><path class="cls-24" d="M1058.13,296.47c13.4,0,15.3-2,16.9-2,5.7,0,8.1,9.8,8.1,14.2,0,3.3-1.3,7.2-5.2,7.2-7.9,0-1.5-9.6-20.5-9.6-11.1,0-10,2-10,13.5,0,5.8.3,6,6.4,6,7.6,0,1.9-11.1,9-11.1,5.8,0,6.2,11.3,6.2,15.2,0,4.1-.7,16.1-6.7,16.1s0-10.5-10.1-10.5c-4.2,0-4.1,3.8-4.1,7,0,14.6,1,13.9,11.5,13.9,20.5,0,14.7-14.1,22.9-14.1,3.2,0,4.8,3.6,4.8,6.4,0,6.8-5.4,19-9.4,19-.7,0-2.3-.3-4.4-.6-2.2-.2-5-.5-8.4-.5h-41.1c-6.6,0-6.7-3-6.7-4.3,0-5.5,6.8-1.1,7.5-11.7,1.2-18.2,1.3-16.4.3-34.5-.7-15.3-8.3-7.4-8.3-14.5,0-6.1,8.4-5.1,12.5-5.1h28.8Z"/><path class="cls-24" d="M1138.23,296.47c4.3,0,6.3-.4,7.8-.7,1.4-.4,2.2-.7,4.1-.7,3.9,0,12,7.7,12,18.5,0,5-2.6,8.3-7.7,8.3-8.7,0-8.6-11.8-13.7-11.8-3.9,0-3.5,5.4-3.5,6.2v30.7c0,11.9,9.2,6.2,9.2,13.2,0,3.1-1.9,7.5-20.6,7.5-5.1,0-23.8.2-23.8-7.5,0-5.3,6.2-3.2,8.2-7,1-2.1,1.4-8.1,1.5-10.6l.8-22.1c.4-10.5-1.7-10.4-3.1-10.4-4.5,0-6.7,11.8-14.8,11.8-3.9,0-6.2-3.6-6.2-7.2,0-8.5,7.2-19.6,12.9-19.6.7,0,1.8.3,3.7.7,1.9.3,4.6.7,8.6.7h24.6Z"/><path class="cls-24" d="M1185.63,329.57c-.9,1.9-4.4,8.4-6.9,8.4s-6-6.5-6.9-8.4c-2.8-5.5-5.1-13-5.1-19.2,0-7.4,3.5-15.3,12-15.3s12,7.9,12,15.3c0,6.2-2.3,13.7-5.1,19.2ZM1178.73,367.97c-6.1,0-11.1-5-11.1-11.1s5-11.1,11.1-11.1,11.1,5,11.1,11.1-5,11.1-11.1,11.1Z"/><path class="cls-36" d="M674.42,947.67c-16.24-29.28-28.99-64.33-17.28-97.17,11.71-32.84,40.12-52.52,67.57-50.79,27.45,1.73,53.06,22.86,69.2,52.23-.34-46.78,25.4-93.11,60.17-102.02,34.76-8.91,73.53,25.29,77.32,71.8,15.7-28.22,40.98-51.26,67.16-45.73,26.18,5.53,45.41,51.29,28.28,78,17.28-5.49,36.07-6.9,52.31,2.6,16.25,9.5,28.97,32.1,26.74,55.39-2.47,25.74-20.98,43.13-38.87,53.87-48.19,28.93-102.5,33.39-155.41,35.49-39.79,1.58-79.6,2.09-119.4,1.52-43.46-.62-93.81-7.32-117.79-55.2"/><polygon class="cls-32" points="851.38 823.74 916.16 860.17 852.22 898.05 851.38 823.74"/><path class="cls-32" d="M851.61,844.11s-58.15,17.73-40.49,85.76c0,0,22.76,64.63,91.08,38.76,0,0,50.25-21.48,37.14-78.99l-20.01,5.7s10.1,43.84-33.18,55.21c-51.15,13.43-58.03-40.17-58.03-40.17,0,0-3-27.68,23.73-43.65"/><path class="cls-23" d="M1086.82,911.93c-6.84,15.64-18.75,28.83-33.55,37.33-4.16,2.39-8.52,4.38-13.04,5.96-1.81.63-1.03,3.53.8,2.89,16.67-5.82,31.19-17.06,41.15-31.62,2.81-4.11,5.23-8.48,7.23-13.05.77-1.75-1.82-3.28-2.59-1.51h0Z"/><path class="cls-23" d="M690.28,818.79c-8.56,6.11-14.05,15.31-19.44,24.12-2.99,4.88-5.7,9.89-7.45,15.36-1.63,5.1-2.5,10.46-2.6,15.8-.12,6.08.78,12.18,2.65,17.97.59,1.83,3.49,1.05,2.89-.8-3.16-9.79-3.38-20.39-.61-30.3,1.46-5.23,3.84-10.04,6.61-14.7,2.59-4.35,5.26-8.69,8.16-12.83,3.16-4.52,6.79-8.81,11.31-12.03,1.56-1.11.06-3.72-1.51-2.59h0Z"/><path class="cls-23" d="M954.6,801.89c-5.54,4.48-11.21,9.32-13.6,16.26-.63,1.83,2.27,2.62,2.89.8,2.19-6.38,7.76-10.84,12.83-14.94.63-.51.53-1.59,0-2.12-.62-.62-1.49-.51-2.12,0h0Z"/><path class="cls-10" d="M378.19,549.05c4.88-8.97,7.95-18.98,8.94-29.21.93-9.51-1.14-21.04-9.67-24.83-8.07-3.58-17.72,2.35-21.62,10.44-3.9,8.09-3.57,17.57-3.16,26.59-3.72-7.37-4.68-15.99-8.66-23.22-3.97-7.23-13.13-12.83-20.05-8.55-5.54,3.43-6.64,11.36-5.25,17.86,1.38,6.49,4.59,12.51,5.48,19.1-5.8-6.53-11.93-13.29-20.01-16.33-8.08-3.03-18.69-.96-22.65,6.89-3.89,7.69.14,17.4,6.35,23.26,6.21,5.86,14.24,9.19,21.24,14.02"/><path class="cls-17" d="M305.3,960.09s.06,0,.09,0c1.51-.05,2.69-1.35,2.64-2.9l-2.31-72.24c-.05-1.55-1.31-2.78-2.82-2.72-1.51.05-2.69,1.35-2.64,2.9l2.31,72.24c.05,1.52,1.26,2.72,2.73,2.72Z"/><path class="cls-17" d="M287.11,960.09h40.38c1.51,0,2.73-1.26,2.73-2.81s-1.22-2.81-2.73-2.81h-40.38c-1.51,0-2.73,1.26-2.73,2.81s1.22,2.81,2.73,2.81Z"/><path class="cls-17" d="M277.06,959.56c1.41,0,2.61-1.12,2.72-2.59l5.53-72.06c.12-1.55-1-2.9-2.51-3.02-1.48-.12-2.82,1.03-2.94,2.58l-5.53,72.06c-.12,1.55,1,2.9,2.51,3.02.07,0,.15,0,.22,0Z"/><path class="cls-17" d="M299.11,962.09c1.37,0,2.56-1.06,2.71-2.5.17-1.54-.91-2.93-2.41-3.1l-40.12-4.62c-1.5-.18-2.85.94-3.02,2.48-.17,1.54.91,2.93,2.41,3.1l40.12,4.62c.1.01.21.02.31.02Z"/><path class="cls-30" d="M302.35,686.56c6.73-24.92-1.09-47.04-1.73-72.9-.64-25.86,6.4-55.43,28.76-67.32,18.63-9.91,42.75-3.4,57.88,11.53,15.14,14.93,22.44,36.58,24.98,57.97,2.54,21.4.84,43.05.74,64.61-.14,29.37,2.7,58.81.16,88.07-2.53,29.26-11.1,59.14-30.73,80.49-20.28,22.06-50.08,32.48-79.41,36.02-29.33,3.55-59,1.02-88.54,1.37-20.33.24-41.35,1.74-60.35-5.72-36.5-14.34-54.07-56.42-64.4-95.14-4.5-16.85-8.39-34.05-8.49-51.52-.03-4.72.38-9.85,3.46-13.35,5.18-5.9,15.35-3.57,20.28,2.55,4.93,6.12,6.04,14.48,6.96,22.37-4.1-16.14-5.51-32.99-4.15-49.61.49-5.99,3.3-13.68,9.13-13.11,4.61.45,6.82,5.93,8.06,10.52,2.23,8.27,4.47,16.55,6.7,24.82-2.59-12.75-4.04-25.75-4.31-38.78-.18-8.55,3.91-20.35,11.99-18.28,3.96,1.01,6.23,5.2,7.92,9.02,6.32,14.3,11.1,29.32,14.24,44.69,44.37-15.52,92.05-20.99,138.66-15.92.73-4.13,1.47-8.25,2.2-12.38"/><path class="cls-2" d="M344.25,784.23c-.12,21.22-20.09,35.56-37.3,42.72-10.35,4.31-21.48,6.67-32.65,6.92-4.53.1-10.11.02-12.71-4.52-2.28-3.98-1.6-9.52-.52-13.78,2.57-10.18,10.2-18.74,19.9-22.1,1.26-.44,2.37,1.44,1.33,2.35-8.32,7.25-18.39,15.36-30.03,12.49-4.46-1.1-8.8-3.81-11.02-8.04-2.65-5.04-1.72-11.09,1.09-15.85,3.61-6.11,9.86-9.72,15.81-13.01.23.87.46,1.74.69,2.62-11.46.57-27.66.09-33.38-12.31-2.77-5.99-1.66-12.96,1.71-18.44,3.71-6.05,9.71-9.96,16.58-11,8.98-1.37,18.05,1.55,25.76,6.18,1.52.91.14,3.34-1.38,2.43-11.39-6.85-28.41-10.1-37.55,2.25-3.38,4.57-5.15,10.76-3.12,16.31,1.96,5.35,6.81,8.59,11.95,10.17,6.26,1.92,12.96,1.94,19.43,1.62,1.35-.07,1.87,1.97.69,2.62-4.78,2.64-9.76,5.38-13.28,9.74-3.12,3.87-5.04,9.46-3.08,14.33,1.57,3.9,5.29,6.41,9.13,7.51,4.43,1.27,8.94.65,13.15-1.14,5.6-2.38,10.34-6.46,14.92-10.44.44.78.89,1.56,1.33,2.35-7.9,2.74-14.32,9.42-17.17,17.44-1.35,3.81-2.32,8.54-1.27,12.54,1.34,5.11,6.85,4.99,11.05,4.9,10.21-.23,20.35-2.3,29.9-6.01,8.86-3.44,17.49-8.28,24.48-14.9,7.14-6.75,12.77-15.68,12.83-25.93.01-1.81,2.74-1.81,2.73,0h0Z"/><path class="cls-23" d="M390.74,607.08s-.08-.63-.26-1.71c-1.33-8.17-8.04-42.35-25.44-30.54-19.72,13.38,0,37.98,0,37.98,0,0,6.69-15.08,25.7-5.73Z"/><path class="cls-31" d="M378.49,591.22c-12.2-3.02-11.55,13.82-11.55,13.82v4.85s6.56-10.67,23.8-2.8c0,0-2.93-13.56-12.24-15.87Z"/><path class="cls-16" d="M454.5,616.25s5.31-20.51-52.65-10.1c0,0-11.24,20.09,3.06,26.5,0,0,27.32-17.96,49.59-16.4Z"/><path class="cls-16" d="M408.98,635.35s28.1-3.54,35.49-7.77,1.53-3.31,1.53-3.31c0,0-31.89,4.4-37.39-.39-5.5-4.78-7.97,3.26-7.97,3.26,0,0,1.45,9.65,8.34,8.21Z"/><path class="cls-13" d="M218.4,971.74c-9.15-5.32-15.88-5-20.58-2.92-8.15,3.6-12.02,14.01-9.07,22.48,2.95,8.47,10.95,14.33,19.45,16.96s17.56,2.54,26.45,2.42c13.04-.18,26.07-.35,39.11-.53,15.69-.21,31.37-.43,47.06-.64,24.76-.34,49.52-.67,74.28-1.01,9.05-.12,20.37-1.85,23.02-10.59,1.97-6.49-2.44-13.32-7.84-17.38-8.96-6.73-21.24-8.7-31.82-5.09,9.44-13.12,4.33-34.29-10.03-41.55-14.36-7.26-34.23,1.29-38.98,16.77-1.04-17.86-14.69-35.31-32.36-36.81-17.66-1.5-35.09,17.19-29.55,34.19-7.51-6.67-16.45-12.19-26.36-13.55-9.91-1.36-20.87,2.1-26.63,10.37s-4.5,21.32,3.86,26.88"/><path class="cls-14" d="M359.66,639.04l-11.13,7.94h11.13l-5.57,9.71h15.22l-5.55,10.59,48.99-23.83s64.88-15.14,43.32-40.29c-9.25-10.79-54.22,3-54.22,3l-42.18,32.88Z"/><path class="cls-5" d="M364.17,616.91c-3.63,2.84-7.62,6.47-7.28,11.06.03.36.1.75.37.98.23.2.55.25.85.27,3.06.17,6.03-2.33,6.38-5.38.32-2.8-1.28-5.84.01-8.35"/><path class="cls-5" d="M363.11,615.85c-3.68,2.89-7.99,6.79-7.73,11.92.08,1.6.87,2.78,2.55,2.94,1.24.12,2.5-.19,3.62-.71,2.13-.98,3.89-3.05,4.33-5.38.29-1.53.07-3.04-.17-4.56-.19-1.22-.48-2.65.09-3.81.35-.73.2-1.62-.54-2.05-.66-.38-1.7-.19-2.05.54-1.09,2.25-.59,4.47-.28,6.83.25,1.89.04,3.51-1.39,4.86-.58.55-1.28.95-2.04,1.15-.42.11-.69.15-1.1.15-.18,0-.22-.04-.24.03l.13.17c.14.23.17.23.09,0-.03.11,0-.15,0-.17-.12-1.86.72-3.6,1.84-5.06,1.39-1.83,3.22-3.32,5.02-4.74.64-.5.52-1.6,0-2.12-.63-.63-1.48-.5-2.12,0h0Z"/></svg>